<mxfile host="app.diagrams.net" modified="2023-06-04T23:35:41.977Z" agent="Mozilla/5.0 (Windows NT 10.0; Win64; x64) AppleWebKit/537.36 (KHTML, like Gecko) Chrome/112.0.0.0 Safari/537.36 OPR/98.0.0.0" etag="A1cNfO9CWlGqJQUINXzr" version="21.3.7" type="device">
  <diagram id="XMwrWmoNUrTni26uysBv" name="PÃ¡gina-1">
    <mxGraphModel dx="2817" dy="1827" grid="1" gridSize="10" guides="1" tooltips="1" connect="1" arrows="1" fold="1" page="1" pageScale="1" pageWidth="827" pageHeight="1169" background="none" math="0" shadow="0">
      <root>
        <mxCell id="0" />
        <mxCell id="1" parent="0" />
        <mxCell id="ZhGPCTu5Iyny0ZlqSRic-1" value="&lt;font style=&quot;font-size:11px;font-family:Calibri;color:#000000;direction:ltr;letter-spacing:0px;line-height:120%;opacity:1&quot;&gt;TABLERO&lt;br&gt;&lt;/font&gt;" style="verticalAlign=middle;align=center;vsdxID=7;fillColor=#FFFFFF;gradientColor=none;shape=stencil(nZBLDoAgDERP0z3SIyjew0SURgSD+Lu9kMZoXLhwN9O+tukAlrNpJg1SzDH4QW/URgNYgZTkjA4UkwJUgGXng+6DX1zLfmoymdXo17xh5zmRJ6Q42BWCfc2oJfdAr+Yv+AP9Cb7OJ3H/2JG1HNGz/84klThPVCc=);strokeColor=#000000;spacingTop=-1;spacingBottom=-1;spacingLeft=-1;spacingRight=-1;labelBackgroundColor=none;rounded=0;html=1;whiteSpace=wrap;" parent="1" vertex="1">
          <mxGeometry x="-1013" y="-240" width="82" height="30" as="geometry" />
        </mxCell>
        <mxCell id="ZhGPCTu5Iyny0ZlqSRic-4" value="&lt;font style=&quot;font-size:11px;font-family:Calibri;color:#000000;direction:ltr;letter-spacing:0px;line-height:120%;opacity:1&quot;&gt;JUGADOR_ACTIVO&lt;br&gt;&lt;/font&gt;" style="verticalAlign=middle;align=center;vsdxID=7;fillColor=#FFFFFF;gradientColor=none;shape=stencil(nZBLDoAgDERP0z3SIyjew0SURgSD+Lu9kMZoXLhwN9O+tukAlrNpJg1SzDH4QW/URgNYgZTkjA4UkwJUgGXng+6DX1zLfmoymdXo17xh5zmRJ6Q42BWCfc2oJfdAr+Yv+AP9Cb7OJ3H/2JG1HNGz/84klThPVCc=);strokeColor=#000000;spacingTop=-1;spacingBottom=-1;spacingLeft=-1;spacingRight=-1;labelBackgroundColor=none;rounded=0;html=1;whiteSpace=wrap;" parent="1" vertex="1">
          <mxGeometry x="-1124.5" y="-730" width="100" height="40" as="geometry" />
        </mxCell>
        <mxCell id="ZhGPCTu5Iyny0ZlqSRic-5" value="&lt;font style=&quot;font-size:11px;font-family:Calibri;color:#000000;direction:ltr;letter-spacing:0px;line-height:120%;opacity:1&quot;&gt;DADO&lt;br&gt;&lt;/font&gt;" style="verticalAlign=middle;align=center;vsdxID=7;fillColor=#FFFFFF;gradientColor=none;shape=stencil(nZBLDoAgDERP0z3SIyjew0SURgSD+Lu9kMZoXLhwN9O+tukAlrNpJg1SzDH4QW/URgNYgZTkjA4UkwJUgGXng+6DX1zLfmoymdXo17xh5zmRJ6Q42BWCfc2oJfdAr+Yv+AP9Cb7OJ3H/2JG1HNGz/84klThPVCc=);strokeColor=#000000;spacingTop=-1;spacingBottom=-1;spacingLeft=-1;spacingRight=-1;labelBackgroundColor=none;rounded=0;html=1;whiteSpace=wrap;" parent="1" vertex="1">
          <mxGeometry x="-730" y="-865" width="82" height="30" as="geometry" />
        </mxCell>
        <mxCell id="ZhGPCTu5Iyny0ZlqSRic-6" value="&lt;font style=&quot;font-size: 11px ; font-family: &amp;quot;calibri&amp;quot; ; color: #000000 ; direction: ltr ; letter-spacing: 0px ; line-height: 120% ; opacity: 1&quot;&gt;TIENE&lt;br&gt;&lt;/font&gt;" style="verticalAlign=middle;align=center;vsdxID=2;fillColor=#FFFFFF;gradientColor=none;shape=stencil(tVLREoIgEPwaHnEQxsl3s/9gEpSJwDko7e+DsEkze2l627vdu5uFRaxyHe8FosR5sCcxqMZ3iO0Rpcp0ApQPCLEasUpaEC3Yi2lS3fOojOhsr3HDmObyMtsVcYqS29Qh5FEfklwrM5OXeUa/yjkcAwfr7TDpiyTfXvjkMR+Vw2A998qaBac5tAKHU1hq3i4oNwjRr9ofvayt/+Rk+yX/4iWA159KpXWKxJx/z0Bopfyw+g4=);strokeColor=#000000;spacingTop=-1;spacingBottom=-1;spacingLeft=-1;spacingRight=-1;labelBackgroundColor=none;rounded=0;html=1;whiteSpace=wrap;" parent="1" vertex="1">
          <mxGeometry x="-328" y="-905" width="80" height="30" as="geometry" />
        </mxCell>
        <mxCell id="DCNwNrw-yuZkW3MHIDjY-6" value="&lt;font style=&quot;font-size: 11px ; font-family: &amp;quot;calibri&amp;quot; ; color: #000000 ; direction: ltr ; letter-spacing: 0px ; line-height: 120% ; opacity: 1&quot;&gt;TIENE&lt;br&gt;&lt;/font&gt;" style="verticalAlign=middle;align=center;vsdxID=2;fillColor=#FFFFFF;gradientColor=none;shape=stencil(tVLREoIgEPwaHnEQxsl3s/9gEpSJwDko7e+DsEkze2l627vdu5uFRaxyHe8FosR5sCcxqMZ3iO0Rpcp0ApQPCLEasUpaEC3Yi2lS3fOojOhsr3HDmObyMtsVcYqS29Qh5FEfklwrM5OXeUa/yjkcAwfr7TDpiyTfXvjkMR+Vw2A998qaBac5tAKHU1hq3i4oNwjRr9ofvayt/+Rk+yX/4iWA159KpXWKxJx/z0Bopfyw+g4=);strokeColor=#000000;spacingTop=-1;spacingBottom=-1;spacingLeft=-1;spacingRight=-1;labelBackgroundColor=none;rounded=0;html=1;whiteSpace=wrap;" parent="1" vertex="1">
          <mxGeometry x="-884" y="-245" width="80" height="30" as="geometry" />
        </mxCell>
        <mxCell id="3d_Hws1QxchP5DV1Z6rh-1" value="&lt;font style=&quot;font-size:11px;font-family:Calibri;color:#000000;direction:ltr;letter-spacing:0px;line-height:120%;opacity:1&quot;&gt;CASILLA&lt;br&gt;&lt;/font&gt;" style="verticalAlign=middle;align=center;vsdxID=7;fillColor=#FFFFFF;gradientColor=none;shape=stencil(nZBLDoAgDERP0z3SIyjew0SURgSD+Lu9kMZoXLhwN9O+tukAlrNpJg1SzDH4QW/URgNYgZTkjA4UkwJUgGXng+6DX1zLfmoymdXo17xh5zmRJ6Q42BWCfc2oJfdAr+Yv+AP9Cb7OJ3H/2JG1HNGz/84klThPVCc=);strokeColor=#000000;spacingTop=-1;spacingBottom=-1;spacingLeft=-1;spacingRight=-1;labelBackgroundColor=none;rounded=0;html=1;whiteSpace=wrap;" parent="1" vertex="1">
          <mxGeometry x="-730" y="-170" width="82" height="30" as="geometry" />
        </mxCell>
        <mxCell id="ZhGPCTu5Iyny0ZlqSRic-11" value="&lt;font style=&quot;font-size:11px;font-family:Calibri;color:#000000;direction:ltr;letter-spacing:0px;line-height:120%;opacity:1&quot;&gt;CARCEL&lt;br&gt;&lt;/font&gt;" style="verticalAlign=middle;align=center;vsdxID=7;fillColor=#FFFFFF;gradientColor=none;shape=stencil(nZBLDoAgDERP0z3SIyjew0SURgSD+Lu9kMZoXLhwN9O+tukAlrNpJg1SzDH4QW/URgNYgZTkjA4UkwJUgGXng+6DX1zLfmoymdXo17xh5zmRJ6Q42BWCfc2oJfdAr+Yv+AP9Cb7OJ3H/2JG1HNGz/84klThPVCc=);strokeColor=#000000;spacingTop=-1;spacingBottom=-1;spacingLeft=-1;spacingRight=-1;labelBackgroundColor=none;rounded=0;html=1;whiteSpace=wrap;" parent="1" vertex="1">
          <mxGeometry x="-851" y="-452.5" width="82" height="35" as="geometry" />
        </mxCell>
        <mxCell id="3d_Hws1QxchP5DV1Z6rh-3" value="&lt;font style=&quot;font-size:11px;font-family:Calibri;color:#000000;direction:ltr;letter-spacing:0px;line-height:120%;opacity:1&quot;&gt;CAPACIDAD&lt;br&gt;&lt;/font&gt;" style="verticalAlign=middle;align=center;vsdxID=7;fillColor=#FFFFFF;gradientColor=none;shape=stencil(nZBLDoAgDERP0z3SIyjew0SURgSD+Lu9kMZoXLhwN9O+tukAlrNpJg1SzDH4QW/URgNYgZTkjA4UkwJUgGXng+6DX1zLfmoymdXo17xh5zmRJ6Q42BWCfc2oJfdAr+Yv+AP9Cb7OJ3H/2JG1HNGz/84klThPVCc=);strokeColor=#000000;spacingTop=-1;spacingBottom=-1;spacingLeft=-1;spacingRight=-1;labelBackgroundColor=none;rounded=0;html=1;whiteSpace=wrap;" parent="1" vertex="1">
          <mxGeometry x="-951" y="-170" width="82" height="30" as="geometry" />
        </mxCell>
        <mxCell id="ZhGPCTu5Iyny0ZlqSRic-12" value="&lt;font style=&quot;font-size:11px;font-family:Calibri;color:#000000;direction:ltr;letter-spacing:0px;line-height:120%;opacity:1&quot;&gt;CIELO&lt;br&gt;&lt;/font&gt;" style="verticalAlign=middle;align=center;vsdxID=7;fillColor=#FFFFFF;gradientColor=none;shape=stencil(nZBLDoAgDERP0z3SIyjew0SURgSD+Lu9kMZoXLhwN9O+tukAlrNpJg1SzDH4QW/URgNYgZTkjA4UkwJUgGXng+6DX1zLfmoymdXo17xh5zmRJ6Q42BWCfc2oJfdAr+Yv+AP9Cb7OJ3H/2JG1HNGz/84klThPVCc=);strokeColor=#000000;spacingTop=-1;spacingBottom=-1;spacingLeft=-1;spacingRight=-1;labelBackgroundColor=none;rounded=0;html=1;whiteSpace=wrap;" parent="1" vertex="1">
          <mxGeometry x="-722.5" y="-230" width="82" height="30" as="geometry" />
        </mxCell>
        <mxCell id="DCNwNrw-yuZkW3MHIDjY-3" value="&lt;font style=&quot;font-size: 11px ; font-family: &amp;quot;calibri&amp;quot; ; color: #000000 ; direction: ltr ; letter-spacing: 0px ; line-height: 120% ; opacity: 1&quot;&gt;TIENE&lt;br&gt;&lt;/font&gt;" style="verticalAlign=middle;align=center;vsdxID=2;fillColor=#FFFFFF;gradientColor=none;shape=stencil(tVLREoIgEPwaHnEQxsl3s/9gEpSJwDko7e+DsEkze2l627vdu5uFRaxyHe8FosR5sCcxqMZ3iO0Rpcp0ApQPCLEasUpaEC3Yi2lS3fOojOhsr3HDmObyMtsVcYqS29Qh5FEfklwrM5OXeUa/yjkcAwfr7TDpiyTfXvjkMR+Vw2A998qaBac5tAKHU1hq3i4oNwjRr9ofvayt/+Rk+yX/4iWA159KpXWKxJx/z0Bopfyw+g4=);strokeColor=#000000;spacingTop=-1;spacingBottom=-1;spacingLeft=-1;spacingRight=-1;labelBackgroundColor=none;rounded=0;html=1;whiteSpace=wrap;" parent="1" vertex="1">
          <mxGeometry x="-426.25" y="-170" width="80" height="30" as="geometry" />
        </mxCell>
        <mxCell id="ZhGPCTu5Iyny0ZlqSRic-15" style="vsdxID=57;edgeStyle=none;startArrow=none;endArrow=block;startSize=5;endSize=9;strokeColor=#000000;spacingTop=0;spacingBottom=0;spacingLeft=0;spacingRight=0;verticalAlign=middle;html=1;labelBackgroundColor=#ffffff;rounded=0;" parent="1" source="ZhGPCTu5Iyny0ZlqSRic-6" target="ZhGPCTu5Iyny0ZlqSRic-7" edge="1">
          <mxGeometry relative="1" as="geometry">
            <mxPoint as="offset" />
            <mxPoint x="-443" y="-20" as="sourcePoint" />
            <mxPoint x="-443" y="60" as="targetPoint" />
            <Array as="points">
              <mxPoint x="-284" y="-590" />
            </Array>
          </mxGeometry>
        </mxCell>
        <mxCell id="ZhGPCTu5Iyny0ZlqSRic-16" value="&lt;font style=&quot;font-size:11px;font-family:Calibri;color:#000000;direction:ltr;letter-spacing:0px;line-height:120%;opacity:1&quot;&gt;ESTADO&lt;br&gt;&lt;/font&gt;" style="verticalAlign=middle;align=center;vsdxID=7;fillColor=#FFFFFF;gradientColor=none;shape=stencil(nZBLDoAgDERP0z3SIyjew0SURgSD+Lu9kMZoXLhwN9O+tukAlrNpJg1SzDH4QW/URgNYgZTkjA4UkwJUgGXng+6DX1zLfmoymdXo17xh5zmRJ6Q42BWCfc2oJfdAr+Yv+AP9Cb7OJ3H/2JG1HNGz/84klThPVCc=);strokeColor=#000000;spacingTop=-1;spacingBottom=-1;spacingLeft=-1;spacingRight=-1;labelBackgroundColor=none;rounded=0;html=1;whiteSpace=wrap;" parent="1" vertex="1">
          <mxGeometry x="-594.75" y="-452.5" width="82" height="30" as="geometry" />
        </mxCell>
        <mxCell id="ZhGPCTu5Iyny0ZlqSRic-17" value="&lt;font style=&quot;font-size:11px;font-family:Calibri;color:#000000;direction:ltr;letter-spacing:0px;line-height:120%;opacity:1&quot;&gt;COLOR&lt;br&gt;&lt;/font&gt;" style="verticalAlign=middle;align=center;vsdxID=7;fillColor=#FFFFFF;gradientColor=none;shape=stencil(nZBLDoAgDERP0z3SIyjew0SURgSD+Lu9kMZoXLhwN9O+tukAlrNpJg1SzDH4QW/URgNYgZTkjA4UkwJUgGXng+6DX1zLfmoymdXo17xh5zmRJ6Q42BWCfc2oJfdAr+Yv+AP9Cb7OJ3H/2JG1HNGz/84klThPVCc=);strokeColor=#000000;spacingTop=-1;spacingBottom=-1;spacingLeft=-1;spacingRight=-1;labelBackgroundColor=none;rounded=0;html=1;whiteSpace=wrap;" parent="1" vertex="1">
          <mxGeometry x="-384.25" y="-538" width="82" height="30" as="geometry" />
        </mxCell>
        <mxCell id="ZhGPCTu5Iyny0ZlqSRic-18" value="&lt;font style=&quot;font-size:11px;font-family:Calibri;color:#000000;direction:ltr;letter-spacing:0px;line-height:120%;opacity:1&quot;&gt;CANTIDAD&lt;br&gt;&lt;/font&gt;" style="verticalAlign=middle;align=center;vsdxID=7;fillColor=#FFFFFF;gradientColor=none;shape=stencil(nZBLDoAgDERP0z3SIyjew0SURgSD+Lu9kMZoXLhwN9O+tukAlrNpJg1SzDH4QW/URgNYgZTkjA4UkwJUgGXng+6DX1zLfmoymdXo17xh5zmRJ6Q42BWCfc2oJfdAr+Yv+AP9Cb7OJ3H/2JG1HNGz/84klThPVCc=);strokeColor=#000000;spacingTop=-1;spacingBottom=-1;spacingLeft=-1;spacingRight=-1;labelBackgroundColor=none;rounded=0;html=1;whiteSpace=wrap;" parent="1" vertex="1">
          <mxGeometry x="-437" y="-440" width="82" height="30" as="geometry" />
        </mxCell>
        <mxCell id="ZhGPCTu5Iyny0ZlqSRic-19" value="&lt;font style=&quot;font-size:11px;font-family:Calibri;color:#000000;direction:ltr;letter-spacing:0px;line-height:120%;opacity:1&quot;&gt;POSICION&lt;br&gt;&lt;/font&gt;" style="verticalAlign=middle;align=center;vsdxID=7;fillColor=#FFFFFF;gradientColor=none;shape=stencil(nZBLDoAgDERP0z3SIyjew0SURgSD+Lu9kMZoXLhwN9O+tukAlrNpJg1SzDH4QW/URgNYgZTkjA4UkwJUgGXng+6DX1zLfmoymdXo17xh5zmRJ6Q42BWCfc2oJfdAr+Yv+AP9Cb7OJ3H/2JG1HNGz/84klThPVCc=);strokeColor=#000000;spacingTop=-1;spacingBottom=-1;spacingLeft=-1;spacingRight=-1;labelBackgroundColor=none;rounded=0;html=1;whiteSpace=wrap;" parent="1" vertex="1">
          <mxGeometry x="-458" y="-380" width="82" height="30" as="geometry" />
        </mxCell>
        <mxCell id="3d_Hws1QxchP5DV1Z6rh-6" value="&lt;font style=&quot;font-size:11px;font-family:Calibri;color:#000000;direction:ltr;letter-spacing:0px;line-height:120%;opacity:1&quot;&gt;SALIDA&lt;br&gt;&lt;/font&gt;" style="verticalAlign=middle;align=center;vsdxID=7;fillColor=#FFFFFF;gradientColor=none;shape=stencil(nZBLDoAgDERP0z3SIyjew0SURgSD+Lu9kMZoXLhwN9O+tukAlrNpJg1SzDH4QW/URgNYgZTkjA4UkwJUgGXng+6DX1zLfmoymdXo17xh5zmRJ6Q42BWCfc2oJfdAr+Yv+AP9Cb7OJ3H/2JG1HNGz/84klThPVCc=);strokeColor=#000000;spacingTop=-1;spacingBottom=-1;spacingLeft=-1;spacingRight=-1;labelBackgroundColor=none;rounded=0;html=1;whiteSpace=wrap;direction=west;" parent="1" vertex="1">
          <mxGeometry x="-764.63" y="-105" width="62" height="30" as="geometry" />
        </mxCell>
        <mxCell id="ZhGPCTu5Iyny0ZlqSRic-21" value="&lt;font style=&quot;font-size: 11px ; font-family: &amp;quot;calibri&amp;quot; ; color: #000000 ; direction: ltr ; letter-spacing: 0px ; line-height: 120% ; opacity: 1&quot;&gt;TIENE&lt;br&gt;&lt;/font&gt;" style="verticalAlign=middle;align=center;vsdxID=2;fillColor=#FFFFFF;gradientColor=none;shape=stencil(tVLREoIgEPwaHnEQxsl3s/9gEpSJwDko7e+DsEkze2l627vdu5uFRaxyHe8FosR5sCcxqMZ3iO0Rpcp0ApQPCLEasUpaEC3Yi2lS3fOojOhsr3HDmObyMtsVcYqS29Qh5FEfklwrM5OXeUa/yjkcAwfr7TDpiyTfXvjkMR+Vw2A998qaBac5tAKHU1hq3i4oNwjRr9ofvayt/+Rk+yX/4iWA159KpXWKxJx/z0Bopfyw+g4=);strokeColor=#000000;spacingTop=-1;spacingBottom=-1;spacingLeft=-1;spacingRight=-1;labelBackgroundColor=none;rounded=0;html=1;whiteSpace=wrap;" parent="1" vertex="1">
          <mxGeometry x="-592.75" y="-543" width="80" height="30" as="geometry" />
        </mxCell>
        <mxCell id="ZhGPCTu5Iyny0ZlqSRic-23" style="vsdxID=57;edgeStyle=none;startArrow=none;endArrow=block;startSize=5;endSize=9;strokeColor=#000000;spacingTop=0;spacingBottom=0;spacingLeft=0;spacingRight=0;verticalAlign=middle;html=1;labelBackgroundColor=#ffffff;rounded=0;" parent="1" source="ZhGPCTu5Iyny0ZlqSRic-7" target="ZhGPCTu5Iyny0ZlqSRic-21" edge="1">
          <mxGeometry relative="1" as="geometry">
            <mxPoint as="offset" />
            <mxPoint x="-323" y="-10" as="sourcePoint" />
            <mxPoint x="-284" y="-180" as="targetPoint" />
          </mxGeometry>
        </mxCell>
        <mxCell id="ZhGPCTu5Iyny0ZlqSRic-25" style="vsdxID=57;edgeStyle=none;startArrow=none;endArrow=block;startSize=5;endSize=9;strokeColor=#000000;spacingTop=0;spacingBottom=0;spacingLeft=0;spacingRight=0;verticalAlign=middle;html=1;labelBackgroundColor=#ffffff;rounded=0;" parent="1" source="ZhGPCTu5Iyny0ZlqSRic-21" target="ZhGPCTu5Iyny0ZlqSRic-18" edge="1">
          <mxGeometry relative="1" as="geometry">
            <mxPoint as="offset" />
            <mxPoint x="-304" y="60" as="sourcePoint" />
            <mxPoint x="-304" y="140" as="targetPoint" />
          </mxGeometry>
        </mxCell>
        <mxCell id="ZhGPCTu5Iyny0ZlqSRic-26" style="vsdxID=57;edgeStyle=none;startArrow=none;endArrow=block;startSize=5;endSize=9;strokeColor=#000000;spacingTop=0;spacingBottom=0;spacingLeft=0;spacingRight=0;verticalAlign=middle;html=1;labelBackgroundColor=#ffffff;rounded=0;" parent="1" source="ZhGPCTu5Iyny0ZlqSRic-21" target="ZhGPCTu5Iyny0ZlqSRic-17" edge="1">
          <mxGeometry relative="1" as="geometry">
            <mxPoint as="offset" />
            <mxPoint x="-304" y="60" as="sourcePoint" />
            <mxPoint x="-304" y="140" as="targetPoint" />
          </mxGeometry>
        </mxCell>
        <mxCell id="3d_Hws1QxchP5DV1Z6rh-8" value="&lt;font style=&quot;font-size:11px;font-family:Calibri;color:#000000;direction:ltr;letter-spacing:0px;line-height:120%;opacity:1&quot;&gt;SEGURO&lt;br&gt;&lt;/font&gt;" style="verticalAlign=middle;align=center;vsdxID=7;fillColor=#FFFFFF;gradientColor=none;shape=stencil(nZBLDoAgDERP0z3SIyjew0SURgSD+Lu9kMZoXLhwN9O+tukAlrNpJg1SzDH4QW/URgNYgZTkjA4UkwJUgGXng+6DX1zLfmoymdXo17xh5zmRJ6Q42BWCfc2oJfdAr+Yv+AP9Cb7OJ3H/2JG1HNGz/84klThPVCc=);strokeColor=#000000;spacingTop=-1;spacingBottom=-1;spacingLeft=-1;spacingRight=-1;labelBackgroundColor=none;rounded=0;html=1;whiteSpace=wrap;" parent="1" vertex="1">
          <mxGeometry x="-515.75" y="-42.5" width="60" height="20" as="geometry" />
        </mxCell>
        <mxCell id="ZhGPCTu5Iyny0ZlqSRic-27" style="vsdxID=57;edgeStyle=none;startArrow=none;endArrow=block;startSize=5;endSize=9;strokeColor=#000000;spacingTop=0;spacingBottom=0;spacingLeft=0;spacingRight=0;verticalAlign=middle;html=1;labelBackgroundColor=#ffffff;rounded=0;" parent="1" source="ZhGPCTu5Iyny0ZlqSRic-21" target="ZhGPCTu5Iyny0ZlqSRic-16" edge="1">
          <mxGeometry relative="1" as="geometry">
            <mxPoint as="offset" />
            <mxPoint x="-264" y="45" as="sourcePoint" />
            <mxPoint x="-184" y="45" as="targetPoint" />
          </mxGeometry>
        </mxCell>
        <mxCell id="ZhGPCTu5Iyny0ZlqSRic-29" style="vsdxID=57;edgeStyle=none;startArrow=none;endArrow=block;startSize=5;endSize=9;strokeColor=#000000;spacingTop=0;spacingBottom=0;spacingLeft=0;spacingRight=0;verticalAlign=middle;html=1;labelBackgroundColor=#ffffff;rounded=0;" parent="1" source="ZhGPCTu5Iyny0ZlqSRic-21" target="ZhGPCTu5Iyny0ZlqSRic-19" edge="1">
          <mxGeometry relative="1" as="geometry">
            <mxPoint as="offset" />
            <mxPoint x="-264" y="45" as="sourcePoint" />
            <mxPoint x="-184" y="45" as="targetPoint" />
          </mxGeometry>
        </mxCell>
        <mxCell id="ZhGPCTu5Iyny0ZlqSRic-31" style="vsdxID=57;edgeStyle=none;startArrow=none;endArrow=block;startSize=5;endSize=9;strokeColor=#000000;spacingTop=0;spacingBottom=0;spacingLeft=0;spacingRight=0;verticalAlign=middle;html=1;labelBackgroundColor=#ffffff;rounded=0;" parent="1" source="ZhGPCTu5Iyny0ZlqSRic-5" target="ZhGPCTu5Iyny0ZlqSRic-33" edge="1">
          <mxGeometry relative="1" as="geometry">
            <mxPoint as="offset" />
            <mxPoint x="77" y="-70" as="sourcePoint" />
            <mxPoint x="86" y="-30" as="targetPoint" />
          </mxGeometry>
        </mxCell>
        <mxCell id="ZhGPCTu5Iyny0ZlqSRic-33" value="&lt;font style=&quot;font-size: 11px ; font-family: &amp;quot;calibri&amp;quot; ; color: #000000 ; direction: ltr ; letter-spacing: 0px ; line-height: 120% ; opacity: 1&quot;&gt;TIENE&lt;br&gt;&lt;/font&gt;" style="verticalAlign=middle;align=center;vsdxID=2;fillColor=#FFFFFF;gradientColor=none;shape=stencil(tVLREoIgEPwaHnEQxsl3s/9gEpSJwDko7e+DsEkze2l627vdu5uFRaxyHe8FosR5sCcxqMZ3iO0Rpcp0ApQPCLEasUpaEC3Yi2lS3fOojOhsr3HDmObyMtsVcYqS29Qh5FEfklwrM5OXeUa/yjkcAwfr7TDpiyTfXvjkMR+Vw2A998qaBac5tAKHU1hq3i4oNwjRr9ofvayt/+Rk+yX/4iWA159KpXWKxJx/z0Bopfyw+g4=);strokeColor=#000000;spacingTop=-1;spacingBottom=-1;spacingLeft=-1;spacingRight=-1;labelBackgroundColor=none;rounded=0;html=1;whiteSpace=wrap;" parent="1" vertex="1">
          <mxGeometry x="-589" y="-855" width="80" height="30" as="geometry" />
        </mxCell>
        <mxCell id="ZhGPCTu5Iyny0ZlqSRic-36" style="vsdxID=57;edgeStyle=none;startArrow=none;endArrow=block;startSize=5;endSize=9;strokeColor=#000000;spacingTop=0;spacingBottom=0;spacingLeft=0;spacingRight=0;verticalAlign=middle;html=1;labelBackgroundColor=#ffffff;rounded=0;" parent="1" source="a82_juw0TD2ykU31_FT8-60" target="ZhGPCTu5Iyny0ZlqSRic-139" edge="1">
          <mxGeometry relative="1" as="geometry">
            <mxPoint as="offset" />
            <mxPoint x="-174" y="-420" as="sourcePoint" />
            <mxPoint x="-235" y="-350" as="targetPoint" />
          </mxGeometry>
        </mxCell>
        <mxCell id="ZhGPCTu5Iyny0ZlqSRic-37" value="&lt;font style=&quot;font-size: 11px ; font-family: &amp;quot;calibri&amp;quot; ; color: #000000 ; direction: ltr ; letter-spacing: 0px ; line-height: 120% ; opacity: 1&quot;&gt;LANZA&lt;br&gt;&lt;/font&gt;" style="verticalAlign=middle;align=center;vsdxID=1;fillColor=#FFFFFF;gradientColor=none;shape=stencil(tVLREoIgEPwaHnEQxsl3s/9gEpSJwDko7e+DsEkze2l627vdu5uFRaxyHe8FosR5sCcxqMZ3iO0Rpcp0ApQPCLEasUpaEC3Yi2lS3fOojOhsr3HDmObyMtsVcYqS29Qh5FEfklwrM5OXeUa/yjkcAwfr7TDpiyTfXvjkMR+Vw2A998qaBac5tAKHU1hq3i4oNwjRr9ofvayt/+Rk+yX/4iWA159KpXWKxJx/z0Bopfyw+g4=);dashed=1;strokeColor=#000000;strokeWidth=3;spacingTop=-1;spacingBottom=-1;spacingLeft=-1;spacingRight=-1;labelBackgroundColor=none;rounded=0;html=1;whiteSpace=wrap;" parent="1" vertex="1">
          <mxGeometry x="-858" y="-835" width="80" height="30" as="geometry" />
        </mxCell>
        <mxCell id="ZhGPCTu5Iyny0ZlqSRic-38" style="vsdxID=57;edgeStyle=none;startArrow=none;endArrow=block;startSize=5;endSize=9;strokeColor=#000000;spacingTop=0;spacingBottom=0;spacingLeft=0;spacingRight=0;verticalAlign=middle;html=1;labelBackgroundColor=#ffffff;rounded=0;" parent="1" source="ZhGPCTu5Iyny0ZlqSRic-4" target="ZhGPCTu5Iyny0ZlqSRic-37" edge="1">
          <mxGeometry relative="1" as="geometry">
            <mxPoint as="offset" />
            <mxPoint x="-502" y="-175" as="sourcePoint" />
            <mxPoint x="-422" y="-175" as="targetPoint" />
          </mxGeometry>
        </mxCell>
        <mxCell id="ZhGPCTu5Iyny0ZlqSRic-39" style="vsdxID=57;edgeStyle=none;startArrow=none;endArrow=block;startSize=5;endSize=9;strokeColor=#000000;spacingTop=0;spacingBottom=0;spacingLeft=0;spacingRight=0;verticalAlign=middle;html=1;labelBackgroundColor=#ffffff;rounded=0;" parent="1" source="ZhGPCTu5Iyny0ZlqSRic-37" target="ZhGPCTu5Iyny0ZlqSRic-5" edge="1">
          <mxGeometry relative="1" as="geometry">
            <mxPoint as="offset" />
            <mxPoint x="-324" y="-195" as="sourcePoint" />
            <mxPoint x="-244" y="-195" as="targetPoint" />
          </mxGeometry>
        </mxCell>
        <mxCell id="ZhGPCTu5Iyny0ZlqSRic-40" style="vsdxID=57;edgeStyle=none;startArrow=none;endArrow=block;startSize=5;endSize=9;strokeColor=#000000;spacingTop=0;spacingBottom=0;spacingLeft=0;spacingRight=0;verticalAlign=middle;html=1;labelBackgroundColor=#ffffff;rounded=0;entryX=0.312;entryY=0.972;entryDx=0;entryDy=0;entryPerimeter=0;" parent="1" source="ZhGPCTu5Iyny0ZlqSRic-6" target="ZhGPCTu5Iyny0ZlqSRic-41" edge="1">
          <mxGeometry relative="1" as="geometry">
            <mxPoint as="offset" />
            <mxPoint x="-500.6726315789475" y="-725" as="sourcePoint" />
            <mxPoint x="-639.62" y="-655" as="targetPoint" />
          </mxGeometry>
        </mxCell>
        <mxCell id="DCNwNrw-yuZkW3MHIDjY-13" style="vsdxID=57;edgeStyle=none;startArrow=none;endArrow=block;startSize=5;endSize=9;strokeColor=#000000;spacingTop=0;spacingBottom=0;spacingLeft=0;spacingRight=0;verticalAlign=middle;html=1;labelBackgroundColor=#ffffff;rounded=0;" parent="1" source="DCNwNrw-yuZkW3MHIDjY-6" target="ZhGPCTu5Iyny0ZlqSRic-11" edge="1">
          <mxGeometry relative="1" as="geometry">
            <mxPoint as="offset" />
            <mxPoint x="-752.38" y="70" as="sourcePoint" />
            <mxPoint x="-554.13" y="74.5" as="targetPoint" />
          </mxGeometry>
        </mxCell>
        <mxCell id="ZhGPCTu5Iyny0ZlqSRic-41" value="&lt;font style=&quot;font-size:11px;font-family:Calibri;color:#000000;direction:ltr;letter-spacing:0px;line-height:120%;opacity:1&quot;&gt;ID&lt;br&gt;&lt;/font&gt;" style="verticalAlign=middle;align=center;vsdxID=7;fillColor=#FFFFFF;gradientColor=none;shape=stencil(nZBLDoAgDERP0z3SIyjew0SURgSD+Lu9kMZoXLhwN9O+tukAlrNpJg1SzDH4QW/URgNYgZTkjA4UkwJUgGXng+6DX1zLfmoymdXo17xh5zmRJ6Q42BWCfc2oJfdAr+Yv+AP9Cb7OJ3H/2JG1HNGz/84klThPVCc=);strokeColor=#000000;spacingTop=-1;spacingBottom=-1;spacingLeft=-1;spacingRight=-1;labelBackgroundColor=none;rounded=0;html=1;whiteSpace=wrap;" parent="1" vertex="1">
          <mxGeometry x="-286" y="-990" width="82" height="30" as="geometry" />
        </mxCell>
        <mxCell id="DCNwNrw-yuZkW3MHIDjY-15" style="vsdxID=57;edgeStyle=none;startArrow=none;endArrow=block;startSize=5;endSize=9;strokeColor=#000000;spacingTop=0;spacingBottom=0;spacingLeft=0;spacingRight=0;verticalAlign=middle;html=1;labelBackgroundColor=#ffffff;rounded=0;exitX=0.99;exitY=0.559;exitDx=0;exitDy=0;exitPerimeter=0;" parent="1" source="DCNwNrw-yuZkW3MHIDjY-6" target="ZhGPCTu5Iyny0ZlqSRic-12" edge="1">
          <mxGeometry relative="1" as="geometry">
            <mxPoint as="offset" />
            <mxPoint x="-617.13" y="106" as="sourcePoint" />
            <mxPoint x="-542.13" y="92" as="targetPoint" />
          </mxGeometry>
        </mxCell>
        <mxCell id="ZhGPCTu5Iyny0ZlqSRic-42" value="&lt;font style=&quot;font-size:11px;font-family:Calibri;color:#000000;direction:ltr;letter-spacing:0px;line-height:120%;opacity:1&quot;&gt;ESTADO&lt;br&gt;&lt;/font&gt;" style="verticalAlign=middle;align=center;vsdxID=7;fillColor=#FFFFFF;gradientColor=none;shape=stencil(nZBLDoAgDERP0z3SIyjew0SURgSD+Lu9kMZoXLhwN9O+tukAlrNpJg1SzDH4QW/URgNYgZTkjA4UkwJUgGXng+6DX1zLfmoymdXo17xh5zmRJ6Q42BWCfc2oJfdAr+Yv+AP9Cb7OJ3H/2JG1HNGz/84klThPVCc=);strokeColor=#000000;spacingTop=-1;spacingBottom=-1;spacingLeft=-1;spacingRight=-1;labelBackgroundColor=none;rounded=0;html=1;whiteSpace=wrap;" parent="1" vertex="1">
          <mxGeometry x="-263.25" y="-170" width="82" height="30" as="geometry" />
        </mxCell>
        <mxCell id="ZhGPCTu5Iyny0ZlqSRic-44" style="vsdxID=57;edgeStyle=none;startArrow=none;endArrow=block;startSize=5;endSize=9;strokeColor=#000000;spacingTop=0;spacingBottom=0;spacingLeft=0;spacingRight=0;verticalAlign=middle;html=1;labelBackgroundColor=#ffffff;rounded=0;exitX=0.791;exitY=1.042;exitDx=0;exitDy=0;exitPerimeter=0;" parent="1" source="DCNwNrw-yuZkW3MHIDjY-6" target="3d_Hws1QxchP5DV1Z6rh-1" edge="1">
          <mxGeometry relative="1" as="geometry">
            <mxPoint as="offset" />
            <mxPoint x="-664.13" y="120" as="sourcePoint" />
            <mxPoint x="-664.13" y="200" as="targetPoint" />
          </mxGeometry>
        </mxCell>
        <mxCell id="ZhGPCTu5Iyny0ZlqSRic-47" value="&lt;font style=&quot;font-size:11px;font-family:Calibri;color:#000000;direction:ltr;letter-spacing:0px;line-height:120%;opacity:1&quot;&gt;FONDO&lt;br&gt;&lt;/font&gt;" style="verticalAlign=middle;align=center;vsdxID=7;fillColor=#FFFFFF;gradientColor=none;shape=stencil(nZBLDoAgDERP0z3SIyjew0SURgSD+Lu9kMZoXLhwN9O+tukAlrNpJg1SzDH4QW/URgNYgZTkjA4UkwJUgGXng+6DX1zLfmoymdXo17xh5zmRJ6Q42BWCfc2oJfdAr+Yv+AP9Cb7OJ3H/2JG1HNGz/84klThPVCc=);strokeColor=#000000;spacingTop=-1;spacingBottom=-1;spacingLeft=-1;spacingRight=-1;labelBackgroundColor=none;rounded=0;html=1;whiteSpace=wrap;" parent="1" vertex="1">
          <mxGeometry x="-849" y="-170" width="82" height="30" as="geometry" />
        </mxCell>
        <mxCell id="ZhGPCTu5Iyny0ZlqSRic-48" style="vsdxID=57;edgeStyle=none;startArrow=none;endArrow=block;startSize=5;endSize=9;strokeColor=#000000;spacingTop=0;spacingBottom=0;spacingLeft=0;spacingRight=0;verticalAlign=middle;html=1;labelBackgroundColor=#ffffff;rounded=0;" parent="1" source="DCNwNrw-yuZkW3MHIDjY-6" target="ZhGPCTu5Iyny0ZlqSRic-47" edge="1">
          <mxGeometry relative="1" as="geometry">
            <mxPoint as="offset" />
            <mxPoint x="-664.13" y="120" as="sourcePoint" />
            <mxPoint x="-664.13" y="200" as="targetPoint" />
          </mxGeometry>
        </mxCell>
        <mxCell id="ZhGPCTu5Iyny0ZlqSRic-50" style="vsdxID=57;edgeStyle=none;startArrow=none;endArrow=block;startSize=5;endSize=9;strokeColor=#000000;spacingTop=0;spacingBottom=0;spacingLeft=0;spacingRight=0;verticalAlign=middle;html=1;labelBackgroundColor=#ffffff;rounded=0;entryX=0.035;entryY=0.482;entryDx=0;entryDy=0;entryPerimeter=0;" parent="1" source="ZhGPCTu5Iyny0ZlqSRic-1" target="DCNwNrw-yuZkW3MHIDjY-6" edge="1">
          <mxGeometry relative="1" as="geometry">
            <mxPoint as="offset" />
            <mxPoint x="-762.13" y="42.5" as="sourcePoint" />
            <mxPoint x="-682.13" y="42.5" as="targetPoint" />
          </mxGeometry>
        </mxCell>
        <mxCell id="ZhGPCTu5Iyny0ZlqSRic-51" style="vsdxID=57;edgeStyle=none;startArrow=none;endArrow=block;startSize=5;endSize=9;strokeColor=#000000;spacingTop=0;spacingBottom=0;spacingLeft=0;spacingRight=0;verticalAlign=middle;html=1;labelBackgroundColor=#ffffff;rounded=0;" parent="1" source="3d_Hws1QxchP5DV1Z6rh-1" target="DCNwNrw-yuZkW3MHIDjY-3" edge="1">
          <mxGeometry relative="1" as="geometry">
            <mxPoint as="offset" />
            <mxPoint x="-542.13" y="175" as="sourcePoint" />
            <mxPoint x="-462.13" y="175" as="targetPoint" />
          </mxGeometry>
        </mxCell>
        <mxCell id="DCNwNrw-yuZkW3MHIDjY-18" style="vsdxID=57;edgeStyle=none;startArrow=none;endArrow=block;startSize=5;endSize=9;strokeColor=#000000;spacingTop=0;spacingBottom=0;spacingLeft=0;spacingRight=0;verticalAlign=middle;html=1;labelBackgroundColor=#ffffff;rounded=0;" parent="1" source="DCNwNrw-yuZkW3MHIDjY-6" target="3d_Hws1QxchP5DV1Z6rh-3" edge="1">
          <mxGeometry relative="1" as="geometry">
            <mxPoint as="offset" />
            <mxPoint x="-617.13" y="106" as="sourcePoint" />
            <mxPoint x="-564.13" y="75" as="targetPoint" />
          </mxGeometry>
        </mxCell>
        <mxCell id="ZhGPCTu5Iyny0ZlqSRic-52" style="vsdxID=57;edgeStyle=none;startArrow=none;endArrow=block;startSize=5;endSize=9;strokeColor=#000000;spacingTop=0;spacingBottom=0;spacingLeft=0;spacingRight=0;verticalAlign=middle;html=1;labelBackgroundColor=#ffffff;rounded=0;" parent="1" source="DCNwNrw-yuZkW3MHIDjY-3" target="ZhGPCTu5Iyny0ZlqSRic-42" edge="1">
          <mxGeometry relative="1" as="geometry">
            <mxPoint as="offset" />
            <mxPoint x="-442.13" y="165" as="sourcePoint" />
            <mxPoint x="-362.13" y="165" as="targetPoint" />
          </mxGeometry>
        </mxCell>
        <mxCell id="ZhGPCTu5Iyny0ZlqSRic-53" value="&lt;font style=&quot;font-size:11px;font-family:Calibri;color:#000000;direction:ltr;letter-spacing:0px;line-height:120%;opacity:1&quot;&gt;OCUPADO&lt;br&gt;&lt;/font&gt;" style="verticalAlign=middle;align=center;vsdxID=7;fillColor=#FFFFFF;gradientColor=none;shape=stencil(nZBLDoAgDERP0z3SIyjew0SURgSD+Lu9kMZoXLhwN9O+tukAlrNpJg1SzDH4QW/URgNYgZTkjA4UkwJUgGXng+6DX1zLfmoymdXo17xh5zmRJ6Q42BWCfc2oJfdAr+Yv+AP9Cb7OJ3H/2JG1HNGz/84klThPVCc=);strokeColor=#000000;spacingTop=-1;spacingBottom=-1;spacingLeft=-1;spacingRight=-1;labelBackgroundColor=none;rounded=0;html=1;whiteSpace=wrap;" parent="1" vertex="1">
          <mxGeometry x="-110" y="-350" width="82" height="30" as="geometry" />
        </mxCell>
        <mxCell id="ZhGPCTu5Iyny0ZlqSRic-54" value="&lt;font style=&quot;font-size: 11px ; font-family: &amp;quot;calibri&amp;quot; ; color: #000000 ; direction: ltr ; letter-spacing: 0px ; line-height: 120% ; opacity: 1&quot;&gt;ES&lt;br&gt;&lt;/font&gt;" style="verticalAlign=middle;align=center;vsdxID=2;fillColor=#FFFFFF;gradientColor=none;shape=stencil(tVLREoIgEPwaHnEQxsl3s/9gEpSJwDko7e+DsEkze2l627vdu5uFRaxyHe8FosR5sCcxqMZ3iO0Rpcp0ApQPCLEasUpaEC3Yi2lS3fOojOhsr3HDmObyMtsVcYqS29Qh5FEfklwrM5OXeUa/yjkcAwfr7TDpiyTfXvjkMR+Vw2A998qaBac5tAKHU1hq3i4oNwjRr9ofvayt/+Rk+yX/4iWA159KpXWKxJx/z0Bopfyw+g4=);strokeColor=#000000;spacingTop=-1;spacingBottom=-1;spacingLeft=-1;spacingRight=-1;labelBackgroundColor=none;rounded=0;html=1;whiteSpace=wrap;" parent="1" vertex="1">
          <mxGeometry x="-230" y="-270" width="80" height="30" as="geometry" />
        </mxCell>
        <mxCell id="ZhGPCTu5Iyny0ZlqSRic-55" value="&lt;font style=&quot;font-size:11px;font-family:Calibri;color:#000000;direction:ltr;letter-spacing:0px;line-height:120%;opacity:1&quot;&gt;LIBRE&lt;br&gt;&lt;/font&gt;" style="verticalAlign=middle;align=center;vsdxID=7;fillColor=#FFFFFF;gradientColor=none;shape=stencil(nZBLDoAgDERP0z3SIyjew0SURgSD+Lu9kMZoXLhwN9O+tukAlrNpJg1SzDH4QW/URgNYgZTkjA4UkwJUgGXng+6DX1zLfmoymdXo17xh5zmRJ6Q42BWCfc2oJfdAr+Yv+AP9Cb7OJ3H/2JG1HNGz/84klThPVCc=);strokeColor=#000000;spacingTop=-1;spacingBottom=-1;spacingLeft=-1;spacingRight=-1;labelBackgroundColor=none;rounded=0;html=1;whiteSpace=wrap;" parent="1" vertex="1">
          <mxGeometry x="-220" y="-370" width="82" height="30" as="geometry" />
        </mxCell>
        <mxCell id="ZhGPCTu5Iyny0ZlqSRic-56" style="vsdxID=57;edgeStyle=none;startArrow=none;endArrow=block;startSize=5;endSize=9;strokeColor=#000000;spacingTop=0;spacingBottom=0;spacingLeft=0;spacingRight=0;verticalAlign=middle;html=1;labelBackgroundColor=#ffffff;rounded=0;" parent="1" source="ZhGPCTu5Iyny0ZlqSRic-54" target="ZhGPCTu5Iyny0ZlqSRic-53" edge="1">
          <mxGeometry relative="1" as="geometry">
            <mxPoint as="offset" />
            <mxPoint x="-218.38" y="141" as="sourcePoint" />
            <mxPoint x="-158.38" y="126" as="targetPoint" />
          </mxGeometry>
        </mxCell>
        <mxCell id="ZhGPCTu5Iyny0ZlqSRic-57" style="vsdxID=57;edgeStyle=none;startArrow=none;endArrow=block;startSize=5;endSize=9;strokeColor=#000000;spacingTop=0;spacingBottom=0;spacingLeft=0;spacingRight=0;verticalAlign=middle;html=1;labelBackgroundColor=#ffffff;rounded=0;" parent="1" source="ZhGPCTu5Iyny0ZlqSRic-54" target="ZhGPCTu5Iyny0ZlqSRic-55" edge="1">
          <mxGeometry relative="1" as="geometry">
            <mxPoint as="offset" />
            <mxPoint x="-258.38" y="156" as="sourcePoint" />
            <mxPoint x="-258.38" y="236" as="targetPoint" />
          </mxGeometry>
        </mxCell>
        <mxCell id="ZhGPCTu5Iyny0ZlqSRic-58" style="vsdxID=57;edgeStyle=none;startArrow=none;endArrow=block;startSize=5;endSize=9;strokeColor=#000000;spacingTop=0;spacingBottom=0;spacingLeft=0;spacingRight=0;verticalAlign=middle;html=1;labelBackgroundColor=#ffffff;rounded=0;" parent="1" source="ZhGPCTu5Iyny0ZlqSRic-42" target="ZhGPCTu5Iyny0ZlqSRic-54" edge="1">
          <mxGeometry relative="1" as="geometry">
            <mxPoint as="offset" />
            <mxPoint x="-346.38" y="161" as="sourcePoint" />
            <mxPoint x="-266.38" y="161" as="targetPoint" />
          </mxGeometry>
        </mxCell>
        <mxCell id="ZhGPCTu5Iyny0ZlqSRic-63" value="&lt;font style=&quot;font-size: 11px ; font-family: &amp;quot;calibri&amp;quot; ; color: #000000 ; direction: ltr ; letter-spacing: 0px ; line-height: 120% ; opacity: 1&quot;&gt;MUEVE&lt;br&gt;&lt;/font&gt;" style="verticalAlign=middle;align=center;vsdxID=1;fillColor=#FFFFFF;gradientColor=none;shape=stencil(tVLREoIgEPwaHnEQxsl3s/9gEpSJwDko7e+DsEkze2l627vdu5uFRaxyHe8FosR5sCcxqMZ3iO0Rpcp0ApQPCLEasUpaEC3Yi2lS3fOojOhsr3HDmObyMtsVcYqS29Qh5FEfklwrM5OXeUa/yjkcAwfr7TDpiyTfXvjkMR+Vw2A998qaBac5tAKHU1hq3i4oNwjRr9ofvayt/+Rk+yX/4iWA159KpXWKxJx/z0Bopfyw+g4=);dashed=1;strokeColor=#000000;strokeWidth=3;spacingTop=-1;spacingBottom=-1;spacingLeft=-1;spacingRight=-1;labelBackgroundColor=none;rounded=0;html=1;whiteSpace=wrap;" parent="1" vertex="1">
          <mxGeometry x="-1004" y="-665" width="80" height="30" as="geometry" />
        </mxCell>
        <mxCell id="ZhGPCTu5Iyny0ZlqSRic-64" style="vsdxID=57;edgeStyle=none;startArrow=none;endArrow=block;startSize=5;endSize=9;strokeColor=#000000;spacingTop=0;spacingBottom=0;spacingLeft=0;spacingRight=0;verticalAlign=middle;html=1;labelBackgroundColor=#ffffff;rounded=0;" parent="1" source="ZhGPCTu5Iyny0ZlqSRic-4" target="ZhGPCTu5Iyny0ZlqSRic-63" edge="1">
          <mxGeometry relative="1" as="geometry">
            <mxPoint as="offset" />
            <mxPoint x="-471" y="-260" as="sourcePoint" />
            <mxPoint x="-471" y="-180" as="targetPoint" />
          </mxGeometry>
        </mxCell>
        <mxCell id="ZhGPCTu5Iyny0ZlqSRic-65" style="vsdxID=57;edgeStyle=none;startArrow=none;endArrow=block;startSize=5;endSize=9;strokeColor=#000000;spacingTop=0;spacingBottom=0;spacingLeft=0;spacingRight=0;verticalAlign=middle;html=1;labelBackgroundColor=#ffffff;rounded=0;entryX=0.008;entryY=0.29;entryDx=0;entryDy=0;entryPerimeter=0;" parent="1" source="ZhGPCTu5Iyny0ZlqSRic-63" target="ZhGPCTu5Iyny0ZlqSRic-7" edge="1">
          <mxGeometry relative="1" as="geometry">
            <mxPoint as="offset" />
            <mxPoint x="-414" y="-189" as="sourcePoint" />
            <mxPoint x="-414" y="-109" as="targetPoint" />
          </mxGeometry>
        </mxCell>
        <mxCell id="ZhGPCTu5Iyny0ZlqSRic-75" value="&lt;font style=&quot;font-size:11px;font-family:Calibri;color:#000000;direction:ltr;letter-spacing:0px;line-height:120%;opacity:1&quot;&gt;PUESTO&lt;br&gt;&lt;/font&gt;" style="verticalAlign=middle;align=center;vsdxID=7;fillColor=#FFFFFF;gradientColor=none;shape=stencil(nZBLDoAgDERP0z3SIyjew0SURgSD+Lu9kMZoXLhwN9O+tukAlrNpJg1SzDH4QW/URgNYgZTkjA4UkwJUgGXng+6DX1zLfmoymdXo17xh5zmRJ6Q42BWCfc2oJfdAr+Yv+AP9Cb7OJ3H/2JG1HNGz/84klThPVCc=);strokeColor=#000000;spacingTop=-1;spacingBottom=-1;spacingLeft=-1;spacingRight=-1;labelBackgroundColor=none;rounded=0;html=1;whiteSpace=wrap;" parent="1" vertex="1">
          <mxGeometry x="-427.25" y="-1000" width="82" height="30" as="geometry" />
        </mxCell>
        <mxCell id="ZhGPCTu5Iyny0ZlqSRic-77" style="vsdxID=57;edgeStyle=none;startArrow=none;endArrow=block;startSize=5;endSize=9;strokeColor=#000000;spacingTop=0;spacingBottom=0;spacingLeft=0;spacingRight=0;verticalAlign=middle;html=1;labelBackgroundColor=#ffffff;rounded=0;" parent="1" source="ZhGPCTu5Iyny0ZlqSRic-6" target="ZhGPCTu5Iyny0ZlqSRic-75" edge="1">
          <mxGeometry relative="1" as="geometry">
            <mxPoint as="offset" />
            <mxPoint x="-510.12" y="-729.6640826873384" as="sourcePoint" />
            <mxPoint x="-263.62" y="-240" as="targetPoint" />
          </mxGeometry>
        </mxCell>
        <mxCell id="ZhGPCTu5Iyny0ZlqSRic-86" value="&lt;font style=&quot;font-size: 11px ; font-family: &amp;quot;calibri&amp;quot; ; color: #000000 ; direction: ltr ; letter-spacing: 0px ; line-height: 120% ; opacity: 1&quot;&gt;DETERMINA&lt;br&gt;&lt;/font&gt;" style="verticalAlign=middle;align=center;vsdxID=1;fillColor=#FFFFFF;gradientColor=none;shape=stencil(tVLREoIgEPwaHnEQxsl3s/9gEpSJwDko7e+DsEkze2l627vdu5uFRaxyHe8FosR5sCcxqMZ3iO0Rpcp0ApQPCLEasUpaEC3Yi2lS3fOojOhsr3HDmObyMtsVcYqS29Qh5FEfklwrM5OXeUa/yjkcAwfr7TDpiyTfXvjkMR+Vw2A998qaBac5tAKHU1hq3i4oNwjRr9ofvayt/+Rk+yX/4iWA159KpXWKxJx/z0Bopfyw+g4=);dashed=1;strokeColor=#000000;strokeWidth=3;spacingTop=-1;spacingBottom=-1;spacingLeft=-1;spacingRight=-1;labelBackgroundColor=none;rounded=0;html=1;whiteSpace=wrap;" parent="1" vertex="1">
          <mxGeometry x="-474" y="-310" width="80" height="30" as="geometry" />
        </mxCell>
        <mxCell id="ZhGPCTu5Iyny0ZlqSRic-87" style="vsdxID=57;edgeStyle=none;startArrow=none;endArrow=block;startSize=5;endSize=9;strokeColor=#000000;spacingTop=0;spacingBottom=0;spacingLeft=0;spacingRight=0;verticalAlign=middle;html=1;labelBackgroundColor=#ffffff;rounded=0;" parent="1" source="ZhGPCTu5Iyny0ZlqSRic-19" target="ZhGPCTu5Iyny0ZlqSRic-86" edge="1">
          <mxGeometry relative="1" as="geometry">
            <mxPoint as="offset" />
            <mxPoint x="-275" y="2.5" as="sourcePoint" />
            <mxPoint x="-275" y="2.5" as="targetPoint" />
          </mxGeometry>
        </mxCell>
        <mxCell id="ZhGPCTu5Iyny0ZlqSRic-90" style="vsdxID=57;edgeStyle=none;startArrow=none;endArrow=block;startSize=5;endSize=9;strokeColor=#000000;spacingTop=0;spacingBottom=0;spacingLeft=0;spacingRight=0;verticalAlign=middle;html=1;labelBackgroundColor=#ffffff;rounded=0;" parent="1" source="ZhGPCTu5Iyny0ZlqSRic-86" target="ZhGPCTu5Iyny0ZlqSRic-16" edge="1">
          <mxGeometry relative="1" as="geometry">
            <mxPoint as="offset" />
            <mxPoint x="-519.38" y="-60" as="sourcePoint" />
            <mxPoint x="-519.38" y="-60" as="targetPoint" />
          </mxGeometry>
        </mxCell>
        <mxCell id="ZhGPCTu5Iyny0ZlqSRic-93" value="&lt;font style=&quot;font-size:11px;font-family:Calibri;color:#000000;direction:ltr;letter-spacing:0px;line-height:120%;opacity:1&quot;&gt;ENCARCELADO&lt;br&gt;&lt;/font&gt;" style="verticalAlign=middle;align=center;vsdxID=7;fillColor=#FFFFFF;gradientColor=none;shape=stencil(nZBLDoAgDERP0z3SIyjew0SURgSD+Lu9kMZoXLhwN9O+tukAlrNpJg1SzDH4QW/URgNYgZTkjA4UkwJUgGXng+6DX1zLfmoymdXo17xh5zmRJ6Q42BWCfc2oJfdAr+Yv+AP9Cb7OJ3H/2JG1HNGz/84klThPVCc=);strokeColor=#000000;spacingTop=-1;spacingBottom=-1;spacingLeft=-1;spacingRight=-1;labelBackgroundColor=none;rounded=0;html=1;whiteSpace=wrap;" parent="1" vertex="1">
          <mxGeometry x="-693.25" y="-365" width="82" height="30" as="geometry" />
        </mxCell>
        <mxCell id="ZhGPCTu5Iyny0ZlqSRic-94" style="vsdxID=57;edgeStyle=none;startArrow=none;endArrow=block;startSize=5;endSize=9;strokeColor=#000000;spacingTop=0;spacingBottom=0;spacingLeft=0;spacingRight=0;verticalAlign=middle;html=1;labelBackgroundColor=#ffffff;rounded=0;" parent="1" source="ZhGPCTu5Iyny0ZlqSRic-104" target="ZhGPCTu5Iyny0ZlqSRic-96" edge="1">
          <mxGeometry relative="1" as="geometry">
            <mxPoint as="offset" />
            <mxPoint x="-849.38" as="sourcePoint" />
            <mxPoint x="-829.38" y="-63.33333333333326" as="targetPoint" />
          </mxGeometry>
        </mxCell>
        <mxCell id="ZhGPCTu5Iyny0ZlqSRic-96" value="&lt;font style=&quot;font-size:11px;font-family:Calibri;color:#000000;direction:ltr;letter-spacing:0px;line-height:120%;opacity:1&quot;&gt;CORONADO&lt;br&gt;&lt;/font&gt;" style="verticalAlign=middle;align=center;vsdxID=7;fillColor=#FFFFFF;gradientColor=none;shape=stencil(nZBLDoAgDERP0z3SIyjew0SURgSD+Lu9kMZoXLhwN9O+tukAlrNpJg1SzDH4QW/URgNYgZTkjA4UkwJUgGXng+6DX1zLfmoymdXo17xh5zmRJ6Q42BWCfc2oJfdAr+Yv+AP9Cb7OJ3H/2JG1HNGz/84klThPVCc=);strokeColor=#000000;spacingTop=-1;spacingBottom=-1;spacingLeft=-1;spacingRight=-1;labelBackgroundColor=none;rounded=0;html=1;whiteSpace=wrap;" parent="1" vertex="1">
          <mxGeometry x="-617.63" y="-300" width="82" height="30" as="geometry" />
        </mxCell>
        <mxCell id="ZhGPCTu5Iyny0ZlqSRic-103" style="vsdxID=57;edgeStyle=none;startArrow=none;endArrow=block;startSize=5;endSize=9;strokeColor=#000000;spacingTop=0;spacingBottom=0;spacingLeft=0;spacingRight=0;verticalAlign=middle;html=1;labelBackgroundColor=#ffffff;rounded=0;" parent="1" source="ZhGPCTu5Iyny0ZlqSRic-104" target="ZhGPCTu5Iyny0ZlqSRic-93" edge="1">
          <mxGeometry relative="1" as="geometry">
            <mxPoint as="offset" />
            <mxPoint x="-819.38" y="-100" as="sourcePoint" />
            <mxPoint x="-819.38" y="-100" as="targetPoint" />
          </mxGeometry>
        </mxCell>
        <mxCell id="ZhGPCTu5Iyny0ZlqSRic-104" value="&lt;font style=&quot;font-size: 11px ; font-family: &amp;quot;calibri&amp;quot; ; color: #000000 ; direction: ltr ; letter-spacing: 0px ; line-height: 120% ; opacity: 1&quot;&gt;ES&lt;br&gt;&lt;/font&gt;" style="verticalAlign=middle;align=center;vsdxID=2;fillColor=#FFFFFF;gradientColor=none;shape=stencil(tVLREoIgEPwaHnEQxsl3s/9gEpSJwDko7e+DsEkze2l627vdu5uFRaxyHe8FosR5sCcxqMZ3iO0Rpcp0ApQPCLEasUpaEC3Yi2lS3fOojOhsr3HDmObyMtsVcYqS29Qh5FEfklwrM5OXeUa/yjkcAwfr7TDpiyTfXvjkMR+Vw2A998qaBac5tAKHU1hq3i4oNwjRr9ofvayt/+Rk+yX/4iWA159KpXWKxJx/z0Bopfyw+g4=);strokeColor=#000000;spacingTop=-1;spacingBottom=-1;spacingLeft=-1;spacingRight=-1;labelBackgroundColor=none;rounded=0;html=1;whiteSpace=wrap;" parent="1" vertex="1">
          <mxGeometry x="-592.75" y="-360" width="80" height="30" as="geometry" />
        </mxCell>
        <mxCell id="ZhGPCTu5Iyny0ZlqSRic-106" style="vsdxID=57;edgeStyle=none;startArrow=none;endArrow=block;startSize=5;endSize=9;strokeColor=#000000;spacingTop=0;spacingBottom=0;spacingLeft=0;spacingRight=0;verticalAlign=middle;html=1;labelBackgroundColor=#ffffff;rounded=0;" parent="1" source="ZhGPCTu5Iyny0ZlqSRic-16" target="ZhGPCTu5Iyny0ZlqSRic-104" edge="1">
          <mxGeometry relative="1" as="geometry">
            <mxPoint as="offset" />
            <mxPoint x="-669.38" y="-40" as="sourcePoint" />
            <mxPoint x="-669.38" y="-40" as="targetPoint" />
          </mxGeometry>
        </mxCell>
        <mxCell id="ZhGPCTu5Iyny0ZlqSRic-110" style="vsdxID=4394;fillColor=#000000;gradientColor=none;shape=stencil(nZBLDoAgDERP0z3SIyjew0SURgSD+Lu9kMZoXLhwN9O+tukAlrNpJg1SzDH4QW/URgNYgZTkjA4UkwJUgGXng+6DX1zLfmoymdXo17xh5zmRJ6Q42BWCfc2oJfdAr+Yv+AP9Cb7OJ3H/2JG1HNGz/84klThPVCc=);strokeColor=#000000;labelBackgroundColor=none;rounded=0;html=1;whiteSpace=wrap;" parent="1" vertex="1">
          <mxGeometry x="-938" y="-550" width="80" height="12" as="geometry" />
        </mxCell>
        <mxCell id="ZhGPCTu5Iyny0ZlqSRic-111" style="vsdxID=20;fillColor=#FFFFFF;gradientColor=none;shape=stencil(UzV2Ls5ILEhVNTIoLinKz04tz0wpyVA1dlE1MsrMy0gtyiwBslSNXVWNndPyi1LTi/JL81Ig/IJEkEoQKze/DGRCBUSfAUiHkUElhGcK4bpBVOZk5iGpNEVVikeloQHZpsK0YlWLz1QgA+HFtMycHEgIIcujBwlQCBKcxq4A);strokeColor=#000000;spacingTop=-1;spacingBottom=-1;spacingLeft=-1;spacingRight=-1;labelBackgroundColor=none;rounded=0;html=1;whiteSpace=wrap;" parent="1" vertex="1">
          <mxGeometry x="-1172.38" y="-562.5" width="190" height="140" as="geometry" />
        </mxCell>
        <mxCell id="ZhGPCTu5Iyny0ZlqSRic-112" value="&lt;font style=&quot;font-size:11px;font-family:Calibri;color:#000000;direction:ltr;letter-spacing:0px;line-height:120%;opacity:1&quot;&gt;&lt;br/&gt;&lt;/font&gt;" style="text;vsdxID=20;fillColor=none;gradientColor=none;strokeColor=none;spacingTop=-1;spacingBottom=-1;spacingLeft=-1;spacingRight=-1;labelBackgroundColor=none;rounded=0;html=1;whiteSpace=wrap;verticalAlign=middle;align=center;;html=1;" parent="ZhGPCTu5Iyny0ZlqSRic-111" vertex="1">
          <mxGeometry x="14.851171874999997" y="15.86" width="148.444921875" height="106.39999999999999" as="geometry" />
        </mxCell>
        <mxCell id="ZhGPCTu5Iyny0ZlqSRic-159" value="=" style="vsdxID=52;fillColor=#FFFFFF;gradientColor=none;shape=stencil(vVHLDsIgEPwajiQI6RfU+h8bu22JCGRB2/69kG1iazx58DazM/vIjjBtmiCi0CplCjecbZ8nYc5Ca+snJJsLEqYTph0C4Ujh4XvmEaqzont41gkL96naodXKrGF6YSfQtUi0OXXDVlqPfJNP6usotUhYbJIUMmQb/GGrAxpRljVycDBuc1hKM2LclX8/7H9nFfB+82Cd45T2+mcspcSRmu4F);dashed=1;dashPattern=4.00 2.00;labelBackgroundColor=none;rounded=0;html=1;whiteSpace=wrap;" parent="ZhGPCTu5Iyny0ZlqSRic-111" vertex="1">
          <mxGeometry x="86.85714285714288" y="15.866666666666669" width="20.628571428571426" height="16.333333333333332" as="geometry" />
        </mxCell>
        <mxCell id="ZhGPCTu5Iyny0ZlqSRic-161" value="&lt;font style=&quot;font-size:11px;font-family:Calibri;color:#000000;direction:ltr;letter-spacing:0px;line-height:120%;opacity:1&quot;&gt;SIMPLE&lt;br&gt;&lt;/font&gt;" style="verticalAlign=middle;align=center;vsdxID=7;fillColor=#FFFFFF;gradientColor=none;shape=stencil(nZBLDoAgDERP0z3SIyjew0SURgSD+Lu9kMZoXLhwN9O+tukAlrNpJg1SzDH4QW/URgNYgZTkjA4UkwJUgGXng+6DX1zLfmoymdXo17xh5zmRJ6Q42BWCfc2oJfdAr+Yv+AP9Cb7OJ3H/2JG1HNGz/84klThPVCc=);strokeColor=#000000;spacingTop=-1;spacingBottom=-1;spacingLeft=-1;spacingRight=-1;labelBackgroundColor=none;rounded=0;html=1;whiteSpace=wrap;" parent="ZhGPCTu5Iyny0ZlqSRic-111" vertex="1">
          <mxGeometry x="118.88571428571427" y="62.06666666666668" width="44.51428571428572" height="14.000000000000002" as="geometry" />
        </mxCell>
        <mxCell id="ZhGPCTu5Iyny0ZlqSRic-162" style="vsdxID=62;edgeStyle=none;startArrow=none;endArrow=none;startSize=5;endSize=9;strokeColor=#000000;spacingTop=0;spacingBottom=0;spacingLeft=0;spacingRight=0;verticalAlign=middle;html=1;labelBackgroundColor=#ffffff;rounded=0;" parent="ZhGPCTu5Iyny0ZlqSRic-111" source="a82_juw0TD2ykU31_FT8-55" target="ZhGPCTu5Iyny0ZlqSRic-159" edge="1">
          <mxGeometry relative="1" as="geometry">
            <mxPoint as="offset" />
            <mxPoint x="52.07295141406853" y="63.00000000000011" as="sourcePoint" />
            <mxPoint x="43.97142857142857" y="25.666666666666668" as="targetPoint" />
          </mxGeometry>
        </mxCell>
        <mxCell id="ZhGPCTu5Iyny0ZlqSRic-163" style="vsdxID=62;edgeStyle=none;startArrow=none;endArrow=none;startSize=5;endSize=9;strokeColor=#000000;spacingTop=0;spacingBottom=0;spacingLeft=0;spacingRight=0;verticalAlign=middle;html=1;labelBackgroundColor=#ffffff;rounded=0;" parent="ZhGPCTu5Iyny0ZlqSRic-111" source="ZhGPCTu5Iyny0ZlqSRic-161" target="ZhGPCTu5Iyny0ZlqSRic-159" edge="1">
          <mxGeometry relative="1" as="geometry">
            <mxPoint as="offset" />
            <mxPoint x="743.7142857142857" y="15.400000000000002" as="sourcePoint" />
            <mxPoint x="141.1428571428571" y="24.733333333333334" as="targetPoint" />
          </mxGeometry>
        </mxCell>
        <mxCell id="a82_juw0TD2ykU31_FT8-54" style="vsdxID=14;fillColor=none;gradientColor=none;labelBackgroundColor=none;rounded=0;strokeColor=none;html=1;whiteSpace=wrap;" parent="ZhGPCTu5Iyny0ZlqSRic-111" vertex="1">
          <mxGeometry x="19.9919588037235" y="51.697031457687174" width="87.49257278669043" height="34.736375719982284" as="geometry" />
        </mxCell>
        <mxCell id="a82_juw0TD2ykU31_FT8-55" value="&lt;p style=&quot;align:left;margin-left:0;margin-right:0;margin-top:0px;margin-bottom:0px;text-indent:0;valign:top;direction:ltr;&quot;&gt;&lt;font style=&quot;font-size:11px;font-family:Calibri;color:#000000;direction:ltr;letter-spacing:0px;line-height:120%;opacity:1&quot;&gt;CASILLA&lt;span style=&quot;white-space: pre;&quot;&gt; &lt;/span&gt;&lt;/font&gt;&lt;/p&gt;" style="verticalAlign=top;align=left;vsdxID=15;fillColor=#FFFFFF;gradientColor=none;shape=stencil(nZBLDoAgDERP0z3SIyjew0SURgSD+Lu9kMZoXLhwN9O+tukAlrNpJg1SzDH4QW/URgNYgZTkjA4UkwJUgGXng+6DX1zLfmoymdXo17xh5zmRJ6Q42BWCfc2oJfdAr+Yv+AP9Cb7OJ3H/2JG1HNGz/84klThPVCc=);strokeColor=#000000;spacingTop=-1;spacingBottom=-1;spacingLeft=-1;spacingRight=-1;labelBackgroundColor=none;rounded=0;html=1;whiteSpace=wrap;" parent="a82_juw0TD2ykU31_FT8-54" vertex="1">
          <mxGeometry width="87.49257278669043" height="34.736375719982284" as="geometry" />
        </mxCell>
        <mxCell id="a82_juw0TD2ykU31_FT8-56" value="&lt;font style=&quot;font-size:11px;font-family:Calibri;color:#000000;direction:ltr;letter-spacing:0px;line-height:120%;opacity:1&quot;&gt;TIPO&lt;br&gt;&lt;/font&gt;" style="verticalAlign=middle;align=center;vsdxID=16;fillColor=#FFFFFF;gradientColor=none;shape=stencil(nZBLDoAgDERP0z3SIyjew0SURgSD+Lu9kMZoXLhwN9O+tukAlrNpJg1SzDH4QW/URgNYgZTkjA4UkwJUgGXng+6DX1zLfmoymdXo17xh5zmRJ6Q42BWCfc2oJfdAr+Yv+AP9Cb7OJ3H/2JG1HNGz/84klThPVCc=);strokeColor=#000000;spacingTop=-1;spacingBottom=-1;spacingLeft=-1;spacingRight=-1;labelBackgroundColor=none;rounded=0;html=1;whiteSpace=wrap;" parent="a82_juw0TD2ykU31_FT8-54" vertex="1">
          <mxGeometry x="36.246923011628894" y="18.360655737704917" width="44.996180290297936" height="12.902082410279133" as="geometry" />
        </mxCell>
        <mxCell id="ZhGPCTu5Iyny0ZlqSRic-116" value="&lt;font style=&quot;font-size:11px;font-family:Calibri;color:#000000;direction:ltr;letter-spacing:0px;line-height:120%;opacity:1&quot;&gt;TURNO&lt;br&gt;&lt;/font&gt;" style="verticalAlign=middle;align=center;vsdxID=7;fillColor=#FFFFFF;gradientColor=none;shape=stencil(nZBLDoAgDERP0z3SIyjew0SURgSD+Lu9kMZoXLhwN9O+tukAlrNpJg1SzDH4QW/URgNYgZTkjA4UkwJUgGXng+6DX1zLfmoymdXo17xh5zmRJ6Q42BWCfc2oJfdAr+Yv+AP9Cb7OJ3H/2JG1HNGz/84klThPVCc=);strokeColor=#000000;spacingTop=-1;spacingBottom=-1;spacingLeft=-1;spacingRight=-1;labelBackgroundColor=none;rounded=0;html=1;whiteSpace=wrap;" parent="1" vertex="1">
          <mxGeometry x="-1534" y="-760" width="82" height="30" as="geometry" />
        </mxCell>
        <mxCell id="ZhGPCTu5Iyny0ZlqSRic-120" value="&lt;font style=&quot;font-size: 11px ; font-family: &amp;quot;calibri&amp;quot; ; color: #000000 ; direction: ltr ; letter-spacing: 0px ; line-height: 120% ; opacity: 1&quot;&gt;REPITE&lt;br&gt;&lt;/font&gt;" style="verticalAlign=middle;align=center;vsdxID=1;fillColor=#FFFFFF;gradientColor=none;shape=stencil(tVLREoIgEPwaHnEQxsl3s/9gEpSJwDko7e+DsEkze2l627vdu5uFRaxyHe8FosR5sCcxqMZ3iO0Rpcp0ApQPCLEasUpaEC3Yi2lS3fOojOhsr3HDmObyMtsVcYqS29Qh5FEfklwrM5OXeUa/yjkcAwfr7TDpiyTfXvjkMR+Vw2A998qaBac5tAKHU1hq3i4oNwjRr9ofvayt/+Rk+yX/4iWA159KpXWKxJx/z0Bopfyw+g4=);dashed=1;strokeColor=#000000;strokeWidth=3;spacingTop=-1;spacingBottom=-1;spacingLeft=-1;spacingRight=-1;labelBackgroundColor=none;rounded=0;html=1;whiteSpace=wrap;" parent="1" vertex="1">
          <mxGeometry x="-1384" y="-760" width="80" height="30" as="geometry" />
        </mxCell>
        <mxCell id="ZhGPCTu5Iyny0ZlqSRic-122" value="SI" style="vsdxID=59;edgeStyle=none;startArrow=none;endArrow=open;startSize=5;endSize=2;strokeWidth=4;strokeColor=#CDCDCD;spacingTop=0;spacingBottom=0;spacingLeft=0;spacingRight=0;verticalAlign=middle;html=1;labelBackgroundColor=#ffffff;rounded=0;exitX=0.691;exitY=0.157;exitDx=0;exitDy=0;exitPerimeter=0;" parent="1" source="3d_Hws1QxchP5DV1Z6rh-35" target="ZhGPCTu5Iyny0ZlqSRic-110" edge="1">
          <mxGeometry relative="1" as="geometry">
            <mxPoint as="offset" />
            <Array as="points" />
            <mxPoint x="-797.44" y="115.25" as="sourcePoint" />
            <mxPoint x="-754" y="229.5" as="targetPoint" />
          </mxGeometry>
        </mxCell>
        <mxCell id="ZhGPCTu5Iyny0ZlqSRic-123" style="vsdxID=20;fillColor=#FFFFFF;gradientColor=none;shape=stencil(UzV2Ls5ILEhVNTIoLinKz04tz0wpyVA1dlE1MsrMy0gtyiwBslSNXVWNndPyi1LTi/JL81Ig/IJEkEoQKze/DGRCBUSfAUiHkUElhGcK4bpBVOZk5iGpNEVVikeloQHZpsK0YlWLz1QgA+HFtMycHEgIIcujBwlQCBKcxq4A);strokeColor=#000000;spacingTop=-1;spacingBottom=-1;spacingLeft=-1;spacingRight=-1;labelBackgroundColor=none;rounded=0;html=1;whiteSpace=wrap;" parent="1" vertex="1">
          <mxGeometry x="-1464" y="-1020" width="242" height="150" as="geometry" />
        </mxCell>
        <mxCell id="ZhGPCTu5Iyny0ZlqSRic-124" value="&lt;font style=&quot;font-size:11px;font-family:Calibri;color:#000000;direction:ltr;letter-spacing:0px;line-height:120%;opacity:1&quot;&gt;&lt;br/&gt;&lt;/font&gt;" style="text;vsdxID=20;fillColor=none;gradientColor=none;strokeColor=none;spacingTop=-1;spacingBottom=-1;spacingLeft=-1;spacingRight=-1;labelBackgroundColor=none;rounded=0;html=1;whiteSpace=wrap;verticalAlign=middle;align=center;;html=1;" parent="ZhGPCTu5Iyny0ZlqSRic-123" vertex="1">
          <mxGeometry x="20.17675" y="16.992857142857144" width="201.67675" height="113.99999999999999" as="geometry" />
        </mxCell>
        <mxCell id="ZhGPCTu5Iyny0ZlqSRic-129" value="=" style="vsdxID=52;fillColor=#FFFFFF;gradientColor=none;shape=stencil(vVHLDsIgEPwajiQI6RfU+h8bu22JCGRB2/69kG1iazx58DazM/vIjjBtmiCi0CplCjecbZ8nYc5Ca+snJJsLEqYTph0C4Ujh4XvmEaqzont41gkL96naodXKrGF6YSfQtUi0OXXDVlqPfJNP6usotUhYbJIUMmQb/GGrAxpRljVycDBuc1hKM2LclX8/7H9nFfB+82Cd45T2+mcspcSRmu4F);dashed=1;dashPattern=4.00 2.00;labelBackgroundColor=none;rounded=0;html=1;whiteSpace=wrap;" parent="ZhGPCTu5Iyny0ZlqSRic-123" vertex="1">
          <mxGeometry x="96.81493284936481" y="16.99358974358974" width="48.4" height="40.38461538461539" as="geometry" />
        </mxCell>
        <mxCell id="ZhGPCTu5Iyny0ZlqSRic-131" value="&lt;font style=&quot;font-size:11px;font-family:Calibri;color:#000000;direction:ltr;letter-spacing:0px;line-height:120%;opacity:1&quot;&gt;VALOR_1&lt;br&gt;&lt;/font&gt;" style="verticalAlign=middle;align=center;vsdxID=7;fillColor=#FFFFFF;gradientColor=none;shape=stencil(nZBLDoAgDERP0z3SIyjew0SURgSD+Lu9kMZoXLhwN9O+tukAlrNpJg1SzDH4QW/URgNYgZTkjA4UkwJUgGXng+6DX1zLfmoymdXo17xh5zmRJ6Q42BWCfc2oJfdAr+Yv+AP9Cb7OJ3H/2JG1HNGz/84klThPVCc=);strokeColor=#000000;spacingTop=-1;spacingBottom=-1;spacingLeft=-1;spacingRight=-1;labelBackgroundColor=none;rounded=0;html=1;whiteSpace=wrap;" parent="ZhGPCTu5Iyny0ZlqSRic-123" vertex="1">
          <mxGeometry x="41.724137931034484" y="66.66666666666667" width="68.42758620689655" height="25" as="geometry" />
        </mxCell>
        <mxCell id="ZhGPCTu5Iyny0ZlqSRic-132" value="&lt;font style=&quot;font-size:11px;font-family:Calibri;color:#000000;direction:ltr;letter-spacing:0px;line-height:120%;opacity:1&quot;&gt;VALOR_2&lt;br&gt;&lt;/font&gt;" style="verticalAlign=middle;align=center;vsdxID=7;fillColor=#FFFFFF;gradientColor=none;shape=stencil(nZBLDoAgDERP0z3SIyjew0SURgSD+Lu9kMZoXLhwN9O+tukAlrNpJg1SzDH4QW/URgNYgZTkjA4UkwJUgGXng+6DX1zLfmoymdXo17xh5zmRJ6Q42BWCfc2oJfdAr+Yv+AP9Cb7OJ3H/2JG1HNGz/84klThPVCc=);strokeColor=#000000;spacingTop=-1;spacingBottom=-1;spacingLeft=-1;spacingRight=-1;labelBackgroundColor=none;rounded=0;html=1;whiteSpace=wrap;" parent="ZhGPCTu5Iyny0ZlqSRic-123" vertex="1">
          <mxGeometry x="133.51724137931035" y="66.66666666666667" width="68.42758620689655" height="25" as="geometry" />
        </mxCell>
        <mxCell id="ZhGPCTu5Iyny0ZlqSRic-133" style="vsdxID=62;edgeStyle=none;startArrow=none;endArrow=none;startSize=5;endSize=9;strokeColor=#000000;spacingTop=0;spacingBottom=0;spacingLeft=0;spacingRight=0;verticalAlign=middle;html=1;labelBackgroundColor=#ffffff;rounded=0;" parent="ZhGPCTu5Iyny0ZlqSRic-123" source="ZhGPCTu5Iyny0ZlqSRic-129" target="ZhGPCTu5Iyny0ZlqSRic-132" edge="1">
          <mxGeometry relative="1" as="geometry">
            <mxPoint as="offset" />
            <mxPoint x="-22.399274047186907" y="568.2692307692308" as="sourcePoint" />
            <mxPoint x="219.6007259528131" y="43.26923076923077" as="targetPoint" />
          </mxGeometry>
        </mxCell>
        <mxCell id="ZhGPCTu5Iyny0ZlqSRic-134" style="vsdxID=62;edgeStyle=none;startArrow=none;endArrow=none;startSize=5;endSize=9;strokeColor=#000000;spacingTop=0;spacingBottom=0;spacingLeft=0;spacingRight=0;verticalAlign=middle;html=1;labelBackgroundColor=#ffffff;rounded=0;" parent="ZhGPCTu5Iyny0ZlqSRic-123" source="ZhGPCTu5Iyny0ZlqSRic-131" target="ZhGPCTu5Iyny0ZlqSRic-129" edge="1">
          <mxGeometry relative="1" as="geometry">
            <mxPoint as="offset" />
            <mxPoint x="-104.3103448275862" y="533.3333333333334" as="sourcePoint" />
            <mxPoint x="70.93103448275862" y="8.333333333333334" as="targetPoint" />
          </mxGeometry>
        </mxCell>
        <mxCell id="ZhGPCTu5Iyny0ZlqSRic-125" style="vsdxID=57;edgeStyle=none;startArrow=none;endArrow=block;startSize=5;endSize=9;strokeColor=#000000;spacingTop=0;spacingBottom=0;spacingLeft=0;spacingRight=0;verticalAlign=middle;html=1;labelBackgroundColor=#ffffff;rounded=0;" parent="1" source="ZhGPCTu5Iyny0ZlqSRic-4" target="ZhGPCTu5Iyny0ZlqSRic-120" edge="1">
          <mxGeometry relative="1" as="geometry">
            <mxPoint as="offset" />
            <mxPoint x="-41" y="-420" as="sourcePoint" />
            <mxPoint x="-41" y="-420" as="targetPoint" />
          </mxGeometry>
        </mxCell>
        <mxCell id="ZhGPCTu5Iyny0ZlqSRic-126" style="vsdxID=57;edgeStyle=none;startArrow=none;endArrow=block;startSize=5;endSize=9;strokeColor=#000000;spacingTop=0;spacingBottom=0;spacingLeft=0;spacingRight=0;verticalAlign=middle;html=1;labelBackgroundColor=#ffffff;rounded=0;" parent="1" source="ZhGPCTu5Iyny0ZlqSRic-120" target="ZhGPCTu5Iyny0ZlqSRic-116" edge="1">
          <mxGeometry relative="1" as="geometry">
            <mxPoint as="offset" />
            <mxPoint x="-61" y="-560" as="sourcePoint" />
            <mxPoint x="-61" y="-560" as="targetPoint" />
          </mxGeometry>
        </mxCell>
        <mxCell id="ZhGPCTu5Iyny0ZlqSRic-127" value="SI" style="vsdxID=59;edgeStyle=none;startArrow=none;endArrow=open;startSize=5;endSize=2;strokeWidth=4;strokeColor=#CDCDCD;spacingTop=0;spacingBottom=0;spacingLeft=0;spacingRight=0;verticalAlign=middle;html=1;labelBackgroundColor=#ffffff;rounded=0;" parent="1" source="ZhGPCTu5Iyny0ZlqSRic-124" target="ZhGPCTu5Iyny0ZlqSRic-120" edge="1">
          <mxGeometry relative="1" as="geometry">
            <mxPoint as="offset" />
            <mxPoint x="-272.16075" y="49.32857142857142" as="sourcePoint" />
            <mxPoint x="67.83924999999999" y="-560.6714285714286" as="targetPoint" />
          </mxGeometry>
        </mxCell>
        <mxCell id="ZhGPCTu5Iyny0ZlqSRic-135" style="vsdxID=57;edgeStyle=none;startArrow=none;endArrow=block;startSize=5;endSize=9;strokeColor=#000000;spacingTop=0;spacingBottom=0;spacingLeft=0;spacingRight=0;verticalAlign=middle;html=1;labelBackgroundColor=#ffffff;rounded=0;" parent="1" source="ZhGPCTu5Iyny0ZlqSRic-33" target="ZhGPCTu5Iyny0ZlqSRic-136" edge="1">
          <mxGeometry relative="1" as="geometry">
            <mxPoint as="offset" />
            <mxPoint x="-408.75" y="-847.017543859649" as="sourcePoint" />
            <mxPoint x="121.25" y="-460" as="targetPoint" />
          </mxGeometry>
        </mxCell>
        <mxCell id="ZhGPCTu5Iyny0ZlqSRic-136" value="&lt;font style=&quot;font-size:11px;font-family:Calibri;color:#000000;direction:ltr;letter-spacing:0px;line-height:120%;opacity:1&quot;&gt;TAMAÃO&lt;br&gt;&lt;/font&gt;" style="verticalAlign=middle;align=center;vsdxID=7;fillColor=#FFFFFF;gradientColor=none;shape=stencil(nZBLDoAgDERP0z3SIyjew0SURgSD+Lu9kMZoXLhwN9O+tukAlrNpJg1SzDH4QW/URgNYgZTkjA4UkwJUgGXng+6DX1zLfmoymdXo17xh5zmRJ6Q42BWCfc2oJfdAr+Yv+AP9Cb7OJ3H/2JG1HNGz/84klThPVCc=);strokeColor=#000000;spacingTop=-1;spacingBottom=-1;spacingLeft=-1;spacingRight=-1;labelBackgroundColor=none;rounded=0;html=1;whiteSpace=wrap;" parent="1" vertex="1">
          <mxGeometry x="-469.25000000000045" y="-860" width="82" height="30" as="geometry" />
        </mxCell>
        <mxCell id="ZhGPCTu5Iyny0ZlqSRic-137" style="vsdxID=57;edgeStyle=none;startArrow=none;endArrow=block;startSize=5;endSize=9;strokeColor=#000000;spacingTop=0;spacingBottom=0;spacingLeft=0;spacingRight=0;verticalAlign=middle;html=1;labelBackgroundColor=#ffffff;rounded=0;" parent="1" source="a82_juw0TD2ykU31_FT8-60" target="ZhGPCTu5Iyny0ZlqSRic-138" edge="1">
          <mxGeometry relative="1" as="geometry">
            <mxPoint as="offset" />
            <mxPoint x="-194" y="-470" as="sourcePoint" />
            <mxPoint x="-115" y="-425" as="targetPoint" />
          </mxGeometry>
        </mxCell>
        <mxCell id="ZhGPCTu5Iyny0ZlqSRic-138" value="&lt;font style=&quot;font-size:11px;font-family:Calibri;color:#000000;direction:ltr;letter-spacing:0px;line-height:120%;opacity:1&quot;&gt;VALOR_1&lt;br&gt;&lt;/font&gt;" style="verticalAlign=middle;align=center;vsdxID=7;fillColor=#FFFFFF;gradientColor=none;shape=stencil(nZBLDoAgDERP0z3SIyjew0SURgSD+Lu9kMZoXLhwN9O+tukAlrNpJg1SzDH4QW/URgNYgZTkjA4UkwJUgGXng+6DX1zLfmoymdXo17xh5zmRJ6Q42BWCfc2oJfdAr+Yv+AP9Cb7OJ3H/2JG1HNGz/84klThPVCc=);strokeColor=#000000;spacingTop=-1;spacingBottom=-1;spacingLeft=-1;spacingRight=-1;labelBackgroundColor=none;rounded=0;html=1;whiteSpace=wrap;" parent="1" vertex="1">
          <mxGeometry x="-405.75" y="-750" width="82" height="30" as="geometry" />
        </mxCell>
        <mxCell id="ZhGPCTu5Iyny0ZlqSRic-139" value="&lt;font style=&quot;font-size:11px;font-family:Calibri;color:#000000;direction:ltr;letter-spacing:0px;line-height:120%;opacity:1&quot;&gt;VALOR_2&lt;br&gt;&lt;/font&gt;" style="verticalAlign=middle;align=center;vsdxID=7;fillColor=#FFFFFF;gradientColor=none;shape=stencil(nZBLDoAgDERP0z3SIyjew0SURgSD+Lu9kMZoXLhwN9O+tukAlrNpJg1SzDH4QW/URgNYgZTkjA4UkwJUgGXng+6DX1zLfmoymdXo17xh5zmRJ6Q42BWCfc2oJfdAr+Yv+AP9Cb7OJ3H/2JG1HNGz/84klThPVCc=);strokeColor=#000000;spacingTop=-1;spacingBottom=-1;spacingLeft=-1;spacingRight=-1;labelBackgroundColor=none;rounded=0;html=1;whiteSpace=wrap;" parent="1" vertex="1">
          <mxGeometry x="-405.75" y="-805" width="82" height="30" as="geometry" />
        </mxCell>
        <mxCell id="ZhGPCTu5Iyny0ZlqSRic-121" style="vsdxID=59;edgeStyle=none;startArrow=none;endArrow=open;startSize=5;endSize=2;strokeWidth=4;strokeColor=#CDCDCD;spacingTop=0;spacingBottom=0;spacingLeft=0;spacingRight=0;verticalAlign=middle;html=1;labelBackgroundColor=#ffffff;rounded=0;entryX=0.263;entryY=0.98;entryDx=0;entryDy=0;entryPerimeter=0;" parent="1" source="ZhGPCTu5Iyny0ZlqSRic-112" target="ZhGPCTu5Iyny0ZlqSRic-110" edge="1">
          <mxGeometry relative="1" as="geometry">
            <mxPoint as="offset" />
            <Array as="points" />
            <mxPoint x="-1084" y="80" as="sourcePoint" />
            <mxPoint x="-1004" y="80" as="targetPoint" />
          </mxGeometry>
        </mxCell>
        <mxCell id="ZhGPCTu5Iyny0ZlqSRic-145" value="SI" style="edgeLabel;html=1;align=center;verticalAlign=middle;resizable=0;points=[];" parent="ZhGPCTu5Iyny0ZlqSRic-121" connectable="0" vertex="1">
          <mxGeometry x="-0.0023" y="-5" relative="1" as="geometry">
            <mxPoint as="offset" />
          </mxGeometry>
        </mxCell>
        <mxCell id="ZhGPCTu5Iyny0ZlqSRic-146" style="vsdxID=59;edgeStyle=none;startArrow=none;endArrow=open;startSize=5;endSize=2;strokeWidth=4;strokeColor=#CDCDCD;spacingTop=0;spacingBottom=0;spacingLeft=0;spacingRight=0;verticalAlign=middle;html=1;labelBackgroundColor=#ffffff;rounded=0;exitX=0.484;exitY=0.049;exitDx=0;exitDy=0;exitPerimeter=0;" parent="1" source="ZhGPCTu5Iyny0ZlqSRic-110" target="203xu0XrpAFpmtI-5cuE-1" edge="1">
          <mxGeometry relative="1" as="geometry">
            <mxPoint as="offset" />
            <mxPoint x="-828" y="95" as="sourcePoint" />
            <mxPoint x="-748" y="95" as="targetPoint" />
          </mxGeometry>
        </mxCell>
        <mxCell id="DCNwNrw-yuZkW3MHIDjY-22" value="&lt;font style=&quot;font-size:11px;font-family:Calibri;color:#000000;direction:ltr;letter-spacing:0px;line-height:120%;opacity:1&quot;&gt;SIMPLE&lt;br&gt;&lt;/font&gt;" style="verticalAlign=middle;align=center;vsdxID=7;fillColor=#FFFFFF;gradientColor=none;shape=stencil(nZBLDoAgDERP0z3SIyjew0SURgSD+Lu9kMZoXLhwN9O+tukAlrNpJg1SzDH4QW/URgNYgZTkjA4UkwJUgGXng+6DX1zLfmoymdXo17xh5zmRJ6Q42BWCfc2oJfdAr+Yv+AP9Cb7OJ3H/2JG1HNGz/84klThPVCc=);strokeColor=#000000;spacingTop=-1;spacingBottom=-1;spacingLeft=-1;spacingRight=-1;labelBackgroundColor=none;rounded=0;html=1;whiteSpace=wrap;" parent="1" vertex="1">
          <mxGeometry x="-626.75" y="-42.5" width="60" height="20" as="geometry" />
        </mxCell>
        <mxCell id="ZhGPCTu5Iyny0ZlqSRic-166" style="vsdxID=20;fillColor=#FFFFFF;gradientColor=none;shape=stencil(UzV2Ls5ILEhVNTIoLinKz04tz0wpyVA1dlE1MsrMy0gtyiwBslSNXVWNndPyi1LTi/JL81Ig/IJEkEoQKze/DGRCBUSfAUiHkUElhGcK4bpBVOZk5iGpNEVVikeloQHZpsK0YlWLz1QgA+HFtMycHEgIIcujBwlQCBKcxq4A);strokeColor=#000000;spacingTop=-1;spacingBottom=-1;spacingLeft=-1;spacingRight=-1;labelBackgroundColor=none;rounded=0;html=1;whiteSpace=wrap;" parent="1" vertex="1">
          <mxGeometry x="-1325.39" y="-500" width="136.5" height="120" as="geometry" />
        </mxCell>
        <mxCell id="ZhGPCTu5Iyny0ZlqSRic-167" value="&lt;font style=&quot;font-size:11px;font-family:Calibri;color:#000000;direction:ltr;letter-spacing:0px;line-height:120%;opacity:1&quot;&gt;&lt;br/&gt;&lt;/font&gt;" style="text;vsdxID=20;fillColor=none;gradientColor=none;strokeColor=none;spacingTop=-1;spacingBottom=-1;spacingLeft=-1;spacingRight=-1;labelBackgroundColor=none;rounded=0;html=1;whiteSpace=wrap;verticalAlign=middle;align=center;;html=1;" parent="ZhGPCTu5Iyny0ZlqSRic-166" vertex="1">
          <mxGeometry x="11.3806875" y="13.594285714285716" width="113.75568750000001" height="91.2" as="geometry" />
        </mxCell>
        <mxCell id="ZhGPCTu5Iyny0ZlqSRic-169" value="&lt;font style=&quot;font-size:11px;font-family:Calibri;color:#000000;direction:ltr;letter-spacing:0px;line-height:120%;opacity:1&quot;&gt;POSICION&lt;br&gt;&lt;/font&gt;" style="verticalAlign=middle;align=center;vsdxID=7;fillColor=#FFFFFF;gradientColor=none;shape=stencil(nZBLDoAgDERP0z3SIyjew0SURgSD+Lu9kMZoXLhwN9O+tukAlrNpJg1SzDH4QW/URgNYgZTkjA4UkwJUgGXng+6DX1zLfmoymdXo17xh5zmRJ6Q42BWCfc2oJfdAr+Yv+AP9Cb7OJ3H/2JG1HNGz/84klThPVCc=);strokeColor=#000000;spacingTop=-1;spacingBottom=-1;spacingLeft=-1;spacingRight=-1;labelBackgroundColor=none;rounded=0;html=1;whiteSpace=wrap;" parent="ZhGPCTu5Iyny0ZlqSRic-166" vertex="1">
          <mxGeometry x="11.493299999999998" y="49.33395348837209" width="43.106700000000004" height="17.642790697674418" as="geometry" />
        </mxCell>
        <mxCell id="ZhGPCTu5Iyny0ZlqSRic-170" value="=" style="vsdxID=52;fillColor=#FFFFFF;gradientColor=none;shape=stencil(vVHLDsIgEPwajiQI6RfU+h8bu22JCGRB2/69kG1iazx58DazM/vIjjBtmiCi0CplCjecbZ8nYc5Ca+snJJsLEqYTph0C4Ujh4XvmEaqzont41gkL96naodXKrGF6YSfQtUi0OXXDVlqPfJNP6usotUhYbJIUMmQb/GGrAxpRljVycDBuc1hKM2LclX8/7H9nFfB+82Cd45T2+mcspcSRmu4F);dashed=1;dashPattern=4.00 2.00;labelBackgroundColor=none;rounded=0;html=1;whiteSpace=wrap;" parent="ZhGPCTu5Iyny0ZlqSRic-166" vertex="1">
          <mxGeometry x="56.23799999999999" y="14.511627906976745" width="20.748" height="19.534883720930235" as="geometry" />
        </mxCell>
        <mxCell id="ZhGPCTu5Iyny0ZlqSRic-171" value="&lt;font style=&quot;font-size:11px;font-family:Calibri;color:#000000;direction:ltr;letter-spacing:0px;line-height:120%;opacity:1&quot;&gt;CIELO&lt;br&gt;&lt;/font&gt;" style="verticalAlign=middle;align=center;vsdxID=7;fillColor=#FFFFFF;gradientColor=none;shape=stencil(nZBLDoAgDERP0z3SIyjew0SURgSD+Lu9kMZoXLhwN9O+tukAlrNpJg1SzDH4QW/URgNYgZTkjA4UkwJUgGXng+6DX1zLfmoymdXo17xh5zmRJ6Q42BWCfc2oJfdAr+Yv+AP9Cb7OJ3H/2JG1HNGz/84klThPVCc=);strokeColor=#000000;spacingTop=-1;spacingBottom=-1;spacingLeft=-1;spacingRight=-1;labelBackgroundColor=none;rounded=0;html=1;whiteSpace=wrap;" parent="ZhGPCTu5Iyny0ZlqSRic-166" vertex="1">
          <mxGeometry x="76.98599999999999" y="49.11627906976744" width="44.772" height="16.74418604651163" as="geometry" />
        </mxCell>
        <mxCell id="ZhGPCTu5Iyny0ZlqSRic-174" style="vsdxID=62;edgeStyle=none;startArrow=none;endArrow=none;startSize=5;endSize=9;strokeColor=#000000;spacingTop=0;spacingBottom=0;spacingLeft=0;spacingRight=0;verticalAlign=middle;html=1;labelBackgroundColor=#ffffff;rounded=0;" parent="ZhGPCTu5Iyny0ZlqSRic-166" source="ZhGPCTu5Iyny0ZlqSRic-169" target="ZhGPCTu5Iyny0ZlqSRic-170" edge="1">
          <mxGeometry relative="1" as="geometry">
            <mxPoint as="offset" />
            <mxPoint x="650.0266500000001" y="124.68279069767442" as="sourcePoint" />
            <mxPoint x="33.04665" y="4.682790697674419" as="targetPoint" />
          </mxGeometry>
        </mxCell>
        <mxCell id="ZhGPCTu5Iyny0ZlqSRic-175" style="vsdxID=62;edgeStyle=none;startArrow=none;endArrow=none;startSize=5;endSize=9;strokeColor=#000000;spacingTop=0;spacingBottom=0;spacingLeft=0;spacingRight=0;verticalAlign=middle;html=1;labelBackgroundColor=#ffffff;rounded=0;" parent="ZhGPCTu5Iyny0ZlqSRic-166" source="ZhGPCTu5Iyny0ZlqSRic-171" target="ZhGPCTu5Iyny0ZlqSRic-170" edge="1">
          <mxGeometry relative="1" as="geometry">
            <mxPoint as="offset" />
            <mxPoint x="716.352" y="124.46511627906978" as="sourcePoint" />
            <mxPoint x="99.372" y="4.465116279069767" as="targetPoint" />
          </mxGeometry>
        </mxCell>
        <mxCell id="ZhGPCTu5Iyny0ZlqSRic-168" value="SI" style="vsdxID=59;edgeStyle=none;startArrow=none;endArrow=open;startSize=5;endSize=2;strokeWidth=4;strokeColor=#CDCDCD;spacingTop=0;spacingBottom=0;spacingLeft=0;spacingRight=0;verticalAlign=middle;html=1;labelBackgroundColor=#ffffff;rounded=0;" parent="1" source="ZhGPCTu5Iyny0ZlqSRic-167" target="203xu0XrpAFpmtI-5cuE-2" edge="1">
          <mxGeometry relative="1" as="geometry">
            <mxPoint as="offset" />
            <Array as="points" />
            <mxPoint x="-1214" y="-180" as="sourcePoint" />
            <mxPoint x="-1134" y="-180" as="targetPoint" />
          </mxGeometry>
        </mxCell>
        <mxCell id="ZhGPCTu5Iyny0ZlqSRic-176" style="vsdxID=57;edgeStyle=none;startArrow=none;endArrow=block;startSize=5;endSize=9;strokeColor=#000000;spacingTop=0;spacingBottom=0;spacingLeft=0;spacingRight=0;verticalAlign=middle;html=1;labelBackgroundColor=#ffffff;rounded=0;" parent="1" source="DCNwNrw-yuZkW3MHIDjY-3" target="0BtqvbByxqbC6ZA3XULC-9" edge="1">
          <mxGeometry relative="1" as="geometry">
            <mxPoint as="offset" />
            <mxPoint x="-679.38" y="230.00000000000023" as="sourcePoint" />
            <mxPoint x="-541.8634770114944" y="340" as="targetPoint" />
          </mxGeometry>
        </mxCell>
        <mxCell id="ZhGPCTu5Iyny0ZlqSRic-177" style="vsdxID=20;fillColor=#FFFFFF;gradientColor=none;shape=stencil(UzV2Ls5ILEhVNTIoLinKz04tz0wpyVA1dlE1MsrMy0gtyiwBslSNXVWNndPyi1LTi/JL81Ig/IJEkEoQKze/DGRCBUSfAUiHkUElhGcK4bpBVOZk5iGpNEVVikeloQHZpsK0YlWLz1QgA+HFtMycHEgIIcujBwlQCBKcxq4A);strokeColor=#000000;spacingTop=-1;spacingBottom=-1;spacingLeft=-1;spacingRight=-1;labelBackgroundColor=none;rounded=0;html=1;whiteSpace=wrap;" parent="1" vertex="1">
          <mxGeometry x="-1536" y="-590" width="210.61" height="195" as="geometry" />
        </mxCell>
        <mxCell id="ZhGPCTu5Iyny0ZlqSRic-178" value="&lt;font style=&quot;font-size:11px;font-family:Calibri;color:#000000;direction:ltr;letter-spacing:0px;line-height:120%;opacity:1&quot;&gt;&lt;br&gt;&lt;/font&gt;" style="text;vsdxID=20;fillColor=none;gradientColor=none;strokeColor=none;spacingTop=-1;spacingBottom=-1;spacingLeft=-1;spacingRight=-1;labelBackgroundColor=none;rounded=0;html=1;whiteSpace=wrap;verticalAlign=middle;align=center;;html=1;" parent="ZhGPCTu5Iyny0ZlqSRic-177" vertex="1">
          <mxGeometry x="17.559608749999995" y="22.090714285714284" width="175.51710874999998" height="148.20000000000002" as="geometry" />
        </mxCell>
        <mxCell id="a82_juw0TD2ykU31_FT8-14" value="&lt;font style=&quot;font-size:11px;font-family:Calibri;color:#000000;direction:ltr;letter-spacing:0px;line-height:120%;opacity:1&quot;&gt;CONTADOR PARES SEGUIDOS&lt;br&gt;&lt;/font&gt;" style="verticalAlign=middle;align=center;vsdxID=7;fillColor=#FFFFFF;gradientColor=none;shape=stencil(nZBLDoAgDERP0z3SIyjew0SURgSD+Lu9kMZoXLhwN9O+tukAlrNpJg1SzDH4QW/URgNYgZTkjA4UkwJUgGXng+6DX1zLfmoymdXo17xh5zmRJ6Q42BWCfc2oJfdAr+Yv+AP9Cb7OJ3H/2JG1HNGz/84klThPVCc=);strokeColor=#000000;spacingTop=-1;spacingBottom=-1;spacingLeft=-1;spacingRight=-1;labelBackgroundColor=none;rounded=0;html=1;whiteSpace=wrap;" parent="ZhGPCTu5Iyny0ZlqSRic-177" vertex="1">
          <mxGeometry x="28.81044523192939" y="86.66666666666667" width="78.46086047885147" height="32.49999999999999" as="geometry" />
        </mxCell>
        <mxCell id="a82_juw0TD2ykU31_FT8-16" value="=" style="vsdxID=52;fillColor=#FFFFFF;gradientColor=none;shape=stencil(vVHLDsIgEPwajiQI6RfU+h8bu22JCGRB2/69kG1iazx58DazM/vIjjBtmiCi0CplCjecbZ8nYc5Ca+snJJsLEqYTph0C4Ujh4XvmEaqzont41gkL96naodXKrGF6YSfQtUi0OXXDVlqPfJNP6usotUhYbJIUMmQb/GGrAxpRljVycDBuc1hKM2LclX8/7H9nFfB+82Cd45T2+mcspcSRmu4F);dashed=1;dashPattern=4.00 2.00;labelBackgroundColor=none;rounded=0;html=1;whiteSpace=wrap;" parent="ZhGPCTu5Iyny0ZlqSRic-177" vertex="1">
          <mxGeometry x="85.26399118622498" y="17.33333333333333" width="36.359910953614104" height="37.916666666666664" as="geometry" />
        </mxCell>
        <mxCell id="a82_juw0TD2ykU31_FT8-19" value="&lt;font style=&quot;font-size:11px;font-family:Calibri;color:#000000;direction:ltr;letter-spacing:0px;line-height:120%;opacity:1&quot;&gt;&quot;3&quot;&lt;br&gt;&lt;/font&gt;" style="verticalAlign=middle;align=center;vsdxID=7;fillColor=#FFFFFF;gradientColor=none;shape=stencil(nZBLDoAgDERP0z3SIyjew0SURgSD+Lu9kMZoXLhwN9O+tukAlrNpJg1SzDH4QW/URgNYgZTkjA4UkwJUgGXng+6DX1zLfmoymdXo17xh5zmRJ6Q42BWCfc2oJfdAr+Yv+AP9Cb7OJ3H/2JG1HNGz/84klThPVCc=);strokeColor=#000000;spacingTop=-1;spacingBottom=-1;spacingLeft=-1;spacingRight=-1;labelBackgroundColor=none;rounded=0;html=1;whiteSpace=wrap;" parent="ZhGPCTu5Iyny0ZlqSRic-177" vertex="1">
          <mxGeometry x="117.79654309209032" y="81.24999999999999" width="54.434614056608055" height="37.916666666666664" as="geometry" />
        </mxCell>
        <mxCell id="a82_juw0TD2ykU31_FT8-20" style="vsdxID=62;edgeStyle=none;startArrow=none;endArrow=none;startSize=5;endSize=9;strokeColor=#000000;spacingTop=0;spacingBottom=0;spacingLeft=0;spacingRight=0;verticalAlign=middle;html=1;labelBackgroundColor=#ffffff;rounded=0;" parent="ZhGPCTu5Iyny0ZlqSRic-177" source="a82_juw0TD2ykU31_FT8-14" target="a82_juw0TD2ykU31_FT8-16" edge="1">
          <mxGeometry relative="1" as="geometry">
            <mxPoint as="offset" />
            <mxPoint x="1111.1014683567305" y="519.9999999999999" as="sourcePoint" />
            <mxPoint x="68.04087547135514" as="targetPoint" />
          </mxGeometry>
        </mxCell>
        <mxCell id="a82_juw0TD2ykU31_FT8-23" style="vsdxID=62;edgeStyle=none;startArrow=none;endArrow=none;startSize=5;endSize=9;strokeColor=#000000;spacingTop=0;spacingBottom=0;spacingLeft=0;spacingRight=0;verticalAlign=middle;html=1;labelBackgroundColor=#ffffff;rounded=0;" parent="ZhGPCTu5Iyny0ZlqSRic-177" source="a82_juw0TD2ykU31_FT8-19" target="a82_juw0TD2ykU31_FT8-16" edge="1">
          <mxGeometry relative="1" as="geometry">
            <mxPoint as="offset" />
            <mxPoint x="1188.0744430057698" y="514.5833333333333" as="sourcePoint" />
            <mxPoint x="145.01385012039435" y="-5.416666666666667" as="targetPoint" />
          </mxGeometry>
        </mxCell>
        <mxCell id="ZhGPCTu5Iyny0ZlqSRic-179" value="4" style="vsdxID=51;fillColor=#FFFFFF;gradientColor=none;shape=stencil(vVHLDsIgEPwajiQI6RfU+h8bu22JCGRB2/69kG1iazx58DazM/vIjjBtmiCi0CplCjecbZ8nYc5Ca+snJJsLEqYTph0C4Ujh4XvmEaqzont41gkL96naodXKrGF6YSfQtUi0OXXDVlqPfJNP6usotUhYbJIUMmQb/GGrAxpRljVycDBuc1hKM2LclX8/7H9nFfB+82Cd45T2+mcspcSRmu4F);labelBackgroundColor=none;rounded=0;html=1;whiteSpace=wrap;" parent="1" vertex="1">
          <mxGeometry x="-339.75" y="-1040" width="45" height="40" as="geometry" />
        </mxCell>
        <mxCell id="ZhGPCTu5Iyny0ZlqSRic-180" style="vsdxID=57;edgeStyle=none;startArrow=none;endArrow=block;startSize=5;endSize=9;strokeColor=#000000;spacingTop=0;spacingBottom=0;spacingLeft=0;spacingRight=0;verticalAlign=middle;html=1;labelBackgroundColor=#ffffff;rounded=0;" parent="1" source="ZhGPCTu5Iyny0ZlqSRic-6" target="ZhGPCTu5Iyny0ZlqSRic-179" edge="1">
          <mxGeometry relative="1" as="geometry">
            <mxPoint as="offset" />
            <mxPoint x="-484.8800000000002" y="-725" as="sourcePoint" />
            <mxPoint x="-573.4400000000002" y="-635" as="targetPoint" />
          </mxGeometry>
        </mxCell>
        <mxCell id="3d_Hws1QxchP5DV1Z6rh-35" style="vsdxID=20;fillColor=#FFFFFF;gradientColor=none;shape=stencil(UzV2Ls5ILEhVNTIoLinKz04tz0wpyVA1dlE1MsrMy0gtyiwBslSNXVWNndPyi1LTi/JL81Ig/IJEkEoQKze/DGRCBUSfAUiHkUElhGcK4bpBVOZk5iGpNEVVikeloQHZpsK0YlWLz1QgA+HFtMycHEgIIcujBwlQCBKcxq4A);strokeColor=#000000;spacingTop=-1;spacingBottom=-1;spacingLeft=-1;spacingRight=-1;labelBackgroundColor=none;rounded=0;html=1;whiteSpace=wrap;" parent="1" vertex="1">
          <mxGeometry x="-1149.38" y="-420" width="230" height="140" as="geometry" />
        </mxCell>
        <mxCell id="3d_Hws1QxchP5DV1Z6rh-36" value="&lt;font style=&quot;font-size:11px;font-family:Calibri;color:#000000;direction:ltr;letter-spacing:0px;line-height:120%;opacity:1&quot;&gt;&lt;br/&gt;&lt;/font&gt;" style="text;vsdxID=20;fillColor=none;gradientColor=none;strokeColor=none;spacingTop=-1;spacingBottom=-1;spacingLeft=-1;spacingRight=-1;labelBackgroundColor=none;rounded=0;html=1;whiteSpace=wrap;verticalAlign=middle;align=center;;html=1;" parent="3d_Hws1QxchP5DV1Z6rh-35" vertex="1">
          <mxGeometry x="10.895596590909088" y="11.316324324324324" width="108.90696022727272" height="75.91783783783784" as="geometry" />
        </mxCell>
        <mxCell id="3d_Hws1QxchP5DV1Z6rh-37" value="=" style="vsdxID=52;fillColor=#FFFFFF;gradientColor=none;shape=stencil(vVHLDsIgEPwajiQI6RfU+h8bu22JCGRB2/69kG1iazx58DazM/vIjjBtmiCi0CplCjecbZ8nYc5Ca+snJJsLEqYTph0C4Ujh4XvmEaqzont41gkL96naodXKrGF6YSfQtUi0OXXDVlqPfJNP6usotUhYbJIUMmQb/GGrAxpRljVycDBuc1hKM2LclX8/7H9nFfB+82Cd45T2+mcspcSRmu4F);dashed=1;dashPattern=4.00 2.00;labelBackgroundColor=none;rounded=0;html=1;whiteSpace=wrap;" parent="3d_Hws1QxchP5DV1Z6rh-35" vertex="1">
          <mxGeometry x="104.74348244348248" y="11.321081081081083" width="15.134199134199132" height="11.654054054054056" as="geometry" />
        </mxCell>
        <mxCell id="3d_Hws1QxchP5DV1Z6rh-39" value="&lt;font style=&quot;font-size:11px;font-family:Calibri;color:#000000;direction:ltr;letter-spacing:0px;line-height:120%;opacity:1&quot;&gt;OCUPADO&lt;br&gt;&lt;/font&gt;" style="verticalAlign=middle;align=center;vsdxID=7;fillColor=#FFFFFF;gradientColor=none;shape=stencil(nZBLDoAgDERP0z3SIyjew0SURgSD+Lu9kMZoXLhwN9O+tukAlrNpJg1SzDH4QW/URgNYgZTkjA4UkwJUgGXng+6DX1zLfmoymdXo17xh5zmRJ6Q42BWCfc2oJfdAr+Yv+AP9Cb7OJ3H/2JG1HNGz/84klThPVCc=);strokeColor=#000000;spacingTop=-1;spacingBottom=-1;spacingLeft=-1;spacingRight=-1;labelBackgroundColor=none;rounded=0;html=1;whiteSpace=wrap;" parent="3d_Hws1QxchP5DV1Z6rh-35" vertex="1">
          <mxGeometry x="147.13804713804714" y="54.48648648648649" width="46.464646464646464" height="21.18918918918919" as="geometry" />
        </mxCell>
        <mxCell id="3d_Hws1QxchP5DV1Z6rh-40" style="vsdxID=62;edgeStyle=none;startArrow=none;endArrow=none;startSize=5;endSize=9;strokeColor=#000000;spacingTop=0;spacingBottom=0;spacingLeft=0;spacingRight=0;verticalAlign=middle;html=1;labelBackgroundColor=#ffffff;rounded=0;exitX=-0.024;exitY=-0.129;exitDx=0;exitDy=0;exitPerimeter=0;" parent="3d_Hws1QxchP5DV1Z6rh-35" source="a82_juw0TD2ykU31_FT8-43" target="3d_Hws1QxchP5DV1Z6rh-37" edge="1">
          <mxGeometry relative="1" as="geometry">
            <mxPoint as="offset" />
            <mxPoint x="55.44193141088297" y="44.95135135135142" as="sourcePoint" />
            <mxPoint x="32.25974025974026" y="18.313513513513517" as="targetPoint" />
          </mxGeometry>
        </mxCell>
        <mxCell id="3d_Hws1QxchP5DV1Z6rh-41" style="vsdxID=62;edgeStyle=none;startArrow=none;endArrow=none;startSize=5;endSize=9;strokeColor=#000000;spacingTop=0;spacingBottom=0;spacingLeft=0;spacingRight=0;verticalAlign=middle;html=1;labelBackgroundColor=#ffffff;rounded=0;" parent="3d_Hws1QxchP5DV1Z6rh-35" source="3d_Hws1QxchP5DV1Z6rh-39" target="3d_Hws1QxchP5DV1Z6rh-37" edge="1">
          <mxGeometry relative="1" as="geometry">
            <mxPoint as="offset" />
            <mxPoint x="545.6277056277056" y="10.988108108108111" as="sourcePoint" />
            <mxPoint x="103.54978354978356" y="17.64756756756757" as="targetPoint" />
          </mxGeometry>
        </mxCell>
        <mxCell id="a82_juw0TD2ykU31_FT8-41" style="vsdxID=14;fillColor=none;gradientColor=none;labelBackgroundColor=none;rounded=0;strokeColor=none;html=1;whiteSpace=wrap;" parent="3d_Hws1QxchP5DV1Z6rh-35" vertex="1">
          <mxGeometry x="38.72" y="54.49" width="81.28" height="35.51" as="geometry" />
        </mxCell>
        <mxCell id="a82_juw0TD2ykU31_FT8-42" value="&lt;p style=&quot;align:left;margin-left:0;margin-right:0;margin-top:0px;margin-bottom:0px;text-indent:0;valign:top;direction:ltr;&quot;&gt;&lt;font style=&quot;font-size:11px;font-family:Calibri;color:#000000;direction:ltr;letter-spacing:0px;line-height:120%;opacity:1&quot;&gt;CASILLA&lt;span style=&quot;white-space: pre;&quot;&gt; &lt;/span&gt;&lt;/font&gt;&lt;/p&gt;" style="verticalAlign=top;align=left;vsdxID=15;fillColor=#FFFFFF;gradientColor=none;shape=stencil(nZBLDoAgDERP0z3SIyjew0SURgSD+Lu9kMZoXLhwN9O+tukAlrNpJg1SzDH4QW/URgNYgZTkjA4UkwJUgGXng+6DX1zLfmoymdXo17xh5zmRJ6Q42BWCfc2oJfdAr+Yv+AP9Cb7OJ3H/2JG1HNGz/84klThPVCc=);strokeColor=#000000;spacingTop=-1;spacingBottom=-1;spacingLeft=-1;spacingRight=-1;labelBackgroundColor=none;rounded=0;html=1;whiteSpace=wrap;" parent="a82_juw0TD2ykU31_FT8-41" vertex="1">
          <mxGeometry width="81.28" height="35.51" as="geometry" />
        </mxCell>
        <mxCell id="a82_juw0TD2ykU31_FT8-43" value="&lt;font style=&quot;font-size:11px;font-family:Calibri;color:#000000;direction:ltr;letter-spacing:0px;line-height:120%;opacity:1&quot;&gt;ESTADO&lt;br&gt;&lt;/font&gt;" style="verticalAlign=middle;align=center;vsdxID=16;fillColor=#FFFFFF;gradientColor=none;shape=stencil(nZBLDoAgDERP0z3SIyjew0SURgSD+Lu9kMZoXLhwN9O+tukAlrNpJg1SzDH4QW/URgNYgZTkjA4UkwJUgGXng+6DX1zLfmoymdXo17xh5zmRJ6Q42BWCfc2oJfdAr+Yv+AP9Cb7OJ3H/2JG1HNGz/84klThPVCc=);strokeColor=#000000;spacingTop=-1;spacingBottom=-1;spacingLeft=-1;spacingRight=-1;labelBackgroundColor=none;rounded=0;html=1;whiteSpace=wrap;" parent="a82_juw0TD2ykU31_FT8-41" vertex="1">
          <mxGeometry x="33.67314285714285" y="18.769571428571428" width="41.80114285714285" height="13.189428571428572" as="geometry" />
        </mxCell>
        <mxCell id="ZhGPCTu5Iyny0ZlqSRic-184" style="vsdxID=57;edgeStyle=none;startArrow=none;endArrow=block;startSize=5;endSize=9;strokeColor=#000000;spacingTop=0;spacingBottom=0;spacingLeft=0;spacingRight=0;verticalAlign=middle;html=1;labelBackgroundColor=#ffffff;rounded=0;" parent="1" source="e6ZOl5odj2JOFOmkNz3M-1" target="ZhGPCTu5Iyny0ZlqSRic-116" edge="1">
          <mxGeometry relative="1" as="geometry">
            <mxPoint as="offset" />
            <mxPoint x="-216" y="-749" as="sourcePoint" />
            <mxPoint x="-186" y="-745.0806451612904" as="targetPoint" />
          </mxGeometry>
        </mxCell>
        <mxCell id="a82_juw0TD2ykU31_FT8-3" style="vsdxID=57;edgeStyle=none;startArrow=none;endArrow=block;startSize=5;endSize=9;strokeColor=#000000;spacingTop=0;spacingBottom=0;spacingLeft=0;spacingRight=0;verticalAlign=middle;html=1;labelBackgroundColor=#ffffff;rounded=0;" parent="1" source="203xu0XrpAFpmtI-5cuE-13" target="a82_juw0TD2ykU31_FT8-8" edge="1">
          <mxGeometry relative="1" as="geometry">
            <mxPoint as="offset" />
            <mxPoint x="-767" y="-595" as="sourcePoint" />
            <mxPoint x="-734.4615384615386" y="-645" as="targetPoint" />
          </mxGeometry>
        </mxCell>
        <mxCell id="a82_juw0TD2ykU31_FT8-6" value="5" style="vsdxID=51;fillColor=#FFFFFF;gradientColor=none;shape=stencil(vVHLDsIgEPwajiQI6RfU+h8bu22JCGRB2/69kG1iazx58DazM/vIjjBtmiCi0CplCjecbZ8nYc5Ca+snJJsLEqYTph0C4Ujh4XvmEaqzont41gkL96naodXKrGF6YSfQtUi0OXXDVlqPfJNP6usotUhYbJIUMmQb/GGrAxpRljVycDBuc1hKM2LclX8/7H9nFfB+82Cd45T2+mcspcSRmu4F);labelBackgroundColor=none;rounded=0;html=1;whiteSpace=wrap;" parent="1" vertex="1">
          <mxGeometry x="-1110" y="-200" width="45" height="40" as="geometry" />
        </mxCell>
        <mxCell id="a82_juw0TD2ykU31_FT8-7" style="vsdxID=57;edgeStyle=none;startArrow=none;endArrow=block;startSize=5;endSize=9;strokeColor=#000000;spacingTop=0;spacingBottom=0;spacingLeft=0;spacingRight=0;verticalAlign=middle;html=1;labelBackgroundColor=#ffffff;rounded=0;" parent="1" source="a82_juw0TD2ykU31_FT8-6" target="ZhGPCTu5Iyny0ZlqSRic-1" edge="1">
          <mxGeometry relative="1" as="geometry">
            <mxPoint as="offset" />
            <mxPoint x="-979.13" y="-10" as="sourcePoint" />
            <mxPoint x="-899.13" y="-10" as="targetPoint" />
          </mxGeometry>
        </mxCell>
        <mxCell id="a82_juw0TD2ykU31_FT8-8" value="&lt;font style=&quot;font-size: 11px ; font-family: &amp;quot;calibri&amp;quot; ; color: #000000 ; direction: ltr ; letter-spacing: 0px ; line-height: 120% ; opacity: 1&quot;&gt;CONFIGURA&lt;br&gt;&lt;/font&gt;" style="verticalAlign=middle;align=center;vsdxID=1;fillColor=#FFFFFF;gradientColor=none;shape=stencil(tVLREoIgEPwaHnEQxsl3s/9gEpSJwDko7e+DsEkze2l627vdu5uFRaxyHe8FosR5sCcxqMZ3iO0Rpcp0ApQPCLEasUpaEC3Yi2lS3fOojOhsr3HDmObyMtsVcYqS29Qh5FEfklwrM5OXeUa/yjkcAwfr7TDpiyTfXvjkMR+Vw2A998qaBac5tAKHU1hq3i4oNwjRr9ofvayt/+Rk+yX/4iWA159KpXWKxJx/z0Bopfyw+g4=);dashed=1;strokeColor=#000000;strokeWidth=3;spacingTop=-1;spacingBottom=-1;spacingLeft=-1;spacingRight=-1;labelBackgroundColor=none;rounded=0;html=1;whiteSpace=wrap;" parent="1" vertex="1">
          <mxGeometry x="-1093" y="-985" width="80" height="30" as="geometry" />
        </mxCell>
        <mxCell id="a82_juw0TD2ykU31_FT8-9" style="vsdxID=57;edgeStyle=none;startArrow=none;endArrow=block;startSize=5;endSize=9;strokeColor=#000000;spacingTop=0;spacingBottom=0;spacingLeft=0;spacingRight=0;verticalAlign=middle;html=1;labelBackgroundColor=#ffffff;rounded=0;" parent="1" source="a82_juw0TD2ykU31_FT8-8" target="203xu0XrpAFpmtI-5cuE-34" edge="1">
          <mxGeometry relative="1" as="geometry">
            <mxPoint as="offset" />
            <mxPoint x="-762" y="-770" as="sourcePoint" />
            <mxPoint x="-644" y="-963.7591240875912" as="targetPoint" />
          </mxGeometry>
        </mxCell>
        <mxCell id="a82_juw0TD2ykU31_FT8-11" style="vsdxID=57;edgeStyle=none;startArrow=none;endArrow=block;startSize=5;endSize=9;strokeColor=#000000;spacingTop=0;spacingBottom=0;spacingLeft=0;spacingRight=0;verticalAlign=middle;html=1;labelBackgroundColor=#ffffff;rounded=0;" parent="1" source="203xu0XrpAFpmtI-5cuE-31" target="a82_juw0TD2ykU31_FT8-10" edge="1">
          <mxGeometry relative="1" as="geometry">
            <mxPoint as="offset" />
            <mxPoint x="-1104" y="-690" as="sourcePoint" />
            <mxPoint x="-754" y="-455" as="targetPoint" />
          </mxGeometry>
        </mxCell>
        <mxCell id="a82_juw0TD2ykU31_FT8-25" value="&lt;font style=&quot;font-size:11px;font-family:Calibri;color:#000000;direction:ltr;letter-spacing:0px;line-height:120%;opacity:1&quot;&gt;TIEMPO&lt;br&gt;&lt;/font&gt;" style="verticalAlign=middle;align=center;vsdxID=7;fillColor=#FFFFFF;gradientColor=none;shape=stencil(nZBLDoAgDERP0z3SIyjew0SURgSD+Lu9kMZoXLhwN9O+tukAlrNpJg1SzDH4QW/URgNYgZTkjA4UkwJUgGXng+6DX1zLfmoymdXo17xh5zmRJ6Q42BWCfc2oJfdAr+Yv+AP9Cb7OJ3H/2JG1HNGz/84klThPVCc=);strokeColor=#000000;spacingTop=-1;spacingBottom=-1;spacingLeft=-1;spacingRight=-1;labelBackgroundColor=none;rounded=0;html=1;whiteSpace=wrap;" parent="1" vertex="1">
          <mxGeometry x="-1536" y="-910" width="82" height="30" as="geometry" />
        </mxCell>
        <mxCell id="a82_juw0TD2ykU31_FT8-26" value="&lt;font style=&quot;font-size: 11px ; font-family: &amp;quot;calibri&amp;quot; ; color: #000000 ; direction: ltr ; letter-spacing: 0px ; line-height: 120% ; opacity: 1&quot;&gt;TIENE&lt;br&gt;&lt;/font&gt;" style="verticalAlign=middle;align=center;vsdxID=2;fillColor=#FFFFFF;gradientColor=none;shape=stencil(tVLREoIgEPwaHnEQxsl3s/9gEpSJwDko7e+DsEkze2l627vdu5uFRaxyHe8FosR5sCcxqMZ3iO0Rpcp0ApQPCLEasUpaEC3Yi2lS3fOojOhsr3HDmObyMtsVcYqS29Qh5FEfklwrM5OXeUa/yjkcAwfr7TDpiyTfXvjkMR+Vw2A998qaBac5tAKHU1hq3i4oNwjRr9ofvayt/+Rk+yX/4iWA159KpXWKxJx/z0Bopfyw+g4=);strokeColor=#000000;spacingTop=-1;spacingBottom=-1;spacingLeft=-1;spacingRight=-1;labelBackgroundColor=none;rounded=0;html=1;whiteSpace=wrap;" parent="1" vertex="1">
          <mxGeometry x="-1534" y="-835" width="80" height="30" as="geometry" />
        </mxCell>
        <mxCell id="a82_juw0TD2ykU31_FT8-27" style="vsdxID=57;edgeStyle=none;startArrow=none;endArrow=block;startSize=5;endSize=9;strokeColor=#000000;spacingTop=0;spacingBottom=0;spacingLeft=0;spacingRight=0;verticalAlign=middle;html=1;labelBackgroundColor=#ffffff;rounded=0;" parent="1" source="ZhGPCTu5Iyny0ZlqSRic-116" target="a82_juw0TD2ykU31_FT8-26" edge="1">
          <mxGeometry relative="1" as="geometry">
            <mxPoint as="offset" />
            <mxPoint x="-304" y="-780" as="sourcePoint" />
            <mxPoint x="-304" y="-780" as="targetPoint" />
          </mxGeometry>
        </mxCell>
        <mxCell id="a82_juw0TD2ykU31_FT8-28" style="vsdxID=57;edgeStyle=none;startArrow=none;endArrow=block;startSize=5;endSize=9;strokeColor=#000000;spacingTop=0;spacingBottom=0;spacingLeft=0;spacingRight=0;verticalAlign=middle;html=1;labelBackgroundColor=#ffffff;rounded=0;" parent="1" source="a82_juw0TD2ykU31_FT8-26" target="a82_juw0TD2ykU31_FT8-25" edge="1">
          <mxGeometry relative="1" as="geometry">
            <mxPoint as="offset" />
            <mxPoint x="-334" y="-850" as="sourcePoint" />
            <mxPoint x="-334" y="-850" as="targetPoint" />
          </mxGeometry>
        </mxCell>
        <mxCell id="a82_juw0TD2ykU31_FT8-29" style="vsdxID=20;fillColor=#FFFFFF;gradientColor=none;shape=stencil(UzV2Ls5ILEhVNTIoLinKz04tz0wpyVA1dlE1MsrMy0gtyiwBslSNXVWNndPyi1LTi/JL81Ig/IJEkEoQKze/DGRCBUSfAUiHkUElhGcK4bpBVOZk5iGpNEVVikeloQHZpsK0YlWLz1QgA+HFtMycHEgIIcujBwlQCBKcxq4A);strokeColor=#000000;spacingTop=-1;spacingBottom=-1;spacingLeft=-1;spacingRight=-1;labelBackgroundColor=none;rounded=0;html=1;whiteSpace=wrap;" parent="1" vertex="1">
          <mxGeometry x="-1654" y="-725" width="188.25" height="150" as="geometry" />
        </mxCell>
        <mxCell id="a82_juw0TD2ykU31_FT8-30" value="&lt;font style=&quot;font-size:11px;font-family:Calibri;color:#000000;direction:ltr;letter-spacing:0px;line-height:120%;opacity:1&quot;&gt;&lt;br/&gt;&lt;/font&gt;" style="text;vsdxID=20;fillColor=none;gradientColor=none;strokeColor=none;spacingTop=-1;spacingBottom=-1;spacingLeft=-1;spacingRight=-1;labelBackgroundColor=none;rounded=0;html=1;whiteSpace=wrap;verticalAlign=middle;align=center;;html=1;" parent="a82_juw0TD2ykU31_FT8-29" vertex="1">
          <mxGeometry x="15.695343750000003" y="14.706142727404542" width="156.88284375000003" height="98.6591164057909" as="geometry" />
        </mxCell>
        <mxCell id="a82_juw0TD2ykU31_FT8-35" value="&lt;font style=&quot;font-size:11px;font-family:Calibri;color:#000000;direction:ltr;letter-spacing:0px;line-height:120%;opacity:1&quot;&gt;TIEMPO&lt;br&gt;&lt;/font&gt;" style="verticalAlign=middle;align=center;vsdxID=7;fillColor=#FFFFFF;gradientColor=none;shape=stencil(nZBLDoAgDERP0z3SIyjew0SURgSD+Lu9kMZoXLhwN9O+tukAlrNpJg1SzDH4QW/URgNYgZTkjA4UkwJUgGXng+6DX1zLfmoymdXo17xh5zmRJ6Q42BWCfc2oJfdAr+Yv+AP9Cb7OJ3H/2JG1HNGz/84klThPVCc=);strokeColor=#000000;spacingTop=-1;spacingBottom=-1;spacingLeft=-1;spacingRight=-1;labelBackgroundColor=none;rounded=0;html=1;whiteSpace=wrap;" parent="a82_juw0TD2ykU31_FT8-29" vertex="1">
          <mxGeometry x="33.83009375" y="59.91666221486189" width="52.458999999999996" height="19.41449863774774" as="geometry" />
        </mxCell>
        <mxCell id="a82_juw0TD2ykU31_FT8-36" value="&amp;gt;=" style="vsdxID=52;fillColor=#FFFFFF;gradientColor=none;shape=stencil(vVHLDsIgEPwajiQI6RfU+h8bu22JCGRB2/69kG1iazx58DazM/vIjjBtmiCi0CplCjecbZ8nYc5Ca+snJJsLEqYTph0C4Ujh4XvmEaqzont41gkL96naodXKrGF6YSfQtUi0OXXDVlqPfJNP6usotUhYbJIUMmQb/GGrAxpRljVycDBuc1hKM2LclX8/7H9nFfB+82Cd45T2+mcspcSRmu4F);dashed=1;dashPattern=4.00 2.00;labelBackgroundColor=none;rounded=0;html=1;whiteSpace=wrap;" parent="a82_juw0TD2ykU31_FT8-29" vertex="1">
          <mxGeometry x="79.22187500000001" y="14.705112452588265" width="29.806250000000002" height="25.24173299855761" as="geometry" />
        </mxCell>
        <mxCell id="a82_juw0TD2ykU31_FT8-37" value="&lt;font style=&quot;font-size:11px;font-family:Calibri;color:#000000;direction:ltr;letter-spacing:0px;line-height:120%;opacity:1&quot;&gt;120&lt;br&gt;&lt;/font&gt;" style="verticalAlign=middle;align=center;vsdxID=7;fillColor=#FFFFFF;gradientColor=none;shape=stencil(nZBLDoAgDERP0z3SIyjew0SURgSD+Lu9kMZoXLhwN9O+tukAlrNpJg1SzDH4QW/URgNYgZTkjA4UkwJUgGXng+6DX1zLfmoymdXo17xh5zmRJ6Q42BWCfc2oJfdAr+Yv+AP9Cb7OJ3H/2JG1HNGz/84klThPVCc=);strokeColor=#000000;spacingTop=-1;spacingBottom=-1;spacingLeft=-1;spacingRight=-1;labelBackgroundColor=none;rounded=0;html=1;whiteSpace=wrap;" parent="a82_juw0TD2ykU31_FT8-29" vertex="1">
          <mxGeometry x="105.10625" y="57.69538971098882" width="43.925000000000004" height="21.635771141620808" as="geometry" />
        </mxCell>
        <mxCell id="a82_juw0TD2ykU31_FT8-38" style="vsdxID=62;edgeStyle=none;startArrow=none;endArrow=none;startSize=5;endSize=9;strokeColor=#000000;spacingTop=0;spacingBottom=0;spacingLeft=0;spacingRight=0;verticalAlign=middle;html=1;labelBackgroundColor=#ffffff;rounded=0;" parent="a82_juw0TD2ykU31_FT8-29" source="a82_juw0TD2ykU31_FT8-35" target="a82_juw0TD2ykU31_FT8-36" edge="1">
          <mxGeometry relative="1" as="geometry">
            <mxPoint as="offset" />
            <mxPoint x="405.18459375" y="730.625567605107" as="sourcePoint" />
            <mxPoint x="60.05959375" y="2.2212725038730685" as="targetPoint" />
          </mxGeometry>
        </mxCell>
        <mxCell id="a82_juw0TD2ykU31_FT8-39" style="vsdxID=62;edgeStyle=none;startArrow=none;endArrow=none;startSize=5;endSize=9;strokeColor=#000000;spacingTop=0;spacingBottom=0;spacingLeft=0;spacingRight=0;verticalAlign=middle;html=1;labelBackgroundColor=#ffffff;rounded=0;" parent="a82_juw0TD2ykU31_FT8-29" source="a82_juw0TD2ykU31_FT8-37" target="a82_juw0TD2ykU31_FT8-36" edge="1">
          <mxGeometry relative="1" as="geometry">
            <mxPoint as="offset" />
            <mxPoint x="472.19375" y="728.4042951012339" as="sourcePoint" />
            <mxPoint x="127.06875000000001" as="targetPoint" />
          </mxGeometry>
        </mxCell>
        <mxCell id="a82_juw0TD2ykU31_FT8-31" value="&lt;font style=&quot;font-size: 11px ; font-family: &amp;quot;calibri&amp;quot; ; color: #000000 ; direction: ltr ; letter-spacing: 0px ; line-height: 120% ; opacity: 1&quot;&gt;PIERDE&lt;br&gt;&lt;/font&gt;" style="verticalAlign=middle;align=center;vsdxID=1;fillColor=#FFFFFF;gradientColor=none;shape=stencil(tVLREoIgEPwaHnEQxsl3s/9gEpSJwDko7e+DsEkze2l627vdu5uFRaxyHe8FosR5sCcxqMZ3iO0Rpcp0ApQPCLEasUpaEC3Yi2lS3fOojOhsr3HDmObyMtsVcYqS29Qh5FEfklwrM5OXeUa/yjkcAwfr7TDpiyTfXvjkMR+Vw2A998qaBac5tAKHU1hq3i4oNwjRr9ofvayt/+Rk+yX/4iWA159KpXWKxJx/z0Bopfyw+g4=);dashed=1;strokeColor=#000000;strokeWidth=3;spacingTop=-1;spacingBottom=-1;spacingLeft=-1;spacingRight=-1;labelBackgroundColor=none;rounded=0;html=1;whiteSpace=wrap;" parent="1" vertex="1">
          <mxGeometry x="-1394" y="-690" width="80" height="30" as="geometry" />
        </mxCell>
        <mxCell id="a82_juw0TD2ykU31_FT8-32" style="vsdxID=57;edgeStyle=none;startArrow=none;endArrow=block;startSize=5;endSize=9;strokeColor=#000000;spacingTop=0;spacingBottom=0;spacingLeft=0;spacingRight=0;verticalAlign=middle;html=1;labelBackgroundColor=#ffffff;rounded=0;" parent="1" source="ZhGPCTu5Iyny0ZlqSRic-4" target="a82_juw0TD2ykU31_FT8-31" edge="1">
          <mxGeometry relative="1" as="geometry">
            <mxPoint as="offset" />
            <mxPoint x="-646" y="-690" as="sourcePoint" />
            <mxPoint x="-646" y="-690" as="targetPoint" />
          </mxGeometry>
        </mxCell>
        <mxCell id="a82_juw0TD2ykU31_FT8-33" style="vsdxID=57;edgeStyle=none;startArrow=none;endArrow=block;startSize=5;endSize=9;strokeColor=#000000;spacingTop=0;spacingBottom=0;spacingLeft=0;spacingRight=0;verticalAlign=middle;html=1;labelBackgroundColor=#ffffff;rounded=0;" parent="1" source="a82_juw0TD2ykU31_FT8-31" target="ZhGPCTu5Iyny0ZlqSRic-116" edge="1">
          <mxGeometry relative="1" as="geometry">
            <mxPoint as="offset" />
            <mxPoint x="-549" y="-800" as="sourcePoint" />
            <mxPoint x="-549" y="-800" as="targetPoint" />
          </mxGeometry>
        </mxCell>
        <mxCell id="a82_juw0TD2ykU31_FT8-34" style="vsdxID=59;edgeStyle=none;startArrow=none;endArrow=open;startSize=5;endSize=2;strokeWidth=4;strokeColor=#CDCDCD;spacingTop=0;spacingBottom=0;spacingLeft=0;spacingRight=0;verticalAlign=middle;html=1;labelBackgroundColor=#ffffff;rounded=0;" parent="1" source="a82_juw0TD2ykU31_FT8-30" target="a82_juw0TD2ykU31_FT8-31" edge="1">
          <mxGeometry relative="1" as="geometry">
            <mxPoint as="offset" />
            <Array as="points" />
            <mxPoint x="-594" y="-870" as="sourcePoint" />
            <mxPoint x="-514" y="-870" as="targetPoint" />
          </mxGeometry>
        </mxCell>
        <mxCell id="a82_juw0TD2ykU31_FT8-64" value="SI" style="edgeLabel;html=1;align=center;verticalAlign=middle;resizable=0;points=[];" parent="a82_juw0TD2ykU31_FT8-34" connectable="0" vertex="1">
          <mxGeometry x="0.1414" y="3" relative="1" as="geometry">
            <mxPoint as="offset" />
          </mxGeometry>
        </mxCell>
        <mxCell id="a82_juw0TD2ykU31_FT8-60" value="&lt;font style=&quot;font-size: 11px ; font-family: &amp;quot;calibri&amp;quot; ; color: #000000 ; direction: ltr ; letter-spacing: 0px ; line-height: 120% ; opacity: 1&quot;&gt;PRODUCE&lt;br&gt;&lt;/font&gt;" style="verticalAlign=middle;align=center;vsdxID=1;fillColor=#FFFFFF;gradientColor=none;shape=stencil(tVLREoIgEPwaHnEQxsl3s/9gEpSJwDko7e+DsEkze2l627vdu5uFRaxyHe8FosR5sCcxqMZ3iO0Rpcp0ApQPCLEasUpaEC3Yi2lS3fOojOhsr3HDmObyMtsVcYqS29Qh5FEfklwrM5OXeUa/yjkcAwfr7TDpiyTfXvjkMR+Vw2A998qaBac5tAKHU1hq3i4oNwjRr9ofvayt/+Rk+yX/4iWA159KpXWKxJx/z0Bopfyw+g4=);dashed=1;strokeColor=#000000;strokeWidth=3;spacingTop=-1;spacingBottom=-1;spacingLeft=-1;spacingRight=-1;labelBackgroundColor=none;rounded=0;html=1;whiteSpace=wrap;" parent="1" vertex="1">
          <mxGeometry x="-578" y="-805" width="80" height="30" as="geometry" />
        </mxCell>
        <mxCell id="a82_juw0TD2ykU31_FT8-62" style="vsdxID=57;edgeStyle=none;startArrow=none;endArrow=block;startSize=5;endSize=9;strokeColor=#000000;spacingTop=0;spacingBottom=0;spacingLeft=0;spacingRight=0;verticalAlign=middle;html=1;labelBackgroundColor=#ffffff;rounded=0;" parent="1" source="ZhGPCTu5Iyny0ZlqSRic-5" target="a82_juw0TD2ykU31_FT8-60" edge="1">
          <mxGeometry relative="1" as="geometry">
            <mxPoint as="offset" />
            <mxPoint x="-353" y="-480" as="sourcePoint" />
            <mxPoint x="-353" y="-400" as="targetPoint" />
          </mxGeometry>
        </mxCell>
        <mxCell id="a82_juw0TD2ykU31_FT8-63" style="vsdxID=59;edgeStyle=none;startArrow=none;endArrow=open;startSize=5;endSize=2;strokeWidth=4;strokeColor=#CDCDCD;spacingTop=0;spacingBottom=0;spacingLeft=0;spacingRight=0;verticalAlign=middle;html=1;labelBackgroundColor=#ffffff;rounded=0;" parent="1" source="ZhGPCTu5Iyny0ZlqSRic-37" target="a82_juw0TD2ykU31_FT8-60" edge="1">
          <mxGeometry relative="1" as="geometry">
            <mxPoint as="offset" />
            <Array as="points" />
            <mxPoint x="-264" y="-400" as="sourcePoint" />
            <mxPoint x="-184" y="-400" as="targetPoint" />
          </mxGeometry>
        </mxCell>
        <mxCell id="a82_juw0TD2ykU31_FT8-67" style="vsdxID=57;edgeStyle=none;startArrow=none;endArrow=block;startSize=5;endSize=9;strokeColor=#000000;spacingTop=0;spacingBottom=0;spacingLeft=0;spacingRight=0;verticalAlign=middle;html=1;labelBackgroundColor=#ffffff;rounded=0;" parent="1" source="203xu0XrpAFpmtI-5cuE-13" target="203xu0XrpAFpmtI-5cuE-38" edge="1">
          <mxGeometry relative="1" as="geometry">
            <mxPoint as="offset" />
            <mxPoint x="-1024" y="-722.5" as="sourcePoint" />
            <mxPoint x="-984" y="-710" as="targetPoint" />
          </mxGeometry>
        </mxCell>
        <mxCell id="a82_juw0TD2ykU31_FT8-71" value="6" style="vsdxID=51;fillColor=#FFFFFF;gradientColor=none;shape=stencil(vVHLDsIgEPwajiQI6RfU+h8bu22JCGRB2/69kG1iazx58DazM/vIjjBtmiCi0CplCjecbZ8nYc5Ca+snJJsLEqYTph0C4Ujh4XvmEaqzont41gkL96naodXKrGF6YSfQtUi0OXXDVlqPfJNP6usotUhYbJIUMmQb/GGrAxpRljVycDBuc1hKM2LclX8/7H9nFfB+82Cd45T2+mcspcSRmu4F);labelBackgroundColor=none;rounded=0;html=1;whiteSpace=wrap;" parent="1" vertex="1">
          <mxGeometry x="-347.25" y="-865" width="45" height="40" as="geometry" />
        </mxCell>
        <mxCell id="a82_juw0TD2ykU31_FT8-72" style="vsdxID=57;edgeStyle=none;startArrow=none;endArrow=block;startSize=5;endSize=9;strokeColor=#000000;spacingTop=0;spacingBottom=0;spacingLeft=0;spacingRight=0;verticalAlign=middle;html=1;labelBackgroundColor=#ffffff;rounded=0;" parent="1" source="a82_juw0TD2ykU31_FT8-71" target="ZhGPCTu5Iyny0ZlqSRic-136" edge="1">
          <mxGeometry relative="1" as="geometry">
            <mxPoint as="offset" />
            <mxPoint x="-354.0357142857142" y="-809.9999999999999" as="sourcePoint" />
            <mxPoint x="-22.75" y="-575" as="targetPoint" />
          </mxGeometry>
        </mxCell>
        <mxCell id="a82_juw0TD2ykU31_FT8-73" value="&lt;font style=&quot;font-size:11px;font-family:Calibri;color:#000000;direction:ltr;letter-spacing:0px;line-height:120%;opacity:1&quot;&gt;COORDENADA&lt;br&gt;&lt;/font&gt;" style="verticalAlign=middle;align=center;vsdxID=7;fillColor=#FFFFFF;gradientColor=none;shape=stencil(nZBLDoAgDERP0z3SIyjew0SURgSD+Lu9kMZoXLhwN9O+tukAlrNpJg1SzDH4QW/URgNYgZTkjA4UkwJUgGXng+6DX1zLfmoymdXo17xh5zmRJ6Q42BWCfc2oJfdAr+Yv+AP9Cb7OJ3H/2JG1HNGz/84klThPVCc=);strokeColor=#000000;spacingTop=-1;spacingBottom=-1;spacingLeft=-1;spacingRight=-1;labelBackgroundColor=none;rounded=0;html=1;whiteSpace=wrap;" parent="1" vertex="1">
          <mxGeometry x="-345.25" y="-245" width="82" height="30" as="geometry" />
        </mxCell>
        <mxCell id="a82_juw0TD2ykU31_FT8-76" style="vsdxID=57;edgeStyle=none;startArrow=none;endArrow=block;startSize=5;endSize=9;strokeColor=#000000;spacingTop=0;spacingBottom=0;spacingLeft=0;spacingRight=0;verticalAlign=middle;html=1;labelBackgroundColor=#ffffff;rounded=0;" parent="1" source="DCNwNrw-yuZkW3MHIDjY-3" target="a82_juw0TD2ykU31_FT8-73" edge="1">
          <mxGeometry relative="1" as="geometry">
            <mxPoint as="offset" />
            <mxPoint x="-515.561034482759" y="55.00000000000023" as="sourcePoint" />
            <mxPoint x="-582.13" y="-25" as="targetPoint" />
          </mxGeometry>
        </mxCell>
        <mxCell id="a82_juw0TD2ykU31_FT8-78" style="vsdxID=57;edgeStyle=none;startArrow=none;endArrow=block;startSize=5;endSize=9;strokeColor=#000000;spacingTop=0;spacingBottom=0;spacingLeft=0;spacingRight=0;verticalAlign=middle;html=1;labelBackgroundColor=#ffffff;rounded=0;" parent="1" source="a82_juw0TD2ykU31_FT8-80" target="ZhGPCTu5Iyny0ZlqSRic-19" edge="1">
          <mxGeometry relative="1" as="geometry">
            <mxPoint as="offset" />
            <mxPoint x="-243" y="-80" as="sourcePoint" />
            <mxPoint x="-260.875" y="-30" as="targetPoint" />
          </mxGeometry>
        </mxCell>
        <mxCell id="a82_juw0TD2ykU31_FT8-79" style="vsdxID=57;edgeStyle=none;startArrow=none;endArrow=block;startSize=5;endSize=9;strokeColor=#000000;spacingTop=0;spacingBottom=0;spacingLeft=0;spacingRight=0;verticalAlign=middle;html=1;labelBackgroundColor=#ffffff;rounded=0;" parent="1" source="a82_juw0TD2ykU31_FT8-73" target="a82_juw0TD2ykU31_FT8-80" edge="1">
          <mxGeometry relative="1" as="geometry">
            <mxPoint as="offset" />
            <mxPoint x="-254" y="-10" as="sourcePoint" />
            <mxPoint x="-274" y="80" as="targetPoint" />
          </mxGeometry>
        </mxCell>
        <mxCell id="a82_juw0TD2ykU31_FT8-80" value="&lt;font style=&quot;font-size: 11px ; font-family: &amp;quot;calibri&amp;quot; ; color: #000000 ; direction: ltr ; letter-spacing: 0px ; line-height: 120% ; opacity: 1&quot;&gt;ESPECIFICA&lt;br&gt;&lt;/font&gt;" style="verticalAlign=middle;align=center;vsdxID=1;fillColor=#FFFFFF;gradientColor=none;shape=stencil(tVLREoIgEPwaHnEQxsl3s/9gEpSJwDko7e+DsEkze2l627vdu5uFRaxyHe8FosR5sCcxqMZ3iO0Rpcp0ApQPCLEasUpaEC3Yi2lS3fOojOhsr3HDmObyMtsVcYqS29Qh5FEfklwrM5OXeUa/yjkcAwfr7TDpiyTfXvjkMR+Vw2A998qaBac5tAKHU1hq3i4oNwjRr9ofvayt/+Rk+yX/4iWA159KpXWKxJx/z0Bopfyw+g4=);dashed=1;strokeColor=#000000;strokeWidth=3;spacingTop=-1;spacingBottom=-1;spacingLeft=-1;spacingRight=-1;labelBackgroundColor=none;rounded=0;html=1;whiteSpace=wrap;" parent="1" vertex="1">
          <mxGeometry x="-322.25" y="-380" width="80" height="30" as="geometry" />
        </mxCell>
        <mxCell id="a82_juw0TD2ykU31_FT8-82" style="vsdxID=57;edgeStyle=none;startArrow=none;endArrow=block;startSize=5;endSize=9;strokeColor=#000000;spacingTop=0;spacingBottom=0;spacingLeft=0;spacingRight=0;verticalAlign=middle;html=1;labelBackgroundColor=#ffffff;rounded=0;" parent="1" source="203xu0XrpAFpmtI-5cuE-42" target="ZhGPCTu5Iyny0ZlqSRic-17" edge="1">
          <mxGeometry relative="1" as="geometry">
            <mxPoint as="offset" />
            <mxPoint x="-474.25000000000045" y="-500" as="sourcePoint" />
            <mxPoint x="-469" y="-390" as="targetPoint" />
          </mxGeometry>
        </mxCell>
        <mxCell id="203xu0XrpAFpmtI-5cuE-1" value="&lt;font style=&quot;font-size: 11px ; font-family: &amp;quot;calibri&amp;quot; ; color: #000000 ; direction: ltr ; letter-spacing: 0px ; line-height: 120% ; opacity: 1&quot;&gt;ENCARCELA&lt;br&gt;&lt;/font&gt;" style="verticalAlign=middle;align=center;vsdxID=1;fillColor=#FFFFFF;gradientColor=none;shape=stencil(tVLREoIgEPwaHnEQxsl3s/9gEpSJwDko7e+DsEkze2l627vdu5uFRaxyHe8FosR5sCcxqMZ3iO0Rpcp0ApQPCLEasUpaEC3Yi2lS3fOojOhsr3HDmObyMtsVcYqS29Qh5FEfklwrM5OXeUa/yjkcAwfr7TDpiyTfXvjkMR+Vw2A998qaBac5tAKHU1hq3i4oNwjRr9ofvayt/+Rk+yX/4iWA159KpXWKxJx/z0Bopfyw+g4=);dashed=1;strokeColor=#000000;strokeWidth=3;spacingTop=-1;spacingBottom=-1;spacingLeft=-1;spacingRight=-1;labelBackgroundColor=none;rounded=0;html=1;whiteSpace=wrap;" parent="1" vertex="1">
          <mxGeometry x="-874" y="-720" width="80" height="30" as="geometry" />
        </mxCell>
        <mxCell id="203xu0XrpAFpmtI-5cuE-2" value="&lt;font style=&quot;font-size: 11px ; font-family: &amp;quot;calibri&amp;quot; ; color: #000000 ; direction: ltr ; letter-spacing: 0px ; line-height: 120% ; opacity: 1&quot;&gt;CORONA&lt;br&gt;&lt;/font&gt;" style="verticalAlign=middle;align=center;vsdxID=1;fillColor=#FFFFFF;gradientColor=none;shape=stencil(tVLREoIgEPwaHnEQxsl3s/9gEpSJwDko7e+DsEkze2l627vdu5uFRaxyHe8FosR5sCcxqMZ3iO0Rpcp0ApQPCLEasUpaEC3Yi2lS3fOojOhsr3HDmObyMtsVcYqS29Qh5FEfklwrM5OXeUa/yjkcAwfr7TDpiyTfXvjkMR+Vw2A998qaBac5tAKHU1hq3i4oNwjRr9ofvayt/+Rk+yX/4iWA159KpXWKxJx/z0Bopfyw+g4=);dashed=1;strokeColor=#000000;strokeWidth=3;spacingTop=-1;spacingBottom=-1;spacingLeft=-1;spacingRight=-1;labelBackgroundColor=none;rounded=0;html=1;whiteSpace=wrap;" parent="1" vertex="1">
          <mxGeometry x="-1122" y="-614" width="80" height="30" as="geometry" />
        </mxCell>
        <mxCell id="203xu0XrpAFpmtI-5cuE-6" style="vsdxID=57;edgeStyle=none;startArrow=none;endArrow=block;startSize=5;endSize=9;strokeColor=#000000;spacingTop=0;spacingBottom=0;spacingLeft=0;spacingRight=0;verticalAlign=middle;html=1;labelBackgroundColor=#ffffff;rounded=0;entryX=0.544;entryY=-0.1;entryDx=0;entryDy=0;entryPerimeter=0;" parent="1" source="ZhGPCTu5Iyny0ZlqSRic-4" target="203xu0XrpAFpmtI-5cuE-2" edge="1">
          <mxGeometry relative="1" as="geometry">
            <mxPoint as="offset" />
            <mxPoint x="-691.5" y="-630" as="sourcePoint" />
            <mxPoint x="-691.5" y="-550" as="targetPoint" />
          </mxGeometry>
        </mxCell>
        <mxCell id="203xu0XrpAFpmtI-5cuE-7" style="vsdxID=57;edgeStyle=none;startArrow=none;endArrow=block;startSize=5;endSize=9;strokeColor=#000000;spacingTop=0;spacingBottom=0;spacingLeft=0;spacingRight=0;verticalAlign=middle;html=1;labelBackgroundColor=#ffffff;rounded=0;entryX=0.019;entryY=0.902;entryDx=0;entryDy=0;entryPerimeter=0;" parent="1" source="ZhGPCTu5Iyny0ZlqSRic-4" target="203xu0XrpAFpmtI-5cuE-1" edge="1">
          <mxGeometry relative="1" as="geometry">
            <mxPoint as="offset" />
            <mxPoint x="-691.5" y="-630" as="sourcePoint" />
            <mxPoint x="-691.5" y="-550" as="targetPoint" />
          </mxGeometry>
        </mxCell>
        <mxCell id="203xu0XrpAFpmtI-5cuE-8" style="vsdxID=57;edgeStyle=none;startArrow=none;endArrow=block;startSize=5;endSize=9;strokeColor=#000000;spacingTop=0;spacingBottom=0;spacingLeft=0;spacingRight=0;verticalAlign=middle;html=1;labelBackgroundColor=#ffffff;rounded=0;" parent="1" source="203xu0XrpAFpmtI-5cuE-1" target="ZhGPCTu5Iyny0ZlqSRic-7" edge="1">
          <mxGeometry relative="1" as="geometry">
            <mxPoint as="offset" />
            <mxPoint x="-714" y="-430" as="sourcePoint" />
            <mxPoint x="-714" y="-350" as="targetPoint" />
          </mxGeometry>
        </mxCell>
        <mxCell id="203xu0XrpAFpmtI-5cuE-9" style="vsdxID=57;edgeStyle=none;startArrow=none;endArrow=block;startSize=5;endSize=9;strokeColor=#000000;spacingTop=0;spacingBottom=0;spacingLeft=0;spacingRight=0;verticalAlign=middle;html=1;labelBackgroundColor=#ffffff;rounded=0;entryX=0.061;entryY=0.942;entryDx=0;entryDy=0;entryPerimeter=0;" parent="1" source="203xu0XrpAFpmtI-5cuE-2" target="ZhGPCTu5Iyny0ZlqSRic-7" edge="1">
          <mxGeometry relative="1" as="geometry">
            <mxPoint as="offset" />
            <mxPoint x="-612" y="-470" as="sourcePoint" />
            <mxPoint x="-674" y="-360" as="targetPoint" />
          </mxGeometry>
        </mxCell>
        <mxCell id="203xu0XrpAFpmtI-5cuE-13" value="&lt;font style=&quot;font-size:11px;font-family:Calibri;color:#000000;direction:ltr;letter-spacing:0px;line-height:120%;opacity:1&quot;&gt;JUGADOR&lt;br&gt;&lt;/font&gt;" style="verticalAlign=middle;align=center;vsdxID=7;fillColor=#FFFFFF;gradientColor=none;shape=stencil(nZBLDoAgDERP0z3SIyjew0SURgSD+Lu9kMZoXLhwN9O+tukAlrNpJg1SzDH4QW/URgNYgZTkjA4UkwJUgGXng+6DX1zLfmoymdXo17xh5zmRJ6Q42BWCfc2oJfdAr+Yv+AP9Cb7OJ3H/2JG1HNGz/84klThPVCc=);strokeColor=#000000;spacingTop=-1;spacingBottom=-1;spacingLeft=-1;spacingRight=-1;labelBackgroundColor=none;rounded=0;html=1;whiteSpace=wrap;" parent="1" vertex="1">
          <mxGeometry x="-969.5" y="-895" width="82" height="30" as="geometry" />
        </mxCell>
        <mxCell id="203xu0XrpAFpmtI-5cuE-14" value="&lt;font style=&quot;font-size:11px;font-family:Calibri;color:#000000;direction:ltr;letter-spacing:0px;line-height:120%;opacity:1&quot;&gt;JUGADOR_INACTIVO&lt;br&gt;&lt;/font&gt;" style="verticalAlign=middle;align=center;vsdxID=7;fillColor=#FFFFFF;gradientColor=none;shape=stencil(nZBLDoAgDERP0z3SIyjew0SURgSD+Lu9kMZoXLhwN9O+tukAlrNpJg1SzDH4QW/URgNYgZTkjA4UkwJUgGXng+6DX1zLfmoymdXo17xh5zmRJ6Q42BWCfc2oJfdAr+Yv+AP9Cb7OJ3H/2JG1HNGz/84klThPVCc=);strokeColor=#000000;spacingTop=-1;spacingBottom=-1;spacingLeft=-1;spacingRight=-1;labelBackgroundColor=none;rounded=0;html=1;whiteSpace=wrap;" parent="1" vertex="1">
          <mxGeometry x="-1155" y="-820" width="102" height="40" as="geometry" />
        </mxCell>
        <mxCell id="203xu0XrpAFpmtI-5cuE-15" value="&lt;font style=&quot;font-size: 11px ; font-family: &amp;quot;calibri&amp;quot; ; color: #000000 ; direction: ltr ; letter-spacing: 0px ; line-height: 120% ; opacity: 1&quot;&gt;ES&lt;br&gt;&lt;/font&gt;" style="verticalAlign=middle;align=center;vsdxID=2;fillColor=#FFFFFF;gradientColor=none;shape=stencil(tVLREoIgEPwaHnEQxsl3s/9gEpSJwDko7e+DsEkze2l627vdu5uFRaxyHe8FosR5sCcxqMZ3iO0Rpcp0ApQPCLEasUpaEC3Yi2lS3fOojOhsr3HDmObyMtsVcYqS29Qh5FEfklwrM5OXeUa/yjkcAwfr7TDpiyTfXvjkMR+Vw2A998qaBac5tAKHU1hq3i4oNwjRr9ofvayt/+Rk+yX/4iWA159KpXWKxJx/z0Bopfyw+g4=);strokeColor=#000000;spacingTop=-1;spacingBottom=-1;spacingLeft=-1;spacingRight=-1;labelBackgroundColor=none;rounded=0;html=1;whiteSpace=wrap;" parent="1" vertex="1">
          <mxGeometry x="-1004" y="-830" width="80" height="30" as="geometry" />
        </mxCell>
        <mxCell id="203xu0XrpAFpmtI-5cuE-17" style="vsdxID=57;edgeStyle=none;startArrow=none;endArrow=block;startSize=5;endSize=9;strokeColor=#000000;spacingTop=0;spacingBottom=0;spacingLeft=0;spacingRight=0;verticalAlign=middle;html=1;labelBackgroundColor=#ffffff;rounded=0;" parent="1" source="203xu0XrpAFpmtI-5cuE-15" target="203xu0XrpAFpmtI-5cuE-14" edge="1">
          <mxGeometry relative="1" as="geometry">
            <mxPoint as="offset" />
            <mxPoint x="-796" y="-850" as="sourcePoint" />
            <mxPoint x="-796" y="-850" as="targetPoint" />
          </mxGeometry>
        </mxCell>
        <mxCell id="203xu0XrpAFpmtI-5cuE-26" style="vsdxID=57;edgeStyle=none;startArrow=none;endArrow=block;startSize=5;endSize=9;strokeColor=#000000;spacingTop=0;spacingBottom=0;spacingLeft=0;spacingRight=0;verticalAlign=middle;html=1;labelBackgroundColor=#ffffff;rounded=0;" parent="1" source="203xu0XrpAFpmtI-5cuE-13" target="203xu0XrpAFpmtI-5cuE-15" edge="1">
          <mxGeometry relative="1" as="geometry">
            <mxPoint as="offset" />
            <mxPoint x="-871" y="-795" as="sourcePoint" />
            <mxPoint x="-791" y="-795" as="targetPoint" />
          </mxGeometry>
        </mxCell>
        <mxCell id="203xu0XrpAFpmtI-5cuE-27" style="vsdxID=57;edgeStyle=none;startArrow=none;endArrow=block;startSize=5;endSize=9;strokeColor=#000000;spacingTop=0;spacingBottom=0;spacingLeft=0;spacingRight=0;verticalAlign=middle;html=1;labelBackgroundColor=#ffffff;rounded=0;" parent="1" source="203xu0XrpAFpmtI-5cuE-15" target="ZhGPCTu5Iyny0ZlqSRic-4" edge="1">
          <mxGeometry relative="1" as="geometry">
            <mxPoint as="offset" />
            <mxPoint x="-769" y="-755" as="sourcePoint" />
            <mxPoint x="-689" y="-755" as="targetPoint" />
          </mxGeometry>
        </mxCell>
        <mxCell id="203xu0XrpAFpmtI-5cuE-28" style="vsdxID=57;edgeStyle=none;startArrow=none;endArrow=block;startSize=5;endSize=9;strokeColor=#000000;spacingTop=0;spacingBottom=0;spacingLeft=0;spacingRight=0;verticalAlign=middle;html=1;labelBackgroundColor=#ffffff;rounded=0;exitX=0.568;exitY=-0.108;exitDx=0;exitDy=0;exitPerimeter=0;" parent="1" source="203xu0XrpAFpmtI-5cuE-47" target="203xu0XrpAFpmtI-5cuE-29" edge="1">
          <mxGeometry relative="1" as="geometry">
            <mxPoint as="offset" />
            <mxPoint x="-784" y="-940" as="sourcePoint" />
            <mxPoint x="-785" y="-920" as="targetPoint" />
          </mxGeometry>
        </mxCell>
        <mxCell id="203xu0XrpAFpmtI-5cuE-29" value="1" style="vsdxID=51;fillColor=#FFFFFF;gradientColor=none;shape=stencil(vVHLDsIgEPwajiQI6RfU+h8bu22JCGRB2/69kG1iazx58DazM/vIjjBtmiCi0CplCjecbZ8nYc5Ca+snJJsLEqYTph0C4Ujh4XvmEaqzont41gkL96naodXKrGF6YSfQtUi0OXXDVlqPfJNP6usotUhYbJIUMmQb/GGrAxpRljVycDBuc1hKM2LclX8/7H9nFfB+82Cd45T2+mcspcSRmu4F);labelBackgroundColor=none;rounded=0;html=1;whiteSpace=wrap;" parent="1" vertex="1">
          <mxGeometry x="-1254" y="-900" width="45" height="40" as="geometry" />
        </mxCell>
        <mxCell id="203xu0XrpAFpmtI-5cuE-31" value="&lt;font style=&quot;font-size: 11px ; font-family: &amp;quot;calibri&amp;quot; ; color: #000000 ; direction: ltr ; letter-spacing: 0px ; line-height: 120% ; opacity: 1&quot;&gt;TIENE&lt;br&gt;&lt;/font&gt;" style="verticalAlign=middle;align=center;vsdxID=2;fillColor=#FFFFFF;gradientColor=none;shape=stencil(tVLREoIgEPwaHnEQxsl3s/9gEpSJwDko7e+DsEkze2l627vdu5uFRaxyHe8FosR5sCcxqMZ3iO0Rpcp0ApQPCLEasUpaEC3Yi2lS3fOojOhsr3HDmObyMtsVcYqS29Qh5FEfklwrM5OXeUa/yjkcAwfr7TDpiyTfXvjkMR+Vw2A998qaBac5tAKHU1hq3i4oNwjRr9ofvayt/+Rk+yX/4iWA159KpXWKxJx/z0Bopfyw+g4=);strokeColor=#000000;spacingTop=-1;spacingBottom=-1;spacingLeft=-1;spacingRight=-1;labelBackgroundColor=none;rounded=0;html=1;whiteSpace=wrap;" parent="1" vertex="1">
          <mxGeometry x="-1204.5" y="-670" width="80" height="30" as="geometry" />
        </mxCell>
        <mxCell id="203xu0XrpAFpmtI-5cuE-32" style="vsdxID=57;edgeStyle=none;startArrow=none;endArrow=block;startSize=5;endSize=9;strokeColor=#000000;spacingTop=0;spacingBottom=0;spacingLeft=0;spacingRight=0;verticalAlign=middle;html=1;labelBackgroundColor=#ffffff;rounded=0;" parent="1" source="ZhGPCTu5Iyny0ZlqSRic-4" target="203xu0XrpAFpmtI-5cuE-31" edge="1">
          <mxGeometry relative="1" as="geometry">
            <mxPoint as="offset" />
            <mxPoint x="-912.89" y="-780" as="sourcePoint" />
            <mxPoint x="-912.89" y="-700" as="targetPoint" />
          </mxGeometry>
        </mxCell>
        <mxCell id="203xu0XrpAFpmtI-5cuE-34" value="5" style="vsdxID=51;fillColor=#FFFFFF;gradientColor=none;shape=stencil(vVHLDsIgEPwajiQI6RfU+h8bu22JCGRB2/69kG1iazx58DazM/vIjjBtmiCi0CplCjecbZ8nYc5Ca+snJJsLEqYTph0C4Ujh4XvmEaqzont41gkL96naodXKrGF6YSfQtUi0OXXDVlqPfJNP6usotUhYbJIUMmQb/GGrAxpRljVycDBuc1hKM2LclX8/7H9nFfB+82Cd45T2+mcspcSRmu4F);labelBackgroundColor=none;rounded=0;html=1;whiteSpace=wrap;" parent="1" vertex="1">
          <mxGeometry x="-1087" y="-1050" width="45" height="40" as="geometry" />
        </mxCell>
        <mxCell id="203xu0XrpAFpmtI-5cuE-35" style="vsdxID=57;edgeStyle=none;startArrow=none;endArrow=block;startSize=5;endSize=9;strokeColor=#000000;spacingTop=0;spacingBottom=0;spacingLeft=0;spacingRight=0;verticalAlign=middle;html=1;labelBackgroundColor=#ffffff;rounded=0;" parent="1" source="203xu0XrpAFpmtI-5cuE-13" target="ZhGPCTu5Iyny0ZlqSRic-6" edge="1">
          <mxGeometry relative="1" as="geometry">
            <mxPoint as="offset" />
            <mxPoint x="-903" y="-730" as="sourcePoint" />
            <mxPoint x="-903" y="-650" as="targetPoint" />
          </mxGeometry>
        </mxCell>
        <mxCell id="203xu0XrpAFpmtI-5cuE-37" value="3" style="vsdxID=51;fillColor=#FFFFFF;gradientColor=none;shape=stencil(vVHLDsIgEPwajiQI6RfU+h8bu22JCGRB2/69kG1iazx58DazM/vIjjBtmiCi0CplCjecbZ8nYc5Ca+snJJsLEqYTph0C4Ujh4XvmEaqzont41gkL96naodXKrGF6YSfQtUi0OXXDVlqPfJNP6usotUhYbJIUMmQb/GGrAxpRljVycDBuc1hKM2LclX8/7H9nFfB+82Cd45T2+mcspcSRmu4F);labelBackgroundColor=none;rounded=0;html=1;whiteSpace=wrap;" parent="1" vertex="1">
          <mxGeometry x="-1181.5" y="-960" width="45" height="40" as="geometry" />
        </mxCell>
        <mxCell id="203xu0XrpAFpmtI-5cuE-38" value="&lt;font style=&quot;font-size: 11px ; font-family: &amp;quot;calibri&amp;quot; ; color: #000000 ; direction: ltr ; letter-spacing: 0px ; line-height: 120% ; opacity: 1&quot;&gt;ESCOGE&lt;br&gt;&lt;/font&gt;" style="verticalAlign=middle;align=center;vsdxID=1;fillColor=#FFFFFF;gradientColor=none;shape=stencil(tVLREoIgEPwaHnEQxsl3s/9gEpSJwDko7e+DsEkze2l627vdu5uFRaxyHe8FosR5sCcxqMZ3iO0Rpcp0ApQPCLEasUpaEC3Yi2lS3fOojOhsr3HDmObyMtsVcYqS29Qh5FEfklwrM5OXeUa/yjkcAwfr7TDpiyTfXvjkMR+Vw2A998qaBac5tAKHU1hq3i4oNwjRr9ofvayt/+Rk+yX/4iWA159KpXWKxJx/z0Bopfyw+g4=);dashed=1;strokeColor=#000000;strokeWidth=3;spacingTop=-1;spacingBottom=-1;spacingLeft=-1;spacingRight=-1;labelBackgroundColor=none;rounded=0;html=1;whiteSpace=wrap;" parent="1" vertex="1">
          <mxGeometry x="-1104.5" y="-895" width="80" height="30" as="geometry" />
        </mxCell>
        <mxCell id="203xu0XrpAFpmtI-5cuE-40" style="vsdxID=57;edgeStyle=none;startArrow=none;endArrow=block;startSize=5;endSize=9;strokeColor=#000000;spacingTop=0;spacingBottom=0;spacingLeft=0;spacingRight=0;verticalAlign=middle;html=1;labelBackgroundColor=#ffffff;rounded=0;" parent="1" source="203xu0XrpAFpmtI-5cuE-38" target="203xu0XrpAFpmtI-5cuE-37" edge="1">
          <mxGeometry relative="1" as="geometry">
            <mxPoint as="offset" />
            <mxPoint x="-1024" y="-870" as="sourcePoint" />
            <mxPoint x="-1024" y="-870" as="targetPoint" />
          </mxGeometry>
        </mxCell>
        <mxCell id="203xu0XrpAFpmtI-5cuE-41" style="vsdxID=57;edgeStyle=none;startArrow=none;endArrow=block;startSize=5;endSize=9;strokeColor=#000000;spacingTop=0;spacingBottom=0;spacingLeft=0;spacingRight=0;verticalAlign=middle;html=1;labelBackgroundColor=#ffffff;rounded=0;" parent="1" source="203xu0XrpAFpmtI-5cuE-38" target="203xu0XrpAFpmtI-5cuE-43" edge="1">
          <mxGeometry relative="1" as="geometry">
            <mxPoint as="offset" />
            <mxPoint x="-1144" y="-775" as="sourcePoint" />
            <mxPoint x="-1144" y="-775" as="targetPoint" />
          </mxGeometry>
        </mxCell>
        <mxCell id="203xu0XrpAFpmtI-5cuE-42" value="3" style="vsdxID=51;fillColor=#FFFFFF;gradientColor=none;shape=stencil(vVHLDsIgEPwajiQI6RfU+h8bu22JCGRB2/69kG1iazx58DazM/vIjjBtmiCi0CplCjecbZ8nYc5Ca+snJJsLEqYTph0C4Ujh4XvmEaqzont41gkL96naodXKrGF6YSfQtUi0OXXDVlqPfJNP6usotUhYbJIUMmQb/GGrAxpRljVycDBuc1hKM2LclX8/7H9nFfB+82Cd45T2+mcspcSRmu4F);labelBackgroundColor=none;rounded=0;html=1;whiteSpace=wrap;" parent="1" vertex="1">
          <mxGeometry x="-260" y="-540" width="45" height="40" as="geometry" />
        </mxCell>
        <mxCell id="203xu0XrpAFpmtI-5cuE-43" value="6" style="vsdxID=51;fillColor=#FFFFFF;gradientColor=none;shape=stencil(vVHLDsIgEPwajiQI6RfU+h8bu22JCGRB2/69kG1iazx58DazM/vIjjBtmiCi0CplCjecbZ8nYc5Ca+snJJsLEqYTph0C4Ujh4XvmEaqzont41gkL96naodXKrGF6YSfQtUi0OXXDVlqPfJNP6usotUhYbJIUMmQb/GGrAxpRljVycDBuc1hKM2LclX8/7H9nFfB+82Cd45T2+mcspcSRmu4F);labelBackgroundColor=none;rounded=0;html=1;whiteSpace=wrap;" parent="1" vertex="1">
          <mxGeometry x="-1189" y="-900" width="45" height="40" as="geometry" />
        </mxCell>
        <mxCell id="203xu0XrpAFpmtI-5cuE-44" value="1" style="vsdxID=51;fillColor=#FFFFFF;gradientColor=none;shape=stencil(vVHLDsIgEPwajiQI6RfU+h8bu22JCGRB2/69kG1iazx58DazM/vIjjBtmiCi0CplCjecbZ8nYc5Ca+snJJsLEqYTph0C4Ujh4XvmEaqzont41gkL96naodXKrGF6YSfQtUi0OXXDVlqPfJNP6usotUhYbJIUMmQb/GGrAxpRljVycDBuc1hKM2LclX8/7H9nFfB+82Cd45T2+mcspcSRmu4F);labelBackgroundColor=none;rounded=0;html=1;whiteSpace=wrap;" parent="1" vertex="1">
          <mxGeometry x="-1609" y="-835" width="45" height="40" as="geometry" />
        </mxCell>
        <mxCell id="203xu0XrpAFpmtI-5cuE-46" style="vsdxID=57;edgeStyle=none;startArrow=none;endArrow=block;startSize=5;endSize=9;strokeColor=#000000;spacingTop=0;spacingBottom=0;spacingLeft=0;spacingRight=0;verticalAlign=middle;html=1;labelBackgroundColor=#ffffff;rounded=0;" parent="1" source="203xu0XrpAFpmtI-5cuE-44" target="ZhGPCTu5Iyny0ZlqSRic-116" edge="1">
          <mxGeometry relative="1" as="geometry">
            <mxPoint as="offset" />
            <mxPoint x="-286" y="-820" as="sourcePoint" />
            <mxPoint x="-286" y="-820" as="targetPoint" />
          </mxGeometry>
        </mxCell>
        <mxCell id="203xu0XrpAFpmtI-5cuE-47" value="&lt;font style=&quot;font-size: 11px ; font-family: &amp;quot;calibri&amp;quot; ; color: #000000 ; direction: ltr ; letter-spacing: 0px ; line-height: 120% ; opacity: 1&quot;&gt;ESPERA&lt;br&gt;&lt;/font&gt;" style="verticalAlign=middle;align=center;vsdxID=1;fillColor=#FFFFFF;gradientColor=none;shape=stencil(tVLREoIgEPwaHnEQxsl3s/9gEpSJwDko7e+DsEkze2l627vdu5uFRaxyHe8FosR5sCcxqMZ3iO0Rpcp0ApQPCLEasUpaEC3Yi2lS3fOojOhsr3HDmObyMtsVcYqS29Qh5FEfklwrM5OXeUa/yjkcAwfr7TDpiyTfXvjkMR+Vw2A998qaBac5tAKHU1hq3i4oNwjRr9ofvayt/+Rk+yX/4iWA159KpXWKxJx/z0Bopfyw+g4=);dashed=1;strokeColor=#000000;strokeWidth=3;spacingTop=-1;spacingBottom=-1;spacingLeft=-1;spacingRight=-1;labelBackgroundColor=none;rounded=0;html=1;whiteSpace=wrap;" parent="1" vertex="1">
          <mxGeometry x="-1274" y="-815" width="80" height="30" as="geometry" />
        </mxCell>
        <mxCell id="203xu0XrpAFpmtI-5cuE-49" style="vsdxID=57;edgeStyle=none;startArrow=none;endArrow=block;startSize=5;endSize=9;strokeColor=#000000;spacingTop=0;spacingBottom=0;spacingLeft=0;spacingRight=0;verticalAlign=middle;html=1;labelBackgroundColor=#ffffff;rounded=0;" parent="1" source="203xu0XrpAFpmtI-5cuE-14" target="203xu0XrpAFpmtI-5cuE-47" edge="1">
          <mxGeometry relative="1" as="geometry">
            <mxPoint as="offset" />
            <mxPoint x="-785" y="-920" as="sourcePoint" />
            <mxPoint x="-785" y="-920" as="targetPoint" />
          </mxGeometry>
        </mxCell>
        <mxCell id="a82_juw0TD2ykU31_FT8-12" style="vsdxID=59;edgeStyle=none;startArrow=none;endArrow=open;startSize=5;endSize=2;strokeWidth=4;strokeColor=#CDCDCD;spacingTop=0;spacingBottom=0;spacingLeft=0;spacingRight=0;verticalAlign=middle;html=1;labelBackgroundColor=#ffffff;rounded=0;" parent="1" source="ZhGPCTu5Iyny0ZlqSRic-178" target="203xu0XrpAFpmtI-5cuE-2" edge="1">
          <mxGeometry relative="1" as="geometry">
            <mxPoint as="offset" />
            <Array as="points" />
            <mxPoint x="-1013.89" y="-280" as="sourcePoint" />
            <mxPoint x="-933.89" y="-280" as="targetPoint" />
          </mxGeometry>
        </mxCell>
        <mxCell id="a82_juw0TD2ykU31_FT8-13" value="SI" style="edgeLabel;html=1;align=center;verticalAlign=middle;resizable=0;points=[];" parent="a82_juw0TD2ykU31_FT8-12" connectable="0" vertex="1">
          <mxGeometry x="0.1117" y="-4" relative="1" as="geometry">
            <mxPoint as="offset" />
          </mxGeometry>
        </mxCell>
        <mxCell id="e6ZOl5odj2JOFOmkNz3M-1" value="4" style="vsdxID=51;fillColor=#FFFFFF;gradientColor=none;shape=stencil(vVHLDsIgEPwajiQI6RfU+h8bu22JCGRB2/69kG1iazx58DazM/vIjjBtmiCi0CplCjecbZ8nYc5Ca+snJJsLEqYTph0C4Ujh4XvmEaqzont41gkL96naodXKrGF6YSfQtUi0OXXDVlqPfJNP6usotUhYbJIUMmQb/GGrAxpRljVycDBuc1hKM2LclX8/7H9nFfB+82Cd45T2+mcspcSRmu4F);labelBackgroundColor=none;rounded=0;html=1;whiteSpace=wrap;" parent="1" vertex="1">
          <mxGeometry x="-1624" y="-790" width="45" height="40" as="geometry" />
        </mxCell>
        <mxCell id="0BtqvbByxqbC6ZA3XULC-1" value="&lt;font style=&quot;font-size: 11px ; font-family: &amp;quot;calibri&amp;quot; ; color: #000000 ; direction: ltr ; letter-spacing: 0px ; line-height: 120% ; opacity: 1&quot;&gt;TIENE&lt;br&gt;&lt;/font&gt;" style="verticalAlign=middle;align=center;vsdxID=2;fillColor=#FFFFFF;gradientColor=none;shape=stencil(tVLREoIgEPwaHnEQxsl3s/9gEpSJwDko7e+DsEkze2l627vdu5uFRaxyHe8FosR5sCcxqMZ3iO0Rpcp0ApQPCLEasUpaEC3Yi2lS3fOojOhsr3HDmObyMtsVcYqS29Qh5FEfklwrM5OXeUa/yjkcAwfr7TDpiyTfXvjkMR+Vw2A998qaBac5tAKHU1hq3i4oNwjRr9ofvayt/+Rk+yX/4iWA159KpXWKxJx/z0Bopfyw+g4=);strokeColor=#000000;spacingTop=-1;spacingBottom=-1;spacingLeft=-1;spacingRight=-1;labelBackgroundColor=none;rounded=0;html=1;whiteSpace=wrap;" parent="1" vertex="1">
          <mxGeometry x="-787.5" y="-280" width="80" height="30" as="geometry" />
        </mxCell>
        <mxCell id="0BtqvbByxqbC6ZA3XULC-2" style="vsdxID=57;edgeStyle=none;startArrow=none;endArrow=block;startSize=5;endSize=9;strokeColor=#000000;spacingTop=0;spacingBottom=0;spacingLeft=0;spacingRight=0;verticalAlign=middle;html=1;labelBackgroundColor=#ffffff;rounded=0;" parent="1" source="ZhGPCTu5Iyny0ZlqSRic-11" target="0BtqvbByxqbC6ZA3XULC-1" edge="1">
          <mxGeometry relative="1" as="geometry">
            <mxPoint as="offset" />
            <mxPoint x="-654.38" y="-16" as="sourcePoint" />
            <mxPoint x="-632.38" y="-60" as="targetPoint" />
          </mxGeometry>
        </mxCell>
        <mxCell id="0BtqvbByxqbC6ZA3XULC-3" style="vsdxID=57;edgeStyle=none;startArrow=none;endArrow=block;startSize=5;endSize=9;strokeColor=#000000;spacingTop=0;spacingBottom=0;spacingLeft=0;spacingRight=0;verticalAlign=middle;html=1;labelBackgroundColor=#ffffff;rounded=0;" parent="1" source="ZhGPCTu5Iyny0ZlqSRic-12" target="0BtqvbByxqbC6ZA3XULC-18" edge="1">
          <mxGeometry relative="1" as="geometry">
            <mxPoint as="offset" />
            <mxPoint x="-687.38" y="-69" as="sourcePoint" />
            <mxPoint x="-639.38" y="-40" as="targetPoint" />
          </mxGeometry>
        </mxCell>
        <mxCell id="0BtqvbByxqbC6ZA3XULC-4" style="vsdxID=57;edgeStyle=none;startArrow=none;endArrow=block;startSize=5;endSize=9;strokeColor=#000000;spacingTop=0;spacingBottom=0;spacingLeft=0;spacingRight=0;verticalAlign=middle;html=1;labelBackgroundColor=#ffffff;rounded=0;" parent="1" source="0BtqvbByxqbC6ZA3XULC-1" target="a82_juw0TD2ykU31_FT8-73" edge="1">
          <mxGeometry relative="1" as="geometry">
            <mxPoint as="offset" />
            <mxPoint x="-677.38" y="-59" as="sourcePoint" />
            <mxPoint x="-613.38" y="-37" as="targetPoint" />
          </mxGeometry>
        </mxCell>
        <mxCell id="0BtqvbByxqbC6ZA3XULC-5" style="vsdxID=57;edgeStyle=none;startArrow=none;endArrow=block;startSize=5;endSize=9;strokeColor=#000000;spacingTop=0;spacingBottom=0;spacingLeft=0;spacingRight=0;verticalAlign=middle;html=1;labelBackgroundColor=#ffffff;rounded=0;" parent="1" source="ZhGPCTu5Iyny0ZlqSRic-21" target="0BtqvbByxqbC6ZA3XULC-6" edge="1">
          <mxGeometry relative="1" as="geometry">
            <mxPoint as="offset" />
            <mxPoint x="-452" y="-69" as="sourcePoint" />
            <mxPoint x="-574" y="-400" as="targetPoint" />
          </mxGeometry>
        </mxCell>
        <mxCell id="0BtqvbByxqbC6ZA3XULC-6" value="7" style="vsdxID=51;fillColor=#FFFFFF;gradientColor=none;shape=stencil(vVHLDsIgEPwajiQI6RfU+h8bu22JCGRB2/69kG1iazx58DazM/vIjjBtmiCi0CplCjecbZ8nYc5Ca+snJJsLEqYTph0C4Ujh4XvmEaqzont41gkL96naodXKrGF6YSfQtUi0OXXDVlqPfJNP6usotUhYbJIUMmQb/GGrAxpRljVycDBuc1hKM2LclX8/7H9nFfB+82Cd45T2+mcspcSRmu4F);labelBackgroundColor=none;rounded=0;html=1;whiteSpace=wrap;" parent="1" vertex="1">
          <mxGeometry x="-408.75" y="-497.5" width="45" height="40" as="geometry" />
        </mxCell>
        <mxCell id="0BtqvbByxqbC6ZA3XULC-7" value="7" style="vsdxID=51;fillColor=#FFFFFF;gradientColor=none;shape=stencil(vVHLDsIgEPwajiQI6RfU+h8bu22JCGRB2/69kG1iazx58DazM/vIjjBtmiCi0CplCjecbZ8nYc5Ca+snJJsLEqYTph0C4Ujh4XvmEaqzont41gkL96naodXKrGF6YSfQtUi0OXXDVlqPfJNP6usotUhYbJIUMmQb/GGrAxpRljVycDBuc1hKM2LclX8/7H9nFfB+82Cd45T2+mcspcSRmu4F);labelBackgroundColor=none;rounded=0;html=1;whiteSpace=wrap;" parent="1" vertex="1">
          <mxGeometry x="-832.5" y="-530" width="45" height="40" as="geometry" />
        </mxCell>
        <mxCell id="0BtqvbByxqbC6ZA3XULC-8" style="vsdxID=57;edgeStyle=none;startArrow=none;endArrow=block;startSize=5;endSize=9;strokeColor=#000000;spacingTop=0;spacingBottom=0;spacingLeft=0;spacingRight=0;verticalAlign=middle;html=1;labelBackgroundColor=#ffffff;rounded=0;" parent="1" source="0BtqvbByxqbC6ZA3XULC-7" target="ZhGPCTu5Iyny0ZlqSRic-11" edge="1">
          <mxGeometry relative="1" as="geometry">
            <mxPoint as="offset" />
            <mxPoint x="-793.13" y="-100" as="sourcePoint" />
            <mxPoint x="-793.13" y="-200" as="targetPoint" />
          </mxGeometry>
        </mxCell>
        <mxCell id="0BtqvbByxqbC6ZA3XULC-9" value="&lt;font style=&quot;font-size:11px;font-family:Calibri;color:#000000;direction:ltr;letter-spacing:0px;line-height:120%;opacity:1&quot;&gt;TIPO&lt;br&gt;&lt;/font&gt;" style="verticalAlign=middle;align=center;vsdxID=7;fillColor=#FFFFFF;gradientColor=none;shape=stencil(nZBLDoAgDERP0z3SIyjew0SURgSD+Lu9kMZoXLhwN9O+tukAlrNpJg1SzDH4QW/URgNYgZTkjA4UkwJUgGXng+6DX1zLfmoymdXo17xh5zmRJ6Q42BWCfc2oJfdAr+Yv+AP9Cb7OJ3H/2JG1HNGz/84klThPVCc=);strokeColor=#000000;spacingTop=-1;spacingBottom=-1;spacingLeft=-1;spacingRight=-1;labelBackgroundColor=none;rounded=0;html=1;whiteSpace=wrap;" parent="1" vertex="1">
          <mxGeometry x="-466.25" y="-105" width="82" height="30" as="geometry" />
        </mxCell>
        <mxCell id="0BtqvbByxqbC6ZA3XULC-12" value="&lt;font style=&quot;font-size: 11px ; font-family: &amp;quot;calibri&amp;quot; ; color: #000000 ; direction: ltr ; letter-spacing: 0px ; line-height: 120% ; opacity: 1&quot;&gt;ES&lt;br&gt;&lt;/font&gt;" style="verticalAlign=middle;align=center;vsdxID=2;fillColor=#FFFFFF;gradientColor=none;shape=stencil(tVLREoIgEPwaHnEQxsl3s/9gEpSJwDko7e+DsEkze2l627vdu5uFRaxyHe8FosR5sCcxqMZ3iO0Rpcp0ApQPCLEasUpaEC3Yi2lS3fOojOhsr3HDmObyMtsVcYqS29Qh5FEfklwrM5OXeUa/yjkcAwfr7TDpiyTfXvjkMR+Vw2A998qaBac5tAKHU1hq3i4oNwjRr9ofvayt/+Rk+yX/4iWA159KpXWKxJx/z0Bopfyw+g4=);strokeColor=#000000;spacingTop=-1;spacingBottom=-1;spacingLeft=-1;spacingRight=-1;labelBackgroundColor=none;rounded=0;html=1;whiteSpace=wrap;" parent="1" vertex="1">
          <mxGeometry x="-640.5" y="-105" width="80" height="30" as="geometry" />
        </mxCell>
        <mxCell id="0BtqvbByxqbC6ZA3XULC-13" style="vsdxID=57;edgeStyle=none;startArrow=none;endArrow=block;startSize=5;endSize=9;strokeColor=#000000;spacingTop=0;spacingBottom=0;spacingLeft=0;spacingRight=0;verticalAlign=middle;html=1;labelBackgroundColor=#ffffff;rounded=0;" parent="1" source="0BtqvbByxqbC6ZA3XULC-9" target="0BtqvbByxqbC6ZA3XULC-12" edge="1">
          <mxGeometry relative="1" as="geometry">
            <mxPoint as="offset" />
            <mxPoint x="-614.38" y="248" as="sourcePoint" />
            <mxPoint x="-687.38" y="248" as="targetPoint" />
          </mxGeometry>
        </mxCell>
        <mxCell id="0BtqvbByxqbC6ZA3XULC-14" style="vsdxID=57;edgeStyle=none;startArrow=none;endArrow=block;startSize=5;endSize=9;strokeColor=#000000;spacingTop=0;spacingBottom=0;spacingLeft=0;spacingRight=0;verticalAlign=middle;html=1;labelBackgroundColor=#ffffff;rounded=0;" parent="1" source="0BtqvbByxqbC6ZA3XULC-12" target="3d_Hws1QxchP5DV1Z6rh-8" edge="1">
          <mxGeometry relative="1" as="geometry">
            <mxPoint as="offset" />
            <mxPoint x="-158.75" y="-32" as="sourcePoint" />
            <mxPoint x="-231.75" y="-32" as="targetPoint" />
          </mxGeometry>
        </mxCell>
        <mxCell id="0BtqvbByxqbC6ZA3XULC-15" style="vsdxID=57;edgeStyle=none;startArrow=none;endArrow=block;startSize=5;endSize=9;strokeColor=#000000;spacingTop=0;spacingBottom=0;spacingLeft=0;spacingRight=0;verticalAlign=middle;html=1;labelBackgroundColor=#ffffff;rounded=0;" parent="1" source="0BtqvbByxqbC6ZA3XULC-12" target="3d_Hws1QxchP5DV1Z6rh-6" edge="1">
          <mxGeometry relative="1" as="geometry">
            <mxPoint as="offset" />
            <mxPoint x="-148.75" y="-22" as="sourcePoint" />
            <mxPoint x="-221.75" y="-22" as="targetPoint" />
          </mxGeometry>
        </mxCell>
        <mxCell id="0BtqvbByxqbC6ZA3XULC-17" style="vsdxID=57;edgeStyle=none;startArrow=none;endArrow=block;startSize=5;endSize=9;strokeColor=#000000;spacingTop=0;spacingBottom=0;spacingLeft=0;spacingRight=0;verticalAlign=middle;html=1;labelBackgroundColor=#ffffff;rounded=0;" parent="1" source="0BtqvbByxqbC6ZA3XULC-12" target="DCNwNrw-yuZkW3MHIDjY-22" edge="1">
          <mxGeometry relative="1" as="geometry">
            <mxPoint as="offset" />
            <mxPoint x="-128.75" y="-2" as="sourcePoint" />
            <mxPoint x="-201.75" y="-2" as="targetPoint" />
          </mxGeometry>
        </mxCell>
        <mxCell id="0BtqvbByxqbC6ZA3XULC-18" value="&lt;font style=&quot;font-size: 11px ; font-family: &amp;quot;calibri&amp;quot; ; color: #000000 ; direction: ltr ; letter-spacing: 0px ; line-height: 120% ; opacity: 1&quot;&gt;TIENE&lt;br&gt;&lt;/font&gt;" style="verticalAlign=middle;align=center;vsdxID=2;fillColor=#FFFFFF;gradientColor=none;shape=stencil(tVLREoIgEPwaHnEQxsl3s/9gEpSJwDko7e+DsEkze2l627vdu5uFRaxyHe8FosR5sCcxqMZ3iO0Rpcp0ApQPCLEasUpaEC3Yi2lS3fOojOhsr3HDmObyMtsVcYqS29Qh5FEfklwrM5OXeUa/yjkcAwfr7TDpiyTfXvjkMR+Vw2A998qaBac5tAKHU1hq3i4oNwjRr9ofvayt/+Rk+yX/4iWA159KpXWKxJx/z0Bopfyw+g4=);strokeColor=#000000;spacingTop=-1;spacingBottom=-1;spacingLeft=-1;spacingRight=-1;labelBackgroundColor=none;rounded=0;html=1;whiteSpace=wrap;" parent="1" vertex="1">
          <mxGeometry x="-583" y="-220" width="80" height="30" as="geometry" />
        </mxCell>
        <mxCell id="0BtqvbByxqbC6ZA3XULC-21" style="vsdxID=57;edgeStyle=none;startArrow=none;endArrow=block;startSize=5;endSize=9;strokeColor=#000000;spacingTop=0;spacingBottom=0;spacingLeft=0;spacingRight=0;verticalAlign=middle;html=1;labelBackgroundColor=#ffffff;rounded=0;" parent="1" source="0BtqvbByxqbC6ZA3XULC-18" target="a82_juw0TD2ykU31_FT8-73" edge="1">
          <mxGeometry relative="1" as="geometry">
            <mxPoint as="offset" />
            <mxPoint x="-614.38" y="-91" as="sourcePoint" />
            <mxPoint x="-554.38" y="-70" as="targetPoint" />
          </mxGeometry>
        </mxCell>
        <mxCell id="0BtqvbByxqbC6ZA3XULC-22" style="vsdxID=57;edgeStyle=none;startArrow=none;endArrow=block;startSize=5;endSize=9;strokeColor=#000000;spacingTop=0;spacingBottom=0;spacingLeft=0;spacingRight=0;verticalAlign=middle;html=1;labelBackgroundColor=#ffffff;rounded=0;" parent="1" source="0BtqvbByxqbC6ZA3XULC-1" target="0BtqvbByxqbC6ZA3XULC-24" edge="1">
          <mxGeometry relative="1" as="geometry">
            <mxPoint as="offset" />
            <mxPoint x="-604.38" y="-81" as="sourcePoint" />
            <mxPoint x="-544.38" y="-60" as="targetPoint" />
          </mxGeometry>
        </mxCell>
        <mxCell id="0BtqvbByxqbC6ZA3XULC-24" value="9" style="vsdxID=51;fillColor=#FFFFFF;gradientColor=none;shape=stencil(vVHLDsIgEPwajiQI6RfU+h8bu22JCGRB2/69kG1iazx58DazM/vIjjBtmiCi0CplCjecbZ8nYc5Ca+snJJsLEqYTph0C4Ujh4XvmEaqzont41gkL96naodXKrGF6YSfQtUi0OXXDVlqPfJNP6usotUhYbJIUMmQb/GGrAxpRljVycDBuc1hKM2LclX8/7H9nFfB+82Cd45T2+mcspcSRmu4F);labelBackgroundColor=none;rounded=0;html=1;whiteSpace=wrap;" parent="1" vertex="1">
          <mxGeometry x="-764.63" y="-400" width="45" height="40" as="geometry" />
        </mxCell>
        <mxCell id="0BtqvbByxqbC6ZA3XULC-25" value="9" style="vsdxID=51;fillColor=#FFFFFF;gradientColor=none;shape=stencil(vVHLDsIgEPwajiQI6RfU+h8bu22JCGRB2/69kG1iazx58DazM/vIjjBtmiCi0CplCjecbZ8nYc5Ca+snJJsLEqYTph0C4Ujh4XvmEaqzont41gkL96naodXKrGF6YSfQtUi0OXXDVlqPfJNP6usotUhYbJIUMmQb/GGrAxpRljVycDBuc1hKM2LclX8/7H9nFfB+82Cd45T2+mcspcSRmu4F);labelBackgroundColor=none;rounded=0;html=1;whiteSpace=wrap;" parent="1" vertex="1">
          <mxGeometry x="-859" y="-105" width="45" height="40" as="geometry" />
        </mxCell>
        <mxCell id="0BtqvbByxqbC6ZA3XULC-26" style="vsdxID=57;edgeStyle=none;startArrow=none;endArrow=block;startSize=5;endSize=9;strokeColor=#000000;spacingTop=0;spacingBottom=0;spacingLeft=0;spacingRight=0;verticalAlign=middle;html=1;labelBackgroundColor=#ffffff;rounded=0;" parent="1" source="0BtqvbByxqbC6ZA3XULC-25" target="3d_Hws1QxchP5DV1Z6rh-6" edge="1">
          <mxGeometry relative="1" as="geometry">
            <mxPoint as="offset" />
            <mxPoint x="-336.75" y="-71" as="sourcePoint" />
            <mxPoint x="-383.75" y="-80" as="targetPoint" />
          </mxGeometry>
        </mxCell>
        <mxCell id="A6ZcCyZVLG_3UMEJ_GDC-1" value="&lt;font style=&quot;font-size:11px;font-family:Calibri;color:#000000;direction:ltr;letter-spacing:0px;line-height:120%;opacity:1&quot;&gt;ORDEN&lt;br&gt;&lt;/font&gt;" style="verticalAlign=middle;align=center;vsdxID=7;shape=stencil(nZBLDoAgDERP0z3SIyjew0SURgSD+Lu9kMZoXLhwN9O+tukAlrNpJg1SzDH4QW/URgNYgZTkjA4UkwJUgGXng+6DX1zLfmoymdXo17xh5zmRJ6Q42BWCfc2oJfdAr+Yv+AP9Cb7OJ3H/2JG1HNGz/84klThPVCc=);spacingTop=-1;spacingBottom=-1;spacingLeft=-1;spacingRight=-1;labelBackgroundColor=none;rounded=0;html=1;whiteSpace=wrap;" parent="1" vertex="1">
          <mxGeometry x="-526.75" y="-990" width="82" height="30" as="geometry" />
        </mxCell>
        <mxCell id="A6ZcCyZVLG_3UMEJ_GDC-4" value="&lt;font style=&quot;font-size:11px;font-family:Calibri;color:#000000;direction:ltr;letter-spacing:0px;line-height:120%;opacity:1&quot;&gt;PARTIDA&lt;br&gt;&lt;/font&gt;" style="verticalAlign=middle;align=center;vsdxID=7;shape=stencil(nZBLDoAgDERP0z3SIyjew0SURgSD+Lu9kMZoXLhwN9O+tukAlrNpJg1SzDH4QW/URgNYgZTkjA4UkwJUgGXng+6DX1zLfmoymdXo17xh5zmRJ6Q42BWCfc2oJfdAr+Yv+AP9Cb7OJ3H/2JG1HNGz/84klThPVCc=);spacingTop=-1;spacingBottom=-1;spacingLeft=-1;spacingRight=-1;labelBackgroundColor=none;rounded=0;html=1;whiteSpace=wrap;" parent="1" vertex="1">
          <mxGeometry x="-832.5" y="-1000" width="82" height="30" as="geometry" />
        </mxCell>
        <mxCell id="t8Utz6IQ3dCh28kGkk3Y-1" value="&lt;font style=&quot;font-size:11px;font-family:Calibri;color:#000000;direction:ltr;letter-spacing:0px;line-height:120%;opacity:1&quot;&gt;ESCALERA&lt;br&gt;&lt;/font&gt;" style="verticalAlign=middle;align=center;vsdxID=7;shape=stencil(nZBLDoAgDERP0z3SIyjew0SURgSD+Lu9kMZoXLhwN9O+tukAlrNpJg1SzDH4QW/URgNYgZTkjA4UkwJUgGXng+6DX1zLfmoymdXo17xh5zmRJ6Q42BWCfc2oJfdAr+Yv+AP9Cb7OJ3H/2JG1HNGz/84klThPVCc=);spacingTop=-1;spacingBottom=-1;spacingLeft=-1;spacingRight=-1;labelBackgroundColor=none;rounded=0;html=1;whiteSpace=wrap;" parent="1" vertex="1">
          <mxGeometry x="-748.63" y="-50" width="70" height="35" as="geometry" />
        </mxCell>
        <mxCell id="t8Utz6IQ3dCh28kGkk3Y-2" value="&lt;font style=&quot;font-size:11px;font-family:Calibri;color:#000000;direction:ltr;letter-spacing:0px;line-height:120%;opacity:1&quot;&gt;TIRADA&lt;br&gt;&lt;/font&gt;" style="verticalAlign=middle;align=center;vsdxID=7;shape=stencil(nZBLDoAgDERP0z3SIyjew0SURgSD+Lu9kMZoXLhwN9O+tukAlrNpJg1SzDH4QW/URgNYgZTkjA4UkwJUgGXng+6DX1zLfmoymdXo17xh5zmRJ6Q42BWCfc2oJfdAr+Yv+AP9Cb7OJ3H/2JG1HNGz/84klThPVCc=);spacingTop=-1;spacingBottom=-1;spacingLeft=-1;spacingRight=-1;labelBackgroundColor=none;rounded=0;html=1;whiteSpace=wrap;" parent="1" vertex="1">
          <mxGeometry x="-551.25" y="-940" width="82" height="30" as="geometry" />
        </mxCell>
        <mxCell id="t8Utz6IQ3dCh28kGkk3Y-3" value="&lt;font style=&quot;font-size: 11px ; font-family: &amp;quot;calibri&amp;quot; ; color: #000000 ; direction: ltr ; letter-spacing: 0px ; line-height: 120% ; opacity: 1&quot;&gt;SALE&lt;br&gt;&lt;/font&gt;" style="verticalAlign=middle;align=center;vsdxID=1;shape=stencil(tVLREoIgEPwaHnEQxsl3s/9gEpSJwDko7e+DsEkze2l627vdu5uFRaxyHe8FosR5sCcxqMZ3iO0Rpcp0ApQPCLEasUpaEC3Yi2lS3fOojOhsr3HDmObyMtsVcYqS29Qh5FEfklwrM5OXeUa/yjkcAwfr7TDpiyTfXvjkMR+Vw2A998qaBac5tAKHU1hq3i4oNwjRr9ofvayt/+Rk+yX/4iWA159KpXWKxJx/z0Bopfyw+g4=);dashed=1;strokeWidth=3;spacingTop=-1;spacingBottom=-1;spacingLeft=-1;spacingRight=-1;labelBackgroundColor=none;rounded=0;html=1;whiteSpace=wrap;" parent="1" vertex="1">
          <mxGeometry x="-746" y="-700" width="80" height="30" as="geometry" />
        </mxCell>
        <mxCell id="t8Utz6IQ3dCh28kGkk3Y-4" style="vsdxID=57;edgeStyle=none;startArrow=none;endArrow=block;startSize=5;endSize=9;strokeColor=#000000;spacingTop=0;spacingBottom=0;spacingLeft=0;spacingRight=0;verticalAlign=middle;html=1;labelBackgroundColor=#ffffff;rounded=0;" parent="1" source="ZhGPCTu5Iyny0ZlqSRic-7" target="t8Utz6IQ3dCh28kGkk3Y-3" edge="1">
          <mxGeometry relative="1" as="geometry">
            <mxPoint as="offset" />
            <mxPoint x="-736" y="-555" as="sourcePoint" />
            <mxPoint x="-681" y="-445" as="targetPoint" />
          </mxGeometry>
        </mxCell>
        <mxCell id="msJrzLMMD_ussxu2mwYU-1" style="vsdxID=57;edgeStyle=none;startArrow=none;endArrow=block;startSize=5;endSize=9;strokeColor=#000000;spacingTop=0;spacingBottom=0;spacingLeft=0;spacingRight=0;verticalAlign=middle;html=1;labelBackgroundColor=#ffffff;rounded=0;" parent="1" source="ZhGPCTu5Iyny0ZlqSRic-6" target="A6ZcCyZVLG_3UMEJ_GDC-1" edge="1">
          <mxGeometry relative="1" as="geometry">
            <mxPoint as="offset" />
            <mxPoint x="-510.12" y="-737.9328165374677" as="sourcePoint" />
            <mxPoint x="-560.62" y="-645" as="targetPoint" />
          </mxGeometry>
        </mxCell>
        <mxCell id="CULUh0v67lgrJKuAHWb2-1" style="vsdxID=57;edgeStyle=none;startArrow=none;endArrow=block;startSize=5;endSize=9;strokeColor=#000000;spacingTop=0;spacingBottom=0;spacingLeft=0;spacingRight=0;verticalAlign=middle;html=1;labelBackgroundColor=#ffffff;rounded=0;" parent="1" source="0BtqvbByxqbC6ZA3XULC-12" target="t8Utz6IQ3dCh28kGkk3Y-1" edge="1">
          <mxGeometry relative="1" as="geometry">
            <mxPoint as="offset" />
            <mxPoint x="-303.75" y="-190" as="sourcePoint" />
            <mxPoint x="-247.75" y="-240" as="targetPoint" />
          </mxGeometry>
        </mxCell>
        <mxCell id="CULUh0v67lgrJKuAHWb2-3" style="vsdxID=57;edgeStyle=none;startArrow=none;endArrow=block;startSize=5;endSize=9;strokeColor=#000000;spacingTop=0;spacingBottom=0;spacingLeft=0;spacingRight=0;verticalAlign=middle;html=1;labelBackgroundColor=#ffffff;rounded=0;" parent="1" source="ZhGPCTu5Iyny0ZlqSRic-21" target="ZhGPCTu5Iyny0ZlqSRic-11" edge="1">
          <mxGeometry relative="1" as="geometry">
            <mxPoint as="offset" />
            <mxPoint x="-546.2303921568628" y="-160" as="sourcePoint" />
            <mxPoint x="-500" y="-260" as="targetPoint" />
          </mxGeometry>
        </mxCell>
        <mxCell id="CULUh0v67lgrJKuAHWb2-8" style="vsdxID=57;edgeStyle=none;startArrow=none;endArrow=block;startSize=5;endSize=9;strokeColor=#000000;spacingTop=0;spacingBottom=0;spacingLeft=0;spacingRight=0;verticalAlign=middle;html=1;labelBackgroundColor=#ffffff;rounded=0;" parent="1" source="ZhGPCTu5Iyny0ZlqSRic-104" target="CULUh0v67lgrJKuAHWb2-9" edge="1">
          <mxGeometry relative="1" as="geometry">
            <mxPoint as="offset" />
            <mxPoint x="-952.38" y="-160" as="sourcePoint" />
            <mxPoint x="-949.38" y="-130" as="targetPoint" />
          </mxGeometry>
        </mxCell>
        <mxCell id="CULUh0v67lgrJKuAHWb2-9" value="&lt;font style=&quot;font-size:11px;font-family:Calibri;color:#000000;direction:ltr;letter-spacing:0px;line-height:120%;opacity:1&quot;&gt;VIVO&lt;br&gt;&lt;/font&gt;" style="verticalAlign=middle;align=center;vsdxID=7;fillColor=#FFFFFF;gradientColor=none;shape=stencil(nZBLDoAgDERP0z3SIyjew0SURgSD+Lu9kMZoXLhwN9O+tukAlrNpJg1SzDH4QW/URgNYgZTkjA4UkwJUgGXng+6DX1zLfmoymdXo17xh5zmRJ6Q42BWCfc2oJfdAr+Yv+AP9Cb7OJ3H/2JG1HNGz/84klThPVCc=);strokeColor=#000000;spacingTop=-1;spacingBottom=-1;spacingLeft=-1;spacingRight=-1;labelBackgroundColor=none;rounded=0;html=1;whiteSpace=wrap;" parent="1" vertex="1">
          <mxGeometry x="-678.63" y="-417.5" width="82" height="30" as="geometry" />
        </mxCell>
        <mxCell id="CULUh0v67lgrJKuAHWb2-10" style="vsdxID=57;edgeStyle=none;startArrow=none;endArrow=block;startSize=5;endSize=9;strokeColor=#000000;spacingTop=0;spacingBottom=0;spacingLeft=0;spacingRight=0;verticalAlign=middle;html=1;labelBackgroundColor=#ffffff;rounded=0;" parent="1" source="ZhGPCTu5Iyny0ZlqSRic-21" target="CULUh0v67lgrJKuAHWb2-11" edge="1">
          <mxGeometry relative="1" as="geometry">
            <mxPoint as="offset" />
            <mxPoint x="-569" y="-290" as="sourcePoint" />
            <mxPoint x="-534" y="-200" as="targetPoint" />
          </mxGeometry>
        </mxCell>
        <mxCell id="CULUh0v67lgrJKuAHWb2-11" value="10" style="vsdxID=51;fillColor=#FFFFFF;gradientColor=none;shape=stencil(vVHLDsIgEPwajiQI6RfU+h8bu22JCGRB2/69kG1iazx58DazM/vIjjBtmiCi0CplCjecbZ8nYc5Ca+snJJsLEqYTph0C4Ujh4XvmEaqzont41gkL96naodXKrGF6YSfQtUi0OXXDVlqPfJNP6usotUhYbJIUMmQb/GGrAxpRljVycDBuc1hKM2LclX8/7H9nFfB+82Cd45T2+mcspcSRmu4F);labelBackgroundColor=none;rounded=0;html=1;whiteSpace=wrap;" parent="1" vertex="1">
          <mxGeometry x="-391.25" y="-583" width="45" height="40" as="geometry" />
        </mxCell>
        <mxCell id="CULUh0v67lgrJKuAHWb2-15" value="10" style="vsdxID=51;fillColor=#FFFFFF;gradientColor=none;shape=stencil(vVHLDsIgEPwajiQI6RfU+h8bu22JCGRB2/69kG1iazx58DazM/vIjjBtmiCi0CplCjecbZ8nYc5Ca+snJJsLEqYTph0C4Ujh4XvmEaqzont41gkL96naodXKrGF6YSfQtUi0OXXDVlqPfJNP6usotUhYbJIUMmQb/GGrAxpRljVycDBuc1hKM2LclX8/7H9nFfB+82Cd45T2+mcspcSRmu4F);labelBackgroundColor=none;rounded=0;html=1;whiteSpace=wrap;" parent="1" vertex="1">
          <mxGeometry x="-851" y="-50" width="45" height="40" as="geometry" />
        </mxCell>
        <mxCell id="CULUh0v67lgrJKuAHWb2-16" style="vsdxID=57;edgeStyle=none;startArrow=none;endArrow=block;startSize=5;endSize=9;strokeColor=#000000;spacingTop=0;spacingBottom=0;spacingLeft=0;spacingRight=0;verticalAlign=middle;html=1;labelBackgroundColor=#ffffff;rounded=0;" parent="1" source="CULUh0v67lgrJKuAHWb2-15" target="t8Utz6IQ3dCh28kGkk3Y-1" edge="1">
          <mxGeometry relative="1" as="geometry">
            <mxPoint as="offset" />
            <mxPoint x="-513.75" y="-13" as="sourcePoint" />
            <mxPoint x="-443.75" y="-21" as="targetPoint" />
          </mxGeometry>
        </mxCell>
        <mxCell id="CULUh0v67lgrJKuAHWb2-18" style="vsdxID=57;edgeStyle=none;startArrow=none;endArrow=block;startSize=5;endSize=9;strokeColor=#000000;spacingTop=0;spacingBottom=0;spacingLeft=0;spacingRight=0;verticalAlign=middle;html=1;labelBackgroundColor=#ffffff;rounded=0;" parent="1" source="t8Utz6IQ3dCh28kGkk3Y-3" target="CULUh0v67lgrJKuAHWb2-19" edge="1">
          <mxGeometry relative="1" as="geometry">
            <mxPoint as="offset" />
            <mxPoint x="-714" y="-418" as="sourcePoint" />
            <mxPoint x="-764" y="-340" as="targetPoint" />
          </mxGeometry>
        </mxCell>
        <mxCell id="CULUh0v67lgrJKuAHWb2-19" value="11" style="vsdxID=51;fillColor=#FFFFFF;gradientColor=none;shape=stencil(vVHLDsIgEPwajiQI6RfU+h8bu22JCGRB2/69kG1iazx58DazM/vIjjBtmiCi0CplCjecbZ8nYc5Ca+snJJsLEqYTph0C4Ujh4XvmEaqzont41gkL96naodXKrGF6YSfQtUi0OXXDVlqPfJNP6usotUhYbJIUMmQb/GGrAxpRljVycDBuc1hKM2LclX8/7H9nFfB+82Cd45T2+mcspcSRmu4F);labelBackgroundColor=none;rounded=0;html=1;whiteSpace=wrap;" parent="1" vertex="1">
          <mxGeometry x="-728.5" y="-780" width="45" height="40" as="geometry" />
        </mxCell>
        <mxCell id="CULUh0v67lgrJKuAHWb2-21" value="11" style="vsdxID=51;fillColor=#FFFFFF;gradientColor=none;shape=stencil(vVHLDsIgEPwajiQI6RfU+h8bu22JCGRB2/69kG1iazx58DazM/vIjjBtmiCi0CplCjecbZ8nYc5Ca+snJJsLEqYTph0C4Ujh4XvmEaqzont41gkL96naodXKrGF6YSfQtUi0OXXDVlqPfJNP6usotUhYbJIUMmQb/GGrAxpRljVycDBuc1hKM2LclX8/7H9nFfB+82Cd45T2+mcspcSRmu4F);labelBackgroundColor=none;rounded=0;html=1;whiteSpace=wrap;" parent="1" vertex="1">
          <mxGeometry x="-932.5" y="-450" width="45" height="40" as="geometry" />
        </mxCell>
        <mxCell id="CULUh0v67lgrJKuAHWb2-22" style="vsdxID=57;edgeStyle=none;startArrow=none;endArrow=block;startSize=5;endSize=9;strokeColor=#000000;spacingTop=0;spacingBottom=0;spacingLeft=0;spacingRight=0;verticalAlign=middle;html=1;labelBackgroundColor=#ffffff;rounded=0;" parent="1" source="CULUh0v67lgrJKuAHWb2-21" target="ZhGPCTu5Iyny0ZlqSRic-11" edge="1">
          <mxGeometry relative="1" as="geometry">
            <mxPoint as="offset" />
            <mxPoint x="-796.38" y="-90" as="sourcePoint" />
            <mxPoint x="-751.38" y="-40" as="targetPoint" />
          </mxGeometry>
        </mxCell>
        <mxCell id="CULUh0v67lgrJKuAHWb2-23" style="vsdxID=57;edgeStyle=none;startArrow=none;endArrow=block;startSize=5;endSize=9;strokeColor=#000000;spacingTop=0;spacingBottom=0;spacingLeft=0;spacingRight=0;verticalAlign=middle;html=1;labelBackgroundColor=#ffffff;rounded=0;" parent="1" source="ZhGPCTu5Iyny0ZlqSRic-6" target="t8Utz6IQ3dCh28kGkk3Y-2" edge="1">
          <mxGeometry relative="1" as="geometry">
            <mxPoint as="offset" />
            <mxPoint x="-510.12" y="-746.25" as="sourcePoint" />
            <mxPoint x="-539.62" y="-760" as="targetPoint" />
          </mxGeometry>
        </mxCell>
        <mxCell id="CULUh0v67lgrJKuAHWb2-24" style="vsdxID=57;edgeStyle=none;startArrow=none;endArrow=block;startSize=5;endSize=9;strokeColor=#000000;spacingTop=0;spacingBottom=0;spacingLeft=0;spacingRight=0;verticalAlign=middle;html=1;labelBackgroundColor=#ffffff;rounded=0;" parent="1" source="A6ZcCyZVLG_3UMEJ_GDC-4" target="CULUh0v67lgrJKuAHWb2-25" edge="1">
          <mxGeometry relative="1" as="geometry">
            <mxPoint as="offset" />
            <mxPoint x="-691" y="90" as="sourcePoint" />
            <mxPoint x="-824" y="140" as="targetPoint" />
          </mxGeometry>
        </mxCell>
        <mxCell id="CULUh0v67lgrJKuAHWb2-25" value="&lt;font style=&quot;font-size: 11px ; font-family: &amp;quot;calibri&amp;quot; ; color: #000000 ; direction: ltr ; letter-spacing: 0px ; line-height: 120% ; opacity: 1&quot;&gt;TIENE&lt;br&gt;&lt;/font&gt;" style="verticalAlign=middle;align=center;vsdxID=2;fillColor=#FFFFFF;gradientColor=none;shape=stencil(tVLREoIgEPwaHnEQxsl3s/9gEpSJwDko7e+DsEkze2l627vdu5uFRaxyHe8FosR5sCcxqMZ3iO0Rpcp0ApQPCLEasUpaEC3Yi2lS3fOojOhsr3HDmObyMtsVcYqS29Qh5FEfklwrM5OXeUa/yjkcAwfr7TDpiyTfXvjkMR+Vw2A998qaBac5tAKHU1hq3i4oNwjRr9ofvayt/+Rk+yX/4iWA159KpXWKxJx/z0Bopfyw+g4=);strokeColor=#000000;spacingTop=-1;spacingBottom=-1;spacingLeft=-1;spacingRight=-1;labelBackgroundColor=none;rounded=0;html=1;whiteSpace=wrap;" parent="1" vertex="1">
          <mxGeometry x="-824" y="-1050" width="80" height="30" as="geometry" />
        </mxCell>
        <mxCell id="CULUh0v67lgrJKuAHWb2-26" value="12" style="vsdxID=51;fillColor=#FFFFFF;gradientColor=none;shape=stencil(vVHLDsIgEPwajiQI6RfU+h8bu22JCGRB2/69kG1iazx58DazM/vIjjBtmiCi0CplCjecbZ8nYc5Ca+snJJsLEqYTph0C4Ujh4XvmEaqzont41gkL96naodXKrGF6YSfQtUi0OXXDVlqPfJNP6usotUhYbJIUMmQb/GGrAxpRljVycDBuc1hKM2LclX8/7H9nFfB+82Cd45T2+mcspcSRmu4F);labelBackgroundColor=none;rounded=0;html=1;whiteSpace=wrap;" parent="1" vertex="1">
          <mxGeometry x="-951" y="-1055" width="45" height="40" as="geometry" />
        </mxCell>
        <mxCell id="CULUh0v67lgrJKuAHWb2-27" style="vsdxID=57;edgeStyle=none;startArrow=none;endArrow=block;startSize=5;endSize=9;strokeColor=#000000;spacingTop=0;spacingBottom=0;spacingLeft=0;spacingRight=0;verticalAlign=middle;html=1;labelBackgroundColor=#ffffff;rounded=0;" parent="1" source="CULUh0v67lgrJKuAHWb2-25" target="CULUh0v67lgrJKuAHWb2-26" edge="1">
          <mxGeometry relative="1" as="geometry">
            <mxPoint as="offset" />
            <mxPoint x="-1271" y="-378" as="sourcePoint" />
            <mxPoint x="-854" y="-1070" as="targetPoint" />
          </mxGeometry>
        </mxCell>
        <mxCell id="CULUh0v67lgrJKuAHWb2-28" value="&lt;font style=&quot;font-size: 11px ; font-family: &amp;quot;calibri&amp;quot; ; color: #000000 ; direction: ltr ; letter-spacing: 0px ; line-height: 120% ; opacity: 1&quot;&gt;DESARROLLA&lt;br&gt;&lt;/font&gt;" style="verticalAlign=middle;align=center;vsdxID=1;fillColor=#FFFFFF;gradientColor=none;shape=stencil(tVLREoIgEPwaHnEQxsl3s/9gEpSJwDko7e+DsEkze2l627vdu5uFRaxyHe8FosR5sCcxqMZ3iO0Rpcp0ApQPCLEasUpaEC3Yi2lS3fOojOhsr3HDmObyMtsVcYqS29Qh5FEfklwrM5OXeUa/yjkcAwfr7TDpiyTfXvjkMR+Vw2A998qaBac5tAKHU1hq3i4oNwjRr9ofvayt/+Rk+yX/4iWA159KpXWKxJx/z0Bopfyw+g4=);dashed=1;strokeColor=#000000;strokeWidth=3;spacingTop=-1;spacingBottom=-1;spacingLeft=-1;spacingRight=-1;labelBackgroundColor=none;rounded=0;html=1;whiteSpace=wrap;" parent="1" vertex="1">
          <mxGeometry x="-964" y="-995" width="80" height="30" as="geometry" />
        </mxCell>
        <mxCell id="CULUh0v67lgrJKuAHWb2-29" style="vsdxID=57;edgeStyle=none;startArrow=none;endArrow=block;startSize=5;endSize=9;strokeColor=#000000;spacingTop=0;spacingBottom=0;spacingLeft=0;spacingRight=0;verticalAlign=middle;html=1;labelBackgroundColor=#ffffff;rounded=0;" parent="1" source="203xu0XrpAFpmtI-5cuE-13" target="CULUh0v67lgrJKuAHWb2-28" edge="1">
          <mxGeometry relative="1" as="geometry">
            <mxPoint as="offset" />
            <mxPoint x="-888" y="-750" as="sourcePoint" />
            <mxPoint x="-861" y="-825" as="targetPoint" />
          </mxGeometry>
        </mxCell>
        <mxCell id="CULUh0v67lgrJKuAHWb2-31" style="vsdxID=57;edgeStyle=none;startArrow=none;endArrow=block;startSize=5;endSize=9;strokeColor=#000000;spacingTop=0;spacingBottom=0;spacingLeft=0;spacingRight=0;verticalAlign=middle;html=1;labelBackgroundColor=#ffffff;rounded=0;" parent="1" source="CULUh0v67lgrJKuAHWb2-28" target="A6ZcCyZVLG_3UMEJ_GDC-4" edge="1">
          <mxGeometry relative="1" as="geometry">
            <mxPoint as="offset" />
            <mxPoint x="-1000" y="-945" as="sourcePoint" />
            <mxPoint x="-958" y="-920" as="targetPoint" />
          </mxGeometry>
        </mxCell>
        <mxCell id="CULUh0v67lgrJKuAHWb2-33" value="12" style="vsdxID=51;fillColor=#FFFFFF;gradientColor=none;shape=stencil(vVHLDsIgEPwajiQI6RfU+h8bu22JCGRB2/69kG1iazx58DazM/vIjjBtmiCi0CplCjecbZ8nYc5Ca+snJJsLEqYTph0C4Ujh4XvmEaqzont41gkL96naodXKrGF6YSfQtUi0OXXDVlqPfJNP6usotUhYbJIUMmQb/GGrAxpRljVycDBuc1hKM2LclX8/7H9nFfB+82Cd45T2+mcspcSRmu4F);labelBackgroundColor=none;rounded=0;html=1;whiteSpace=wrap;" parent="1" vertex="1">
          <mxGeometry x="-1110" y="-260" width="45" height="40" as="geometry" />
        </mxCell>
        <mxCell id="CULUh0v67lgrJKuAHWb2-34" style="vsdxID=57;edgeStyle=none;startArrow=none;endArrow=block;startSize=5;endSize=9;strokeColor=#000000;spacingTop=0;spacingBottom=0;spacingLeft=0;spacingRight=0;verticalAlign=middle;html=1;labelBackgroundColor=#ffffff;rounded=0;" parent="1" source="CULUh0v67lgrJKuAHWb2-33" target="ZhGPCTu5Iyny0ZlqSRic-1" edge="1">
          <mxGeometry relative="1" as="geometry">
            <mxPoint as="offset" />
            <mxPoint x="-906.38" y="110" as="sourcePoint" />
            <mxPoint x="-917.38" y="65" as="targetPoint" />
          </mxGeometry>
        </mxCell>
        <mxCell id="CULUh0v67lgrJKuAHWb2-35" value="MODO" style="verticalAlign=middle;align=center;vsdxID=7;fillColor=#FFFFFF;gradientColor=none;shape=stencil(nZBLDoAgDERP0z3SIyjew0SURgSD+Lu9kMZoXLhwN9O+tukAlrNpJg1SzDH4QW/URgNYgZTkjA4UkwJUgGXng+6DX1zLfmoymdXo17xh5zmRJ6Q42BWCfc2oJfdAr+Yv+AP9Cb7OJ3H/2JG1HNGz/84klThPVCc=);strokeColor=#000000;spacingTop=-1;spacingBottom=-1;spacingLeft=-1;spacingRight=-1;labelBackgroundColor=none;rounded=0;html=1;whiteSpace=wrap;" parent="1" vertex="1">
          <mxGeometry x="-826" y="-1110" width="82" height="30" as="geometry" />
        </mxCell>
        <mxCell id="CULUh0v67lgrJKuAHWb2-37" value="&lt;font style=&quot;font-size: 11px ; font-family: &amp;quot;calibri&amp;quot; ; color: #000000 ; direction: ltr ; letter-spacing: 0px ; line-height: 120% ; opacity: 1&quot;&gt;ES&lt;br&gt;&lt;/font&gt;" style="verticalAlign=middle;align=center;vsdxID=2;fillColor=#FFFFFF;gradientColor=none;shape=stencil(tVLREoIgEPwaHnEQxsl3s/9gEpSJwDko7e+DsEkze2l627vdu5uFRaxyHe8FosR5sCcxqMZ3iO0Rpcp0ApQPCLEasUpaEC3Yi2lS3fOojOhsr3HDmObyMtsVcYqS29Qh5FEfklwrM5OXeUa/yjkcAwfr7TDpiyTfXvjkMR+Vw2A998qaBac5tAKHU1hq3i4oNwjRr9ofvayt/+Rk+yX/4iWA159KpXWKxJx/z0Bopfyw+g4=);strokeColor=#000000;spacingTop=-1;spacingBottom=-1;spacingLeft=-1;spacingRight=-1;labelBackgroundColor=none;rounded=0;html=1;whiteSpace=wrap;" parent="1" vertex="1">
          <mxGeometry x="-954" y="-1110" width="80" height="30" as="geometry" />
        </mxCell>
        <mxCell id="CULUh0v67lgrJKuAHWb2-38" style="vsdxID=57;edgeStyle=none;startArrow=none;endArrow=block;startSize=5;endSize=9;strokeColor=#000000;spacingTop=0;spacingBottom=0;spacingLeft=0;spacingRight=0;verticalAlign=middle;html=1;labelBackgroundColor=#ffffff;rounded=0;" parent="1" source="CULUh0v67lgrJKuAHWb2-35" target="CULUh0v67lgrJKuAHWb2-37" edge="1">
          <mxGeometry relative="1" as="geometry">
            <mxPoint as="offset" />
            <mxPoint x="-702" y="-1034" as="sourcePoint" />
            <mxPoint x="-644" y="-975" as="targetPoint" />
          </mxGeometry>
        </mxCell>
        <mxCell id="CULUh0v67lgrJKuAHWb2-39" style="vsdxID=57;edgeStyle=none;startArrow=none;endArrow=block;startSize=5;endSize=9;strokeColor=#000000;spacingTop=0;spacingBottom=0;spacingLeft=0;spacingRight=0;verticalAlign=middle;html=1;labelBackgroundColor=#ffffff;rounded=0;" parent="1" source="CULUh0v67lgrJKuAHWb2-37" target="CULUh0v67lgrJKuAHWb2-42" edge="1">
          <mxGeometry relative="1" as="geometry">
            <mxPoint as="offset" />
            <mxPoint x="-739" y="-1026" as="sourcePoint" />
            <mxPoint x="-914" y="-1110" as="targetPoint" />
          </mxGeometry>
        </mxCell>
        <mxCell id="CULUh0v67lgrJKuAHWb2-40" style="vsdxID=57;edgeStyle=none;startArrow=none;endArrow=block;startSize=5;endSize=9;strokeColor=#000000;spacingTop=0;spacingBottom=0;spacingLeft=0;spacingRight=0;verticalAlign=middle;html=1;labelBackgroundColor=#ffffff;rounded=0;" parent="1" source="CULUh0v67lgrJKuAHWb2-37" target="CULUh0v67lgrJKuAHWb2-41" edge="1">
          <mxGeometry relative="1" as="geometry">
            <mxPoint as="offset" />
            <mxPoint x="-729" y="-1016" as="sourcePoint" />
            <mxPoint x="-1014" y="-1080" as="targetPoint" />
          </mxGeometry>
        </mxCell>
        <mxCell id="CULUh0v67lgrJKuAHWb2-41" value="BATALLA" style="verticalAlign=middle;align=center;vsdxID=7;fillColor=#FFFFFF;gradientColor=none;shape=stencil(nZBLDoAgDERP0z3SIyjew0SURgSD+Lu9kMZoXLhwN9O+tukAlrNpJg1SzDH4QW/URgNYgZTkjA4UkwJUgGXng+6DX1zLfmoymdXo17xh5zmRJ6Q42BWCfc2oJfdAr+Yv+AP9Cb7OJ3H/2JG1HNGz/84klThPVCc=);strokeColor=#000000;spacingTop=-1;spacingBottom=-1;spacingLeft=-1;spacingRight=-1;labelBackgroundColor=none;rounded=0;html=1;whiteSpace=wrap;" parent="1" vertex="1">
          <mxGeometry x="-1013" y="-1169" width="82" height="30" as="geometry" />
        </mxCell>
        <mxCell id="CULUh0v67lgrJKuAHWb2-42" value="CORRIENTE" style="verticalAlign=middle;align=center;vsdxID=7;fillColor=#FFFFFF;gradientColor=none;shape=stencil(nZBLDoAgDERP0z3SIyjew0SURgSD+Lu9kMZoXLhwN9O+tukAlrNpJg1SzDH4QW/URgNYgZTkjA4UkwJUgGXng+6DX1zLfmoymdXo17xh5zmRJ6Q42BWCfc2oJfdAr+Yv+AP9Cb7OJ3H/2JG1HNGz/84klThPVCc=);strokeColor=#000000;spacingTop=-1;spacingBottom=-1;spacingLeft=-1;spacingRight=-1;labelBackgroundColor=none;rounded=0;html=1;whiteSpace=wrap;" parent="1" vertex="1">
          <mxGeometry x="-896" y="-1169" width="82" height="30" as="geometry" />
        </mxCell>
        <mxCell id="Jqs4b0qdM6x-0JzKckN2-1" style="vsdxID=59;edgeStyle=none;startArrow=none;endArrow=open;startSize=5;endSize=2;strokeWidth=4;strokeColor=#CDCDCD;spacingTop=0;spacingBottom=0;spacingLeft=0;spacingRight=0;verticalAlign=middle;html=1;labelBackgroundColor=#ffffff;rounded=0;" parent="1" source="ZhGPCTu5Iyny0ZlqSRic-37" target="ZhGPCTu5Iyny0ZlqSRic-63" edge="1">
          <mxGeometry relative="1" as="geometry">
            <mxPoint as="offset" />
            <Array as="points" />
            <mxPoint x="-534" y="-500" as="sourcePoint" />
            <mxPoint x="-434" y="-520" as="targetPoint" />
          </mxGeometry>
        </mxCell>
        <mxCell id="Jqs4b0qdM6x-0JzKckN2-2" style="vsdxID=59;edgeStyle=none;startArrow=none;endArrow=open;startSize=5;endSize=2;strokeWidth=4;strokeColor=#CDCDCD;spacingTop=0;spacingBottom=0;spacingLeft=0;spacingRight=0;verticalAlign=middle;html=1;labelBackgroundColor=#ffffff;rounded=0;" parent="1" source="ZhGPCTu5Iyny0ZlqSRic-63" target="203xu0XrpAFpmtI-5cuE-1" edge="1">
          <mxGeometry relative="1" as="geometry">
            <mxPoint as="offset" />
            <Array as="points" />
            <mxPoint x="-485" y="-528.5" as="sourcePoint" />
            <mxPoint x="-540" y="-521.5" as="targetPoint" />
          </mxGeometry>
        </mxCell>
        <mxCell id="Jqs4b0qdM6x-0JzKckN2-4" style="vsdxID=59;edgeStyle=none;startArrow=none;endArrow=open;startSize=5;endSize=2;strokeWidth=4;strokeColor=#CDCDCD;spacingTop=0;spacingBottom=0;spacingLeft=0;spacingRight=0;verticalAlign=middle;html=1;labelBackgroundColor=#ffffff;rounded=0;exitX=-0.044;exitY=0.667;exitDx=0;exitDy=0;exitPerimeter=0;" parent="1" source="ZhGPCTu5Iyny0ZlqSRic-63" target="203xu0XrpAFpmtI-5cuE-2" edge="1">
          <mxGeometry relative="1" as="geometry">
            <mxPoint as="offset" />
            <Array as="points" />
            <mxPoint x="-604" y="-530" as="sourcePoint" />
            <mxPoint x="-668" y="-565" as="targetPoint" />
          </mxGeometry>
        </mxCell>
        <mxCell id="Jqs4b0qdM6x-0JzKckN2-6" style="vsdxID=59;edgeStyle=none;startArrow=none;endArrow=open;startSize=5;endSize=2;strokeWidth=4;strokeColor=#CDCDCD;spacingTop=0;spacingBottom=0;spacingLeft=0;spacingRight=0;verticalAlign=middle;html=1;labelBackgroundColor=#ffffff;rounded=0;" parent="1" source="ZhGPCTu5Iyny0ZlqSRic-37" target="t8Utz6IQ3dCh28kGkk3Y-3" edge="1">
          <mxGeometry relative="1" as="geometry">
            <mxPoint as="offset" />
            <Array as="points" />
            <mxPoint x="-487" y="-552" as="sourcePoint" />
            <mxPoint x="-527" y="-538" as="targetPoint" />
          </mxGeometry>
        </mxCell>
        <mxCell id="Jqs4b0qdM6x-0JzKckN2-13" style="vsdxID=20;fillColor=#FFFFFF;gradientColor=none;shape=stencil(UzV2Ls5ILEhVNTIoLinKz04tz0wpyVA1dlE1MsrMy0gtyiwBslSNXVWNndPyi1LTi/JL81Ig/IJEkEoQKze/DGRCBUSfAUiHkUElhGcK4bpBVOZk5iGpNEVVikeloQHZpsK0YlWLz1QgA+HFtMycHEgIIcujBwlQCBKcxq4A);strokeColor=#000000;spacingTop=-1;spacingBottom=-1;spacingLeft=-1;spacingRight=-1;labelBackgroundColor=none;rounded=0;html=1;whiteSpace=wrap;" parent="1" vertex="1">
          <mxGeometry x="-621.75" y="-754" width="190" height="140" as="geometry" />
        </mxCell>
        <mxCell id="Jqs4b0qdM6x-0JzKckN2-14" value="&lt;font style=&quot;font-size:11px;font-family:Calibri;color:#000000;direction:ltr;letter-spacing:0px;line-height:120%;opacity:1&quot;&gt;&lt;br&gt;&lt;/font&gt;" style="text;vsdxID=20;fillColor=none;gradientColor=none;strokeColor=none;spacingTop=-1;spacingBottom=-1;spacingLeft=-1;spacingRight=-1;labelBackgroundColor=none;rounded=0;html=1;whiteSpace=wrap;verticalAlign=middle;align=center;;html=1;" parent="Jqs4b0qdM6x-0JzKckN2-13" vertex="1">
          <mxGeometry x="13.50903699004301" y="15.860000000000001" width="135.02960961411807" height="106.4" as="geometry" />
        </mxCell>
        <mxCell id="Jqs4b0qdM6x-0JzKckN2-15" value="&lt;font style=&quot;font-size:11px;font-family:Calibri;color:#000000;direction:ltr;letter-spacing:0px;line-height:120%;opacity:1&quot;&gt;VALOR_1&lt;br&gt;&lt;/font&gt;" style="verticalAlign=middle;align=center;vsdxID=7;fillColor=#FFFFFF;gradientColor=none;shape=stencil(nZBLDoAgDERP0z3SIyjew0SURgSD+Lu9kMZoXLhwN9O+tukAlrNpJg1SzDH4QW/URgNYgZTkjA4UkwJUgGXng+6DX1zLfmoymdXo17xh5zmRJ6Q42BWCfc2oJfdAr+Yv+AP9Cb7OJ3H/2JG1HNGz/84klThPVCc=);strokeColor=#000000;spacingTop=-1;spacingBottom=-1;spacingLeft=-1;spacingRight=-1;labelBackgroundColor=none;rounded=0;html=1;whiteSpace=wrap;" parent="Jqs4b0qdM6x-0JzKckN2-13" vertex="1">
          <mxGeometry x="22.16458099259999" y="62.22222222222222" width="60.36186122195966" height="23.333333333333332" as="geometry" />
        </mxCell>
        <mxCell id="Jqs4b0qdM6x-0JzKckN2-16" value="=" style="vsdxID=52;fillColor=#FFFFFF;gradientColor=none;shape=stencil(vVHLDsIgEPwajiQI6RfU+h8bu22JCGRB2/69kG1iazx58DazM/vIjjBtmiCi0CplCjecbZ8nYc5Ca+snJJsLEqYTph0C4Ujh4XvmEaqzont41gkL96naodXKrGF6YSfQtUi0OXXDVlqPfJNP6usotUhYbJIUMmQb/GGrAxpRljVycDBuc1hKM2LclX8/7H9nFfB+82Cd45T2+mcspcSRmu4F);dashed=1;dashPattern=4.00 2.00;labelBackgroundColor=none;rounded=0;html=1;whiteSpace=wrap;" parent="Jqs4b0qdM6x-0JzKckN2-13" vertex="1">
          <mxGeometry x="81.01003448142261" y="15.85888888888889" width="27.97256983456667" height="27.22222222222222" as="geometry" />
        </mxCell>
        <mxCell id="Jqs4b0qdM6x-0JzKckN2-17" value="&lt;font style=&quot;font-size:11px;font-family:Calibri;color:#000000;direction:ltr;letter-spacing:0px;line-height:120%;opacity:1&quot;&gt;VALOR_2&lt;br&gt;&lt;/font&gt;" style="verticalAlign=middle;align=center;vsdxID=7;fillColor=#FFFFFF;gradientColor=none;shape=stencil(nZBLDoAgDERP0z3SIyjew0SURgSD+Lu9kMZoXLhwN9O+tukAlrNpJg1SzDH4QW/URgNYgZTkjA4UkwJUgGXng+6DX1zLfmoymdXo17xh5zmRJ6Q42BWCfc2oJfdAr+Yv+AP9Cb7OJ3H/2JG1HNGz/84klThPVCc=);strokeColor=#000000;spacingTop=-1;spacingBottom=-1;spacingLeft=-1;spacingRight=-1;labelBackgroundColor=none;rounded=0;html=1;whiteSpace=wrap;" parent="Jqs4b0qdM6x-0JzKckN2-13" vertex="1">
          <mxGeometry x="106.66382550075554" y="58.333333333333336" width="41.877881523381525" height="27.22222222222222" as="geometry" />
        </mxCell>
        <mxCell id="Jqs4b0qdM6x-0JzKckN2-18" style="vsdxID=62;edgeStyle=none;startArrow=none;endArrow=none;startSize=5;endSize=9;strokeColor=#000000;spacingTop=0;spacingBottom=0;spacingLeft=0;spacingRight=0;verticalAlign=middle;html=1;labelBackgroundColor=#ffffff;rounded=0;" parent="Jqs4b0qdM6x-0JzKckN2-13" source="Jqs4b0qdM6x-0JzKckN2-15" target="Jqs4b0qdM6x-0JzKckN2-16" edge="1">
          <mxGeometry relative="1" as="geometry">
            <mxPoint as="offset" />
            <mxPoint x="854.797566928829" y="373.3333333333333" as="sourcePoint" />
            <mxPoint x="52.345511603579816" as="targetPoint" />
          </mxGeometry>
        </mxCell>
        <mxCell id="Jqs4b0qdM6x-0JzKckN2-19" style="vsdxID=62;edgeStyle=none;startArrow=none;endArrow=none;startSize=5;endSize=9;strokeColor=#000000;spacingTop=0;spacingBottom=0;spacingLeft=0;spacingRight=0;verticalAlign=middle;html=1;labelBackgroundColor=#ffffff;rounded=0;" parent="Jqs4b0qdM6x-0JzKckN2-13" source="Jqs4b0qdM6x-0JzKckN2-17" target="Jqs4b0qdM6x-0JzKckN2-16" edge="1">
          <mxGeometry relative="1" as="geometry">
            <mxPoint as="offset" />
            <mxPoint x="914.0147611483479" y="369.44444444444446" as="sourcePoint" />
            <mxPoint x="111.56270582309872" y="-3.888888888888889" as="targetPoint" />
          </mxGeometry>
        </mxCell>
        <mxCell id="Jqs4b0qdM6x-0JzKckN2-20" style="vsdxID=59;edgeStyle=none;startArrow=none;endArrow=open;startSize=5;endSize=2;strokeWidth=4;strokeColor=#CDCDCD;spacingTop=0;spacingBottom=0;spacingLeft=0;spacingRight=0;verticalAlign=middle;html=1;labelBackgroundColor=#ffffff;rounded=0;" parent="1" source="Jqs4b0qdM6x-0JzKckN2-14" target="t8Utz6IQ3dCh28kGkk3Y-3" edge="1">
          <mxGeometry relative="1" as="geometry">
            <mxPoint as="offset" />
            <Array as="points" />
            <mxPoint x="-1038" y="-465" as="sourcePoint" />
            <mxPoint x="-932" y="-498" as="targetPoint" />
          </mxGeometry>
        </mxCell>
        <mxCell id="Jqs4b0qdM6x-0JzKckN2-21" value="SI" style="edgeLabel;html=1;align=center;verticalAlign=middle;resizable=0;points=[];" parent="Jqs4b0qdM6x-0JzKckN2-20" connectable="0" vertex="1">
          <mxGeometry x="0.1117" y="-4" relative="1" as="geometry">
            <mxPoint as="offset" />
          </mxGeometry>
        </mxCell>
        <mxCell id="Jqs4b0qdM6x-0JzKckN2-24" style="vsdxID=59;edgeStyle=none;startArrow=none;endArrow=open;startSize=5;endSize=2;strokeWidth=4;strokeColor=#CDCDCD;spacingTop=0;spacingBottom=0;spacingLeft=0;spacingRight=0;verticalAlign=middle;html=1;labelBackgroundColor=#ffffff;rounded=0;entryX=0.37;entryY=0.937;entryDx=0;entryDy=0;entryPerimeter=0;" parent="1" source="203xu0XrpAFpmtI-5cuE-38" target="a82_juw0TD2ykU31_FT8-8" edge="1">
          <mxGeometry relative="1" as="geometry">
            <mxPoint as="offset" />
            <Array as="points" />
            <mxPoint x="-942" y="-905" as="sourcePoint" />
            <mxPoint x="-1005" y="-930" as="targetPoint" />
          </mxGeometry>
        </mxCell>
        <mxCell id="Jqs4b0qdM6x-0JzKckN2-26" style="vsdxID=59;edgeStyle=none;startArrow=none;endArrow=open;startSize=5;endSize=2;strokeWidth=4;strokeColor=#CDCDCD;spacingTop=0;spacingBottom=0;spacingLeft=0;spacingRight=0;verticalAlign=middle;html=1;labelBackgroundColor=#ffffff;rounded=0;entryX=0.018;entryY=0.554;entryDx=0;entryDy=0;entryPerimeter=0;" parent="1" source="a82_juw0TD2ykU31_FT8-8" target="CULUh0v67lgrJKuAHWb2-28" edge="1">
          <mxGeometry relative="1" as="geometry">
            <mxPoint as="offset" />
            <Array as="points" />
            <mxPoint x="-1032" y="-780" as="sourcePoint" />
            <mxPoint x="-894" y="-856" as="targetPoint" />
          </mxGeometry>
        </mxCell>
        <mxCell id="Jqs4b0qdM6x-0JzKckN2-28" value="NUMERO JUGADORES" style="verticalAlign=middle;align=center;vsdxID=7;fillColor=#FFFFFF;gradientColor=none;shape=stencil(nZBLDoAgDERP0z3SIyjew0SURgSD+Lu9kMZoXLhwN9O+tukAlrNpJg1SzDH4QW/URgNYgZTkjA4UkwJUgGXng+6DX1zLfmoymdXo17xh5zmRJ6Q42BWCfc2oJfdAr+Yv+AP9Cb7OJ3H/2JG1HNGz/84klThPVCc=);strokeColor=#000000;spacingTop=-1;spacingBottom=-1;spacingLeft=-1;spacingRight=-1;labelBackgroundColor=none;rounded=0;html=1;whiteSpace=wrap;" parent="1" vertex="1">
          <mxGeometry x="-694.25" y="-1050" width="82" height="30" as="geometry" />
        </mxCell>
        <mxCell id="Jqs4b0qdM6x-0JzKckN2-29" style="vsdxID=57;edgeStyle=none;startArrow=none;endArrow=block;startSize=5;endSize=9;strokeColor=#000000;spacingTop=0;spacingBottom=0;spacingLeft=0;spacingRight=0;verticalAlign=middle;html=1;labelBackgroundColor=#ffffff;rounded=0;" parent="1" source="CULUh0v67lgrJKuAHWb2-25" target="CULUh0v67lgrJKuAHWb2-35" edge="1">
          <mxGeometry relative="1" as="geometry">
            <mxPoint as="offset" />
            <mxPoint x="-838" y="-1002" as="sourcePoint" />
            <mxPoint x="-749" y="-1018" as="targetPoint" />
          </mxGeometry>
        </mxCell>
        <mxCell id="Jqs4b0qdM6x-0JzKckN2-30" style="vsdxID=57;edgeStyle=none;startArrow=none;endArrow=block;startSize=5;endSize=9;strokeColor=#000000;spacingTop=0;spacingBottom=0;spacingLeft=0;spacingRight=0;verticalAlign=middle;html=1;labelBackgroundColor=#ffffff;rounded=0;" parent="1" source="CULUh0v67lgrJKuAHWb2-25" target="Jqs4b0qdM6x-0JzKckN2-28" edge="1">
          <mxGeometry relative="1" as="geometry">
            <mxPoint as="offset" />
            <mxPoint x="-828" y="-992" as="sourcePoint" />
            <mxPoint x="-739" y="-1008" as="targetPoint" />
          </mxGeometry>
        </mxCell>
        <mxCell id="Jqs4b0qdM6x-0JzKckN2-32" style="vsdxID=57;edgeStyle=none;startArrow=none;endArrow=block;startSize=5;endSize=9;strokeColor=#000000;spacingTop=0;spacingBottom=0;spacingLeft=0;spacingRight=0;verticalAlign=middle;html=1;labelBackgroundColor=#ffffff;rounded=0;" parent="1" source="CULUh0v67lgrJKuAHWb2-35" target="Jqs4b0qdM6x-0JzKckN2-33" edge="1">
          <mxGeometry relative="1" as="geometry">
            <mxPoint as="offset" />
            <mxPoint x="-687" y="-1102" as="sourcePoint" />
            <mxPoint x="-624" y="-1100" as="targetPoint" />
          </mxGeometry>
        </mxCell>
        <mxCell id="Jqs4b0qdM6x-0JzKckN2-33" value="&lt;font style=&quot;font-size: 11px ; font-family: &amp;quot;calibri&amp;quot; ; color: #000000 ; direction: ltr ; letter-spacing: 0px ; line-height: 120% ; opacity: 1&quot;&gt;TIENE&lt;br&gt;&lt;/font&gt;" style="verticalAlign=middle;align=center;vsdxID=2;fillColor=#FFFFFF;gradientColor=none;shape=stencil(tVLREoIgEPwaHnEQxsl3s/9gEpSJwDko7e+DsEkze2l627vdu5uFRaxyHe8FosR5sCcxqMZ3iO0Rpcp0ApQPCLEasUpaEC3Yi2lS3fOojOhsr3HDmObyMtsVcYqS29Qh5FEfklwrM5OXeUa/yjkcAwfr7TDpiyTfXvjkMR+Vw2A998qaBac5tAKHU1hq3i4oNwjRr9ofvayt/+Rk+yX/4iWA159KpXWKxJx/z0Bopfyw+g4=);strokeColor=#000000;spacingTop=-1;spacingBottom=-1;spacingLeft=-1;spacingRight=-1;labelBackgroundColor=none;rounded=0;html=1;whiteSpace=wrap;" parent="1" vertex="1">
          <mxGeometry x="-693.25" y="-1110" width="80" height="30" as="geometry" />
        </mxCell>
        <mxCell id="Jqs4b0qdM6x-0JzKckN2-34" value="REGLAS" style="verticalAlign=middle;align=center;vsdxID=7;fillColor=#FFFFFF;gradientColor=none;shape=stencil(nZBLDoAgDERP0z3SIyjew0SURgSD+Lu9kMZoXLhwN9O+tukAlrNpJg1SzDH4QW/URgNYgZTkjA4UkwJUgGXng+6DX1zLfmoymdXo17xh5zmRJ6Q42BWCfc2oJfdAr+Yv+AP9Cb7OJ3H/2JG1HNGz/84klThPVCc=);strokeColor=#000000;spacingTop=-1;spacingBottom=-1;spacingLeft=-1;spacingRight=-1;labelBackgroundColor=none;rounded=0;html=1;whiteSpace=wrap;" parent="1" vertex="1">
          <mxGeometry x="-699" y="-1169" width="82" height="30" as="geometry" />
        </mxCell>
        <mxCell id="Jqs4b0qdM6x-0JzKckN2-35" style="vsdxID=57;edgeStyle=none;startArrow=none;endArrow=block;startSize=5;endSize=9;strokeColor=#000000;spacingTop=0;spacingBottom=0;spacingLeft=0;spacingRight=0;verticalAlign=middle;html=1;labelBackgroundColor=#ffffff;rounded=0;" parent="1" source="Jqs4b0qdM6x-0JzKckN2-33" target="Jqs4b0qdM6x-0JzKckN2-34" edge="1">
          <mxGeometry relative="1" as="geometry">
            <mxPoint as="offset" />
            <mxPoint x="-704" y="-1075" as="sourcePoint" />
            <mxPoint x="-622" y="-1075" as="targetPoint" />
          </mxGeometry>
        </mxCell>
        <mxCell id="Jqs4b0qdM6x-0JzKckN2-37" style="vsdxID=57;edgeStyle=none;startArrow=none;endArrow=block;startSize=5;endSize=9;strokeColor=#000000;spacingTop=0;spacingBottom=0;spacingLeft=0;spacingRight=0;verticalAlign=middle;html=1;labelBackgroundColor=#ffffff;rounded=0;" parent="1" source="Jqs4b0qdM6x-0JzKckN2-28" target="Jqs4b0qdM6x-0JzKckN2-38" edge="1">
          <mxGeometry relative="1" as="geometry">
            <mxPoint as="offset" />
            <mxPoint x="-520" y="-1119" as="sourcePoint" />
            <mxPoint x="-448" y="-1110" as="targetPoint" />
          </mxGeometry>
        </mxCell>
        <mxCell id="Jqs4b0qdM6x-0JzKckN2-38" value="&lt;font style=&quot;font-size: 11px ; font-family: &amp;quot;calibri&amp;quot; ; color: #000000 ; direction: ltr ; letter-spacing: 0px ; line-height: 120% ; opacity: 1&quot;&gt;DEFINE&lt;br&gt;&lt;/font&gt;" style="verticalAlign=middle;align=center;vsdxID=1;fillColor=#FFFFFF;gradientColor=none;shape=stencil(tVLREoIgEPwaHnEQxsl3s/9gEpSJwDko7e+DsEkze2l627vdu5uFRaxyHe8FosR5sCcxqMZ3iO0Rpcp0ApQPCLEasUpaEC3Yi2lS3fOojOhsr3HDmObyMtsVcYqS29Qh5FEfklwrM5OXeUa/yjkcAwfr7TDpiyTfXvjkMR+Vw2A998qaBac5tAKHU1hq3i4oNwjRr9ofvayt/+Rk+yX/4iWA159KpXWKxJx/z0Bopfyw+g4=);dashed=1;strokeColor=#000000;strokeWidth=3;spacingTop=-1;spacingBottom=-1;spacingLeft=-1;spacingRight=-1;labelBackgroundColor=none;rounded=0;html=1;whiteSpace=wrap;" parent="1" vertex="1">
          <mxGeometry x="-566.75" y="-1050" width="80" height="30" as="geometry" />
        </mxCell>
        <mxCell id="Jqs4b0qdM6x-0JzKckN2-39" style="vsdxID=57;edgeStyle=none;startArrow=none;endArrow=block;startSize=5;endSize=9;strokeColor=#000000;spacingTop=0;spacingBottom=0;spacingLeft=0;spacingRight=0;verticalAlign=middle;html=1;labelBackgroundColor=#ffffff;rounded=0;" parent="1" source="Jqs4b0qdM6x-0JzKckN2-38" target="Jqs4b0qdM6x-0JzKckN2-40" edge="1">
          <mxGeometry relative="1" as="geometry">
            <mxPoint as="offset" />
            <mxPoint x="-592.5967519181589" y="-1080" as="sourcePoint" />
            <mxPoint x="-562.25" y="-1102.56" as="targetPoint" />
          </mxGeometry>
        </mxCell>
        <mxCell id="Jqs4b0qdM6x-0JzKckN2-40" value="2" style="vsdxID=51;fillColor=#FFFFFF;gradientColor=none;shape=stencil(vVHLDsIgEPwajiQI6RfU+h8bu22JCGRB2/69kG1iazx58DazM/vIjjBtmiCi0CplCjecbZ8nYc5Ca+snJJsLEqYTph0C4Ujh4XvmEaqzont41gkL96naodXKrGF6YSfQtUi0OXXDVlqPfJNP6usotUhYbJIUMmQb/GGrAxpRljVycDBuc1hKM2LclX8/7H9nFfB+82Cd45T2+mcspcSRmu4F);labelBackgroundColor=none;rounded=0;html=1;whiteSpace=wrap;" parent="1" vertex="1">
          <mxGeometry x="-548" y="-1139" width="45" height="40" as="geometry" />
        </mxCell>
        <mxCell id="Jqs4b0qdM6x-0JzKckN2-45" value="2" style="vsdxID=51;fillColor=#FFFFFF;gradientColor=none;shape=stencil(vVHLDsIgEPwajiQI6RfU+h8bu22JCGRB2/69kG1iazx58DazM/vIjjBtmiCi0CplCjecbZ8nYc5Ca+snJJsLEqYTph0C4Ujh4XvmEaqzont41gkL96naodXKrGF6YSfQtUi0OXXDVlqPfJNP6usotUhYbJIUMmQb/GGrAxpRljVycDBuc1hKM2LclX8/7H9nFfB+82Cd45T2+mcspcSRmu4F);labelBackgroundColor=none;rounded=0;html=1;whiteSpace=wrap;" parent="1" vertex="1">
          <mxGeometry x="-1027.38" y="-170" width="45" height="40" as="geometry" />
        </mxCell>
        <mxCell id="Jqs4b0qdM6x-0JzKckN2-46" style="vsdxID=57;edgeStyle=none;startArrow=none;endArrow=block;startSize=5;endSize=9;strokeColor=#000000;spacingTop=0;spacingBottom=0;spacingLeft=0;spacingRight=0;verticalAlign=middle;html=1;labelBackgroundColor=#ffffff;rounded=0;" parent="1" source="Jqs4b0qdM6x-0JzKckN2-45" target="3d_Hws1QxchP5DV1Z6rh-3" edge="1">
          <mxGeometry relative="1" as="geometry">
            <mxPoint as="offset" />
            <mxPoint x="-996.38" y="40" as="sourcePoint" />
            <mxPoint x="-945.38" y="95" as="targetPoint" />
          </mxGeometry>
        </mxCell>
        <mxCell id="a82_juw0TD2ykU31_FT8-10" value="&lt;font style=&quot;font-size:11px;font-family:Calibri;color:#000000;direction:ltr;letter-spacing:0px;line-height:120%;opacity:1&quot;&gt;CONTADOR PARES SEGUIDOS&lt;br&gt;&lt;/font&gt;" style="verticalAlign=middle;align=center;vsdxID=7;fillColor=#FFFFFF;gradientColor=none;shape=stencil(nZBLDoAgDERP0z3SIyjew0SURgSD+Lu9kMZoXLhwN9O+tukAlrNpJg1SzDH4QW/URgNYgZTkjA4UkwJUgGXng+6DX1zLfmoymdXo17xh5zmRJ6Q42BWCfc2oJfdAr+Yv+AP9Cb7OJ3H/2JG1HNGz/84klThPVCc=);strokeColor=#000000;spacingTop=-1;spacingBottom=-1;spacingLeft=-1;spacingRight=-1;labelBackgroundColor=none;rounded=0;html=1;whiteSpace=wrap;" parent="1" vertex="1">
          <mxGeometry x="-1328.83" y="-626.64" width="79.22" height="36.64" as="geometry" />
        </mxCell>
        <mxCell id="ZhGPCTu5Iyny0ZlqSRic-7" value="&lt;font style=&quot;font-size:11px;font-family:Calibri;color:#000000;direction:ltr;letter-spacing:0px;line-height:120%;opacity:1&quot;&gt;FICHA&lt;br&gt;&lt;/font&gt;" style="verticalAlign=middle;align=center;vsdxID=7;fillColor=#FFFFFF;gradientColor=none;shape=stencil(nZBLDoAgDERP0z3SIyjew0SURgSD+Lu9kMZoXLhwN9O+tukAlrNpJg1SzDH4QW/URgNYgZTkjA4UkwJUgGXng+6DX1zLfmoymdXo17xh5zmRJ6Q42BWCfc2oJfdAr+Yv+AP9Cb7OJ3H/2JG1HNGz/84klThPVCc=);strokeColor=#000000;spacingTop=-1;spacingBottom=-1;spacingLeft=-1;spacingRight=-1;labelBackgroundColor=none;rounded=0;html=1;whiteSpace=wrap;" parent="1" vertex="1">
          <mxGeometry x="-714" y="-600" width="82" height="30" as="geometry" />
        </mxCell>
      </root>
    </mxGraphModel>
  </diagram>
</mxfile>
